<svg width="42" height="42" viewBox="0 0 42 42" fill="none" xmlns="http://www.w3.org/2000/svg">
<g clip-path="url(#clip0_395_98)">
<path opacity="0.15" d="M26.4927 35.3158C33.1959 32.7439 38.4696 30.241 38.2717 29.7254C38.0739 29.2098 32.4795 30.8767 25.7762 33.4485C19.073 36.0204 13.7993 38.5234 13.9971 39.039C14.195 39.5546 19.7894 37.8877 26.4927 35.3158Z" fill="#45413C"/>
<path d="M36.144 26.9714C36.6694 28.3407 35.9788 29.891 34.6095 30.4164L17.1816 37.103C15.8122 37.6284 14.262 36.9379 13.7366 35.5686L10.5127 27.1658C8.14847 21.0038 11.2558 14.0278 17.4178 11.6636C23.5798 9.29935 30.5558 12.4066 32.92 18.5687L36.144 26.9714Z" fill="#B2B1FF"/>
<path d="M17.4178 11.6636C11.2558 14.0278 8.14847 21.0038 10.5127 27.1658L11.7067 30.278C9.34253 24.1159 12.4498 17.1399 18.6118 14.7757C24.7738 12.4115 31.7499 15.5188 34.1141 21.6808L32.92 18.5687C30.5558 12.4066 23.5798 9.29935 17.4178 11.6636Z" fill="white"/>
<path d="M36.144 26.9714C36.6694 28.3407 35.9788 29.891 34.6095 30.4164L17.1816 37.103C15.8122 37.6284 14.262 36.9379 13.7366 35.5686L10.5127 27.1658C8.14847 21.0038 11.2558 14.0278 17.4178 11.6636C23.5798 9.29935 30.5558 12.4066 32.92 18.5687L36.144 26.9714Z" stroke="#45413C" stroke-miterlimit="10" stroke-linecap="round" stroke-linejoin="round"/>
<path d="M29.8219 31.8962C30.0846 32.5809 29.7394 33.356 29.0547 33.6187L23.4529 35.768C22.7682 36.0307 21.9931 35.6854 21.7304 35.0007L19.8199 30.0213C19.5572 29.3367 19.9025 28.5616 20.5871 28.2989L26.189 26.1496C26.8736 25.8869 27.6488 26.2321 27.9114 26.9168L29.8219 31.8962Z" fill="#C0DCEB"/>
<path d="M20.417 31.5774L28.5085 28.4729L28.9862 29.7177L20.8946 32.8222L20.417 31.5774Z" fill="#ADC4D9"/>
<path d="M37.3673 23.6459L35.6664 25.7266L32.6813 17.9463L35.3374 18.3553L37.3673 23.6459ZM10.603 33.9147L13.2591 34.3238L10.2739 26.5434L8.57308 28.6241L10.603 33.9147Z" fill="#ADC4D9" stroke="#45413C" stroke-miterlimit="10" stroke-linecap="round" stroke-linejoin="round"/>
<path d="M17.4179 11.6636C17.3035 10.9934 17.0635 6.0872 22.3533 4.98587" stroke="#45413C" stroke-miterlimit="10" stroke-linecap="round" stroke-linejoin="round"/>
<path d="M24.1705 6.93063C25.0299 6.6009 25.4593 5.63693 25.1296 4.77754C24.7998 3.91815 23.8359 3.48877 22.9765 3.8185C22.1171 4.14823 21.6877 5.1122 22.0174 5.97159C22.3472 6.83098 23.3111 7.26036 24.1705 6.93063Z" fill="white" stroke="#45413C" stroke-miterlimit="10" stroke-linecap="round" stroke-linejoin="round"/>
<path d="M29.8219 31.8962C30.0846 32.5809 29.7394 33.356 29.0547 33.6187L23.4529 35.768C22.7682 36.0307 21.9931 35.6854 21.7304 35.0007L19.8199 30.0213C19.5572 29.3367 19.9025 28.5616 20.5871 28.2989L26.189 26.1496C26.8736 25.8869 27.6488 26.2321 27.9114 26.9168L29.8219 31.8962Z" stroke="#45413C" stroke-miterlimit="10" stroke-linecap="round" stroke-linejoin="round"/>
<path d="M28.5085 28.4729L20.4169 31.5774L19.8199 30.0213C19.5572 29.3367 19.9025 28.5616 20.5871 28.2989L26.189 26.1496C26.8736 25.8869 27.6488 26.2321 27.9114 26.9168L28.5085 28.4729Z" fill="white" stroke="#45413C" stroke-miterlimit="10" stroke-linecap="round" stroke-linejoin="round"/>
<path d="M23.9996 11.1376C21.8509 10.7482 19.5964 10.8277 17.4179 11.6636C15.2394 12.4994 13.4865 13.886 12.1497 15.6128L15.087 23.2686L26.9131 18.7312L23.9996 11.1376Z" stroke="#45413C" stroke-miterlimit="10" stroke-linecap="round" stroke-linejoin="round"/>
<path d="M27.7234 22.7046C29.4422 22.0452 30.3009 20.1172 29.6415 18.3985C28.982 16.6797 27.0541 15.8209 25.3353 16.4804C23.6165 17.1398 22.7577 19.0678 23.4172 20.7866C24.0767 22.5053 26.0046 23.3641 27.7234 22.7046Z" fill="#00DFEB" stroke="#45413C" stroke-miterlimit="10" stroke-linecap="round" stroke-linejoin="round"/>
<path d="M27.007 20.8374C27.6945 20.5736 28.038 19.8024 27.7742 19.1149C27.5104 18.4274 26.7392 18.0839 26.0517 18.3477C25.3642 18.6115 25.0207 19.3827 25.2845 20.0702C25.5483 20.7577 26.3195 21.1012 27.007 20.8374Z" fill="#627B8C" stroke="#45413C" stroke-miterlimit="10" stroke-linecap="round" stroke-linejoin="round"/>
<path d="M17.1423 26.7645C18.8611 26.105 19.7199 24.1771 19.0604 22.4583C18.4009 20.7395 16.473 19.8807 14.7542 20.5402C13.0354 21.1997 12.1767 23.1276 12.8361 24.8464C13.4956 26.5652 15.4235 27.4239 17.1423 26.7645Z" fill="#00DFEB" stroke="#45413C" stroke-miterlimit="10" stroke-linecap="round" stroke-linejoin="round"/>
<path d="M16.4259 24.8972C17.1134 24.6334 17.4569 23.8623 17.1932 23.1747C16.9294 22.4872 16.1582 22.1437 15.4707 22.4075C14.7832 22.6713 14.4397 23.4425 14.7035 24.13C14.9672 24.8175 15.7384 25.161 16.4259 24.8972Z" fill="#627B8C" stroke="#45413C" stroke-miterlimit="10" stroke-linecap="round" stroke-linejoin="round"/>
</g>
<defs>
<clipPath id="clip0_395_98">
<rect width="32" height="32" fill="white" transform="translate(0.330322 11.7932) rotate(-20.9906)"/>
</clipPath>
</defs>
</svg>
