<svg width="24" height="24" viewBox="0 0 24 24" fill="none" xmlns="http://www.w3.org/2000/svg">
<g clip-path="url(#clip0_328_475)">
<path d="M15.3375 3.8955C16.1205 2.886 16.713 1.458 16.4985 0C15.219 0.0885 13.7235 0.9075 12.852 1.974C12.057 2.9415 11.403 4.3785 11.658 5.775C13.056 5.8185 14.5005 4.98 15.3375 3.8955Z" fill="#6A5ACD"/>
<path d="M21.5549 8.05169C20.3264 6.51119 18.5999 5.61719 16.9694 5.61719C14.8169 5.61719 13.9065 6.64769 12.4109 6.64769C10.8689 6.64769 9.69745 5.62019 7.83595 5.62019C6.00745 5.62019 4.06045 6.73769 2.82595 8.64869C1.09045 11.3397 1.38745 16.3992 4.19995 20.7087C5.20645 22.2507 6.55045 23.9847 8.30845 23.9997C9.87295 24.0147 10.3139 22.9962 12.4334 22.9857C14.5529 22.9737 14.9549 24.0132 16.5164 23.9967C18.2759 23.9832 19.6934 22.0617 20.6999 20.5197C21.4214 19.4142 21.6899 18.8577 22.2494 17.6097C18.1799 16.0602 17.5274 10.2732 21.5549 8.05169Z" fill="#6A5ACD"/>
</g>
<defs>
<clipPath id="clip0_328_475">
<rect width="24" height="24" fill="white"/>
</clipPath>
</defs>
</svg>
