<svg width="24" height="24" viewBox="0 0 24 24" fill="none" xmlns="http://www.w3.org/2000/svg">
<g clip-path="url(#clip0_475_264)">
<path d="M6.75005 10.425C7.31255 9.975 7.91255 9.525 8.66255 9.2625C9.52505 8.9625 10.5375 9 11.475 9.225C12.375 9.45 13.2375 9.825 14.0625 10.1625L21.15 13.3125C21.675 13.5375 22.2001 13.8 22.5751 14.1375C23.25 14.8125 23.25 15.7875 22.7626 16.575C22.275 17.3625 21.45 17.9625 20.55 18.45C19.65 18.975 18.7125 19.425 17.925 20.025C17.175 20.5875 16.6125 21.2625 15.9 21.825C13.6875 23.55 10.0125 24 7.23755 22.9125C5.21255 22.125 3.75005 20.6625 2.36255 19.275C1.35005 18.2625 0.300049 17.1375 0.300049 15.8625C0.300049 14.625 1.35005 13.5375 2.81255 13.0875C4.35005 12.675 5.55005 11.3625 6.75005 10.425Z" fill="url(#paint0_linear_475_264)"/>
<path d="M0.262451 8.55002L0.974951 7.83752L1.61245 8.47502" stroke="#CFDADD" stroke-width="1.345" stroke-miterlimit="10" stroke-linecap="round" stroke-linejoin="round"/>
<path d="M22.8 15.4875L23.4375 14.85L24 15.4125" stroke="#53616E" stroke-width="1.229" stroke-miterlimit="10" stroke-linecap="round" stroke-linejoin="round"/>
<path d="M0.9375 12L0 12.9375" stroke="#53616E" stroke-width="1.345" stroke-miterlimit="10" stroke-linecap="round" stroke-linejoin="round"/>
<path d="M22.7625 8.88745L21.75 9.86245" stroke="#53616E" stroke-width="1.229" stroke-miterlimit="10" stroke-linecap="round" stroke-linejoin="round"/>
<path d="M10.2375 21.7875L9.22498 22.7625" stroke="#53616E" stroke-width="1.229" stroke-miterlimit="10" stroke-linecap="round" stroke-linejoin="round"/>
<path d="M19.4625 21.7875L18.45 22.7625" stroke="#53616E" stroke-width="1.229" stroke-miterlimit="10" stroke-linecap="round" stroke-linejoin="round"/>
<path d="M13.3875 5.625H5.66255C4.35005 5.625 3.30005 6.7125 3.30005 8.025V15.525C3.30005 16.8375 4.35005 17.925 5.66255 17.925H5.70005L5.77505 19.8C5.81255 20.25 6.33755 20.5125 6.71255 20.25L9.97505 17.925H18.4875C19.8 17.925 20.85 16.8375 20.85 15.525V8.025C20.85 6.7125 19.8 5.625 18.4875 5.625H13.3875Z" fill="#53616E" stroke="#53616E" stroke-width="1.295" stroke-miterlimit="10" stroke-linecap="round" stroke-linejoin="round"/>
<path d="M7.3501 11.7376H16.7626M7.3501 14.4376H16.7626M7.3501 9.07507H16.7626" stroke="white" stroke-width="1.295" stroke-miterlimit="10" stroke-linecap="round" stroke-linejoin="round"/>
<path d="M18.5626 1.53753L18.0001 2.25003L16.7251 1.27503L17.2876 0.562532C17.4001 0.412532 17.6626 0.375032 17.8126 0.487532L18.4876 0.975032C18.6376 1.12503 18.6751 1.35003 18.5626 1.53753Z" fill="#CFDADD" stroke="#53616E" stroke-width="1.295" stroke-miterlimit="10" stroke-linecap="round" stroke-linejoin="round"/>
<path d="M13.7251 7.9125L12.0376 8.775L12.4501 6.9375L13.7251 7.9125Z" fill="#CFDADD" stroke="#53616E" stroke-width="1.295" stroke-miterlimit="10" stroke-linecap="round" stroke-linejoin="round"/>
<path d="M18.0001 2.25L14.7376 6.5625L14.3626 7.05L13.7251 7.9125L12.4501 6.9375L13.0876 6.075L13.4626 5.5875L16.7251 1.3125L18.0001 2.25Z" fill="#F86C66" stroke="#53616E" stroke-width="0.5" stroke-miterlimit="10" stroke-linecap="round" stroke-linejoin="round"/>
</g>
<defs>
<linearGradient id="paint0_linear_475_264" x1="8.03517" y1="9.51975" x2="15.3878" y2="22.2551" gradientUnits="userSpaceOnUse">
<stop stop-color="white" stop-opacity="0.25"/>
<stop offset="1" stop-color="#FF9D23" stop-opacity="0.8"/>
</linearGradient>
<clipPath id="clip0_475_264">
<rect width="24" height="24" fill="white"/>
</clipPath>
</defs>
</svg>
