<svg width="24" height="25" viewBox="0 0 24 25" fill="none" xmlns="http://www.w3.org/2000/svg">
<path d="M0.0229492 3.62146H23.9999V19.949C23.9999 21.0245 23.4975 22.0554 22.6031 22.8158C21.7088 23.5761 20.4952 24.0033 19.2303 24.0033H4.79301C3.52762 24.0033 2.31457 23.5761 1.41969 22.8158C0.524814 22.0554 0.0229492 21.0223 0.0229492 19.947V3.62146Z" fill="#53616E"/>
<path d="M0 3.63132L2.65271 0.857722C2.90265 0.588671 3.20723 0.376163 3.54602 0.234448C3.90142 0.0847406 4.2824 0.00513181 4.66801 0H19.3859C19.771 0.00660753 20.1513 0.0869 20.5062 0.23654C20.8458 0.377358 21.1517 0.588533 21.4038 0.856152L23.9937 3.62974L0 3.63132Z" fill="#53616E"/>
<path d="M11.9497 16.024C11.4551 16.0241 10.9611 15.9891 10.4714 15.9194L10.4086 15.9089C7.86787 15.4379 5.52864 14.2411 3.82313 12.5429L3.48926 12.2106L5.63487 10.055L5.96875 10.3873C7.23727 11.6506 8.99981 12.5471 10.9319 12.9123C11.2661 12.9575 11.6031 12.9797 11.9404 12.9788C14.7689 12.9788 17.0286 11.3209 18.1233 10.3329L18.4729 10.0189L20.5139 12.2775L20.1643 12.5916C18.742 13.8743 15.7878 16.024 11.9497 16.024Z" fill="white"/>
</svg>
