<svg width="46" height="46" viewBox="0 0 46 46" fill="none" xmlns="http://www.w3.org/2000/svg">
<g clip-path="url(#clip0_389_181)">
<path d="M31.3525 17.5012C31.5661 17.3656 31.7962 17.258 32.0372 17.1809C32.1818 17.1318 32.3132 17.0502 32.4214 16.9423C32.5296 16.8345 32.6117 16.7034 32.6613 16.5589C32.7109 16.4145 32.7268 16.2606 32.7077 16.1091C32.6886 15.9575 32.6351 15.8124 32.5512 15.6848L30.2736 12.2252C29.8361 11.5606 29.1525 11.0971 28.3732 10.9365C27.5939 10.776 26.7828 10.9316 26.1182 11.3691L23.6125 13.0187C22.7374 11.6896 21.3703 10.7625 19.8117 10.4414C18.2531 10.1204 16.6308 10.4315 15.3017 11.3066C13.9726 12.1816 13.0455 13.5488 12.7244 15.1073C12.4033 16.6659 12.7145 18.2882 13.5896 19.6173L11.0838 21.267C10.4193 21.7045 9.95572 22.3881 9.79518 23.1673C9.63463 23.9466 9.79023 24.7578 10.2277 25.4223L12.5054 28.8819C12.5894 29.0094 12.7016 29.116 12.8332 29.1934C12.9649 29.2708 13.1125 29.3171 13.2648 29.3286C13.4171 29.3401 13.57 29.3166 13.7118 29.2598C13.8536 29.203 13.9805 29.1146 14.0828 29.0011C14.2489 28.8103 14.4387 28.6415 14.6476 28.4988C15.3122 28.0613 16.1233 27.9057 16.9026 28.0662C17.6819 28.2268 18.3655 28.6903 18.803 29.3549C19.2405 30.0194 19.3961 30.8306 19.2356 31.6099C19.075 32.3891 18.6115 33.0727 17.9469 33.5102C17.7333 33.6458 17.5032 33.7534 17.2622 33.8305C17.1176 33.8796 16.9862 33.9612 16.878 34.069C16.7698 34.1769 16.6878 34.308 16.6381 34.4525C16.5885 34.5969 16.5726 34.7508 16.5917 34.9023C16.6108 35.0539 16.6643 35.199 16.7482 35.3266L19.0258 38.7862C19.4634 39.4508 20.1469 39.9143 20.9262 40.0749C21.7055 40.2354 22.5167 40.0798 23.1812 39.6423L38.2156 29.7444C38.8801 29.3069 39.3437 28.6233 39.5042 27.8441C39.6648 27.0648 39.5092 26.2536 39.0717 25.5891L36.7941 22.1295C36.71 22.002 36.5978 21.8954 36.4662 21.818C36.3345 21.7406 36.1869 21.6943 36.0346 21.6828C35.8823 21.6713 35.7294 21.6948 35.5876 21.7516C35.4458 21.8084 35.3189 21.8968 35.2166 22.0103C35.0505 22.2011 34.8607 22.3699 34.6518 22.5126C33.9872 22.9501 33.1761 23.1057 32.3968 22.9452C31.6175 22.7846 30.9339 22.3211 30.4964 21.6565C30.0589 20.992 29.9033 20.1808 30.0638 19.4015C30.2244 18.6223 30.6879 17.9387 31.3525 17.5012Z" fill="#6A5ACD"/>
<path d="M16.8472 31.8398L15.1767 32.9395L14.0769 31.269L15.7474 30.1693C15.9689 30.0234 16.2393 29.9716 16.4991 30.0251C16.7588 30.0786 16.9867 30.2331 17.1325 30.4546C17.2784 30.6762 17.3302 30.9465 17.2767 31.2063C17.2232 31.4661 17.0687 31.6939 16.8472 31.8398ZM32.1669 20.5568C32.3127 20.7783 32.5406 20.9328 32.8003 20.9863C33.0601 21.0398 33.3305 20.988 33.552 20.8421L35.2225 19.7424L34.1227 18.0719L32.4522 19.1717C32.2307 19.3175 32.0762 19.5454 32.0227 19.8051C31.9692 20.0649 32.021 20.3353 32.1669 20.5568Z" fill="white"/>
</g>
<defs>
<clipPath id="clip0_389_181">
<rect width="32" height="32" fill="white" transform="translate(0.838135 18.4342) rotate(-33.3589)"/>
</clipPath>
</defs>
</svg>
