<svg width="18" height="18" viewBox="0 0 18 18" fill="none" xmlns="http://www.w3.org/2000/svg">
<path d="M8.99999 12.75C8.80852 12.749 8.61967 12.7055 8.44714 12.6224C8.2746 12.5394 8.12271 12.419 8.00249 12.27L4.84499 8.445C4.66049 8.21473 4.54438 7.93725 4.5099 7.6442C4.47543 7.35115 4.52397 7.05431 4.64999 6.7875C4.7522 6.55562 4.919 6.35806 5.13046 6.21842C5.34191 6.07877 5.5891 6.00295 5.84249 6H12.1575C12.4109 6.00295 12.6581 6.07877 12.8695 6.21842C13.081 6.35806 13.2478 6.55562 13.35 6.7875C13.476 7.05431 13.5246 7.35115 13.4901 7.6442C13.4556 7.93725 13.3395 8.21473 13.155 8.445L9.99749 12.27C9.87727 12.419 9.72538 12.5394 9.55285 12.6224C9.38031 12.7055 9.19146 12.749 8.99999 12.75Z" fill="white"/>
</svg>
