<svg width="399" height="361" viewBox="0 0 399 361" fill="none" xmlns="http://www.w3.org/2000/svg">
<path opacity="0.2" d="M225.666 162.218L133.282 109.96L132.853 157.846L225.237 210.104L225.666 162.218Z" fill="url(#paint0_linear_328_254)"/>
<path opacity="0.15" d="M156.817 134.868L184.596 150.601L184.553 156.345L156.774 140.612L156.817 134.868Z" fill="white"/>
<path opacity="0.15" d="M156.731 146.4L215.891 179.881L215.848 185.711L156.688 152.23L156.731 146.4Z" fill="white"/>
<path fill-rule="evenodd" clip-rule="evenodd" d="M151.887 136.625C151.844 140.569 149.486 142.456 146.571 140.784C143.656 139.155 141.341 134.611 141.384 130.667C141.427 126.723 143.785 124.836 146.7 126.508C149.615 128.137 151.93 132.681 151.887 136.625Z" fill="#F2C94C"/>
<path opacity="0.2" d="M435.726 376.738L343.385 324.48L342.957 372.365L435.34 424.623L435.726 376.738Z" fill="url(#paint1_linear_328_254)"/>
<path opacity="0.15" d="M366.921 349.387L394.7 365.12L394.657 370.865L366.878 355.131L366.921 349.387Z" fill="white"/>
<path opacity="0.15" d="M366.835 360.919L425.995 394.4L425.952 400.23L366.792 366.749L366.835 360.919Z" fill="white"/>
<path fill-rule="evenodd" clip-rule="evenodd" d="M361.991 351.145C361.948 355.089 359.59 356.975 356.675 355.303C353.76 353.674 351.445 349.13 351.488 345.186C351.531 341.242 353.889 339.356 356.804 341.027C359.719 342.657 362.034 347.201 361.991 351.145Z" fill="#F2C94C"/>
<path opacity="0.1" d="M347.995 10.1775C330.59 13.5642 291.45 17.9369 274.388 8.29126C274.517 76.5396 291.236 173.382 345.895 253.248C401.411 235.714 419.63 158.678 420.916 91.2439C403.854 81.5553 365.186 33.1556 347.995 10.1775Z" fill="url(#paint2_linear_328_254)"/>
<path opacity="0.3" d="M326.732 24.3245C309.327 27.7112 270.187 32.0839 253.125 22.4382C253.254 90.6866 269.973 187.529 324.631 267.395C380.148 249.861 398.367 172.782 399.653 105.391C382.591 95.7023 343.923 47.3026 326.732 24.3245Z" fill="url(#paint3_linear_328_254)"/>
<path opacity="0.4" d="M399.696 105.348C382.591 95.6594 343.965 47.3026 326.774 24.3245L324.674 267.352C380.147 249.861 398.367 172.782 399.696 105.348Z" fill="url(#paint4_linear_328_254)"/>
<path opacity="0.1" d="M213.919 213.276L299.959 260.647L300.002 418.707L213.962 371.379L213.919 213.276Z" fill="url(#paint5_linear_328_254)"/>
<path opacity="0.2" d="M225.065 305.66L289.927 341.37L290.099 398.044L225.237 362.334L225.065 305.66Z" fill="url(#paint6_linear_328_254)"/>
<path opacity="0.15" d="M226.223 267.935L256.231 284.44V290.27L226.223 273.765V267.935Z" fill="white"/>
<path opacity="0.15" d="M226.352 279.51L256.36 296.014V301.845L226.352 285.34V279.51Z" fill="white"/>
<path opacity="0.15" d="M226.309 290.656L283.239 321.993V327.824L226.309 296.486V290.656Z" fill="white"/>
<path opacity="0.2" d="M213.919 213.276L299.959 260.647L300.044 287.955L213.962 240.627L213.919 213.276Z" fill="url(#paint7_linear_328_254)"/>
<path opacity="0.2" d="M235.44 238.955C235.44 243.07 232.996 245.085 229.995 243.413C226.994 241.741 224.508 237.069 224.508 232.91C224.508 228.795 226.951 226.78 229.952 228.452C232.996 230.124 235.44 234.839 235.44 238.955Z" fill="white"/>
<path fill-rule="evenodd" clip-rule="evenodd" d="M265.02 305.146L264.934 281.653L323.28 313.762L323.365 337.255L265.02 305.146Z" fill="#F2C94C"/>
<path opacity="0.3" d="M198.401 205.945L70.8208 132.338L70.8637 198.829L187.169 265.963L198.443 282.639L198.401 205.945Z" fill="url(#paint8_linear_328_254)"/>
<path fill-rule="evenodd" clip-rule="evenodd" d="M57.231 158.232V140.184L105.373 167.963V186.011L57.231 158.232Z" fill="#F2994A"/>
<path opacity="0.15" d="M165.605 203.202L137.654 187.083V192.913L165.605 209.032V203.202Z" fill="white"/>
<path opacity="0.15" d="M165.605 214.905L111.718 183.825V189.655L165.605 220.735V214.905Z" fill="white"/>
<path opacity="0.15" d="M165.605 226.566L100.315 188.883V194.714L165.605 232.396V226.566Z" fill="white"/>
<path fill-rule="evenodd" clip-rule="evenodd" d="M172.464 213.276C172.464 218.763 175.722 225.065 179.709 227.38C183.696 229.695 186.954 227.123 186.954 221.636C186.954 216.148 183.696 209.847 179.709 207.532C175.722 205.217 172.464 207.789 172.464 213.276Z" fill="#F2994A"/>
<path opacity="0.2" d="M157.332 274.451C159.904 275.909 161.962 279.51 161.962 282.468V295.543L170.621 300.516C173.193 301.973 175.251 305.574 175.251 308.532C175.251 311.49 173.193 312.691 170.621 311.233L161.962 306.26V319.336C161.962 322.294 159.904 323.494 157.332 322.036C154.759 320.579 152.702 316.978 152.702 314.02V300.944L144.042 295.929C141.47 294.471 139.412 290.87 139.412 287.912C139.412 284.954 141.47 283.754 144.042 285.211L152.702 290.184V277.109C152.702 274.194 154.759 272.994 157.332 274.451Z" fill="url(#paint9_linear_328_254)"/>
<defs>
<linearGradient id="paint0_linear_328_254" x1="5659.75" y1="3293.72" x2="3666.75" y2="6815.78" gradientUnits="userSpaceOnUse">
<stop stop-color="white"/>
<stop offset="1" stop-color="white" stop-opacity="0"/>
</linearGradient>
<linearGradient id="paint1_linear_328_254" x1="5868.04" y1="3509.64" x2="3876.19" y2="7029.64" gradientUnits="userSpaceOnUse">
<stop stop-color="white"/>
<stop offset="1" stop-color="white" stop-opacity="0"/>
</linearGradient>
<linearGradient id="paint2_linear_328_254" x1="3597.94" y1="2401.52" x2="11281.6" y2="9278.62" gradientUnits="userSpaceOnUse">
<stop stop-color="white"/>
<stop offset="1" stop-color="white" stop-opacity="0"/>
</linearGradient>
<linearGradient id="paint3_linear_328_254" x1="3576.53" y1="2415.42" x2="11260.3" y2="9292.17" gradientUnits="userSpaceOnUse">
<stop stop-color="white"/>
<stop offset="1" stop-color="white" stop-opacity="0"/>
</linearGradient>
<linearGradient id="paint4_linear_328_254" x1="4492.21" y1="10641.5" x2="3273.11" y2="10874.8" gradientUnits="userSpaceOnUse">
<stop stop-color="white"/>
<stop offset="1" stop-color="white" stop-opacity="0"/>
</linearGradient>
<linearGradient id="paint5_linear_328_254" x1="3771.26" y1="6359.98" x2="8963.12" y2="11398.4" gradientUnits="userSpaceOnUse">
<stop stop-color="white"/>
<stop offset="1" stop-color="white" stop-opacity="0"/>
</linearGradient>
<linearGradient id="paint6_linear_328_254" x1="2432.29" y1="430.379" x2="5945.52" y2="7922.14" gradientUnits="userSpaceOnUse">
<stop stop-color="white"/>
<stop offset="1" stop-color="white" stop-opacity="0"/>
</linearGradient>
<linearGradient id="paint7_linear_328_254" x1="3132.01" y1="1134.07" x2="5236.61" y2="6818.66" gradientUnits="userSpaceOnUse">
<stop stop-color="white"/>
<stop offset="1" stop-color="white" stop-opacity="0"/>
</linearGradient>
<linearGradient id="paint8_linear_328_254" x1="9043.84" y1="4832.69" x2="3596.17" y2="9098.05" gradientUnits="userSpaceOnUse">
<stop stop-color="white"/>
<stop offset="1" stop-color="white" stop-opacity="0"/>
</linearGradient>
<linearGradient id="paint9_linear_328_254" x1="2413.68" y1="2008.3" x2="807.032" y2="3276.25" gradientUnits="userSpaceOnUse">
<stop stop-color="white"/>
<stop offset="1" stop-color="white" stop-opacity="0"/>
</linearGradient>
</defs>
</svg>
