<svg width="24" height="24" viewBox="0 0 24 24" fill="none" xmlns="http://www.w3.org/2000/svg">
<path d="M20.3318 3.66938C19.2435 2.57654 17.9426 1.71866 16.5094 1.14884C15.0763 0.579021 13.5414 0.30938 11.9999 0.356604C10.4967 0.329672 9.00294 0.599227 7.60399 1.14986C6.20504 1.7005 4.92831 2.52142 3.84678 3.56571C2.76524 4.61 1.9001 5.85719 1.3008 7.23599C0.701498 8.61479 0.379783 10.0982 0.354043 11.6014C0.354043 11.7358 0.354043 11.8713 0.354043 12.0058C0.151855 18.3258 5.17323 23.5994 11.4977 23.7471H11.9999C18.3244 23.8982 23.5924 18.8779 23.6957 12.5534V11.9513C23.7401 10.413 23.464 8.88231 22.8849 7.4565C22.3058 6.03069 21.4363 4.74098 20.3318 3.66938Z" fill="#F9A024"/>
<path d="M11.9998 23.9982C8.888 24.0525 5.88082 22.8749 3.63348 20.7218C1.38614 18.5687 0.0807792 15.6147 0.00182004 12.5035V12.0013C-0.0528207 8.88944 1.12474 5.88209 3.27788 3.63469C5.43102 1.38728 8.38518 0.0820123 11.4966 0.00334164H11.9987C13.5379 -0.0334186 15.0693 0.233419 16.5053 0.788617C17.9414 1.34381 19.254 2.17649 20.3681 3.23909C21.4823 4.30168 22.3762 5.57336 22.9988 6.9815C23.6214 8.38965 23.9605 9.90665 23.9967 11.4459V12.0013C24.0379 13.5417 23.7741 15.0749 23.2205 16.5129C22.6669 17.9509 21.8344 19.2653 20.771 20.3803C19.7075 21.4954 18.4341 22.3892 17.0239 23.0103C15.6138 23.6314 14.0947 23.9675 12.5542 23.9993L11.9998 23.9982ZM11.9998 0.607685C9.05266 0.539912 6.19875 1.64278 4.06305 3.67479C1.92735 5.7068 0.683923 8.50233 0.605052 11.4492V12.0047C0.505069 18.1792 5.32315 23.2994 11.5477 23.3994H11.9998C13.4624 23.4456 14.9195 23.2007 16.2867 22.679C17.6538 22.1573 18.9037 21.3692 19.9637 20.3604C21.0238 19.3517 21.8728 18.1423 22.4616 16.8027C23.0503 15.4631 23.3671 14.0198 23.3934 12.5568V12.0013C23.5445 5.87791 18.6254 0.757658 12.5064 0.657674L11.9998 0.607685Z" fill="#ED017F"/>
<path d="M5.9763 8.03645C6.38781 7.66435 6.92702 7.46538 7.4816 7.48098C8.10195 7.47099 8.71756 7.59055 9.28907 7.83204C9.9099 8.08021 10.4994 8.40051 11.0454 8.78632L11.2965 8.58524C10.9455 7.88203 10.3933 7.3299 9.74122 6.87886C9.03668 6.48092 8.24076 6.27304 7.43161 6.27563C7.0022 6.28657 6.5779 6.37151 6.17737 6.5267C5.77105 6.68805 5.42268 6.96791 5.17754 7.3299C4.92647 7.63096 4.77539 8.03311 4.62208 8.38417C4.51406 8.75876 4.4801 9.15082 4.5221 9.53841H4.87315C5.13612 8.96867 5.51132 8.45783 5.9763 8.03645ZM13.5561 6.93552C14.0572 6.58447 14.6604 6.38006 15.2625 6.18231C15.7647 6.03234 16.3668 6.13232 16.8689 6.43338C17.4058 6.76821 17.8812 7.19284 18.2742 7.68873L18.5753 7.58763C18.5253 7.23658 18.4242 6.78443 18.1731 6.48337C17.9913 6.10222 17.7147 5.77406 17.3699 5.5302C17.0689 5.22914 16.6178 5.07805 16.2157 4.97474C15.7864 4.87365 15.3396 4.87365 14.9103 4.97474C14.1466 5.16038 13.4462 5.54656 12.8816 6.0934C12.317 6.64023 11.9086 7.32788 11.6987 8.08533L11.9997 8.23641L13.505 6.88109M18.9263 14.8131C18.6905 15.4031 18.352 15.9466 17.9265 16.4184C17.7265 16.6194 17.5255 16.8705 17.2244 17.0716L16.4712 17.6271C15.3612 18.2203 14.1544 18.6111 12.9074 18.7813C11.6565 18.9735 10.3813 18.9397 9.14243 18.6813C8.53432 18.5302 7.94515 18.3111 7.38606 18.0281C6.78394 17.777 6.2818 17.376 5.72967 16.9738L5.57859 17.1249C6.3825 18.2866 7.54678 19.151 8.89136 19.5845C10.242 20.0763 11.6996 20.1975 13.1129 19.9356C14.5268 19.7503 15.8722 19.2158 17.0278 18.3803C18.1798 17.5001 18.9382 16.2012 19.1385 14.7653H18.9263V14.8131ZM11.7986 11.0459L12.2508 15.2119L12.5019 15.1619L11.9997 11.0459H11.7986Z" fill="#ED017F"/>
</svg>
