<svg width="36" height="36" viewBox="0 0 36 36" fill="none" xmlns="http://www.w3.org/2000/svg">
<g clip-path="url(#clip0_383_99)">
<path d="M30.6773 11.1635V17.9803C30.6773 20.9714 29.8828 23.8071 28.4604 26.3475C27.8283 27.4739 27.0846 28.5339 26.2406 29.5116C25.2284 30.6847 24.0929 31.7455 22.8537 32.6757C21.5894 33.6269 20.2345 34.4511 18.8086 35.1366C17.1168 34.3251 15.5266 33.3169 14.0709 32.1328C11.1178 29.7204 8.91563 26.6682 7.78711 23.2453C7.22713 21.5465 6.94229 19.7691 6.94336 17.9803V11.1635C9.59435 10.7343 12.1443 9.82304 14.4668 8.4748C16.0482 7.55301 17.507 6.43535 18.8086 5.14832C20.3205 6.721 22.0777 8.03775 24.0117 9.04714C26.094 10.1339 28.3495 10.85 30.6773 11.1635Z" fill="#6A5ACD"/>
<path d="M28.6095 12.8882V17.9803C28.6095 21.093 27.6076 24.1565 25.712 26.8396C25.0285 27.8027 24.2536 28.6975 23.398 29.5115C22.6986 30.1802 21.9521 30.7977 21.1641 31.3593C20.4109 31.8977 19.6241 32.3876 18.8087 32.826C15.9786 31.3017 13.6055 29.2471 11.9054 26.8403C10.007 24.1572 9.00781 21.0937 9.00781 17.981V12.8481C11.291 12.3076 13.4819 11.4328 15.5096 10.2522C16.6609 9.58136 17.7539 8.81508 18.777 7.96143C20.083 9.09404 21.5168 10.0703 23.0492 10.8703C24.8044 11.7879 26.6744 12.4666 28.6095 12.8882Z" fill="#6A5ACD"/>
<path d="M23.0491 10.8703C21.5166 10.0703 20.0828 9.09404 18.7769 7.96143C18.5997 8.10908 18.4197 8.25322 18.2383 8.39596C19.4035 9.34553 20.6619 10.1745 21.9944 10.8703C23.7495 11.7879 25.6195 12.4666 27.5547 12.8882V17.9796C27.5547 21.093 26.5527 24.1565 24.6571 26.8389C23.0624 29.0953 20.8827 31.0415 18.2812 32.5321C18.4548 32.6313 18.6327 32.7297 18.8085 32.8253C21.6386 31.301 24.0116 29.2464 25.7118 26.8396C27.6102 24.1565 28.6094 21.093 28.6094 17.9803V12.8882C26.6742 12.4666 24.8042 11.7879 23.0491 10.8703Z" fill="#6A5ACD"/>
<path d="M18.8086 25.9946C17.4563 25.9917 16.1468 25.5201 15.1032 24.6601C14.0595 23.8002 13.3463 22.605 13.0849 21.2782C12.8235 19.9514 13.0301 18.575 13.6696 17.3834C14.3091 16.1919 15.3419 15.2589 16.592 14.7433C17.8422 14.2277 19.2324 14.1614 20.5259 14.5557C21.8195 14.9501 22.9363 15.7806 23.6862 16.9059C24.4362 18.0313 24.7728 19.3817 24.6388 20.7274C24.5048 22.0731 23.9085 23.3307 22.9514 24.286C22.4076 24.8299 21.7617 25.2609 21.0507 25.5541C20.3397 25.8473 19.5777 25.997 18.8086 25.9946Z" fill="white"/>
<path d="M22.9514 16.0362C22.4075 15.4926 21.7614 15.0618 21.0505 14.7688C20.3395 14.4757 19.5776 14.326 18.8086 14.3283C18.5144 14.3282 18.2207 14.3498 17.9297 14.393C19.3122 14.5989 20.5748 15.2946 21.4875 16.3532C22.4002 17.4119 22.9023 18.7632 22.9023 20.161C22.9023 21.5588 22.4002 22.9101 21.4875 23.9688C20.5748 25.0275 19.3122 25.7232 17.9297 25.9291C18.2206 25.9725 18.5144 25.9944 18.8086 25.9945C19.965 26.0006 21.0971 25.6626 22.0608 25.0234C23.0245 24.3842 23.7763 23.4727 24.2205 22.405C24.6647 21.3373 24.7812 20.1616 24.5552 19.0275C24.3292 17.8933 23.7709 16.8521 22.9514 16.0362Z" fill="#FED030"/>
<path d="M31.3594 26.3489H22.2188C22.065 26.3488 21.913 26.3151 21.7736 26.2502C21.6341 26.1852 21.5106 26.0905 21.4116 25.9727C21.2569 25.7892 22.2188 25.5508 22.2188 25.2942V24.2395C22.2188 23.6573 21.6366 23.1848 22.2188 23.1848H31.3594C31.6392 23.1848 31.9074 23.2959 32.1052 23.4937C32.303 23.6915 32.4141 23.9598 32.4141 24.2395V25.2942C32.4141 25.5739 32.303 25.8422 32.1052 26.04C31.9074 26.2378 31.6392 26.3489 31.3594 26.3489Z" fill="#6A5ACD"/>
<path d="M24.4308 23.1848C23.7568 24.4196 22.6961 25.3991 21.4116 25.9727C21.2512 25.783 21.1635 25.5425 21.1641 25.2942V24.9236C21.9751 24.5235 22.6723 23.9255 23.1912 23.1848H24.4308Z" fill="white"/>
<path d="M23.1912 23.1848C22.6723 23.9255 21.9751 24.5235 21.1641 24.9236V24.2395C21.1641 23.9598 21.2752 23.6915 21.473 23.4937C21.6708 23.2959 21.939 23.1848 22.2187 23.1848H23.1912Z" fill="white"/>
<path d="M32.4141 24.2395V25.2942C32.4141 25.5739 32.303 25.8422 32.1052 26.04C31.9074 26.2378 31.6392 26.3489 31.3594 26.3489H22.2188C22.065 26.3488 21.913 26.3151 21.7736 26.2502C21.6341 26.1852 21.5106 26.0905 21.4116 25.9727C22.6961 25.3991 23.7569 24.4196 24.4308 23.1848H31.3594C31.6392 23.1848 31.9074 23.2959 32.1052 23.4937C32.303 23.6915 32.4141 23.9598 32.4141 24.2395Z" fill="#6A5ACD"/>
<path d="M6.11723 31.6885C6.04798 31.6885 5.97941 31.6749 5.91545 31.6483C5.8515 31.6218 5.79342 31.5828 5.74457 31.5338L4.13371 29.9208C4.08337 29.8721 4.04322 29.8139 4.01561 29.7496C3.98801 29.6852 3.97349 29.616 3.97292 29.546C3.97234 29.476 3.98572 29.4065 4.01226 29.3417C4.03881 29.2769 4.07799 29.2181 4.12753 29.1686C4.17707 29.1191 4.23597 29.08 4.30079 29.0535C4.36561 29.027 4.43505 29.0137 4.50507 29.0143C4.57509 29.015 4.64428 29.0296 4.70861 29.0572C4.77293 29.0849 4.8311 29.1251 4.87973 29.1755L6.11723 30.4151L8.97192 27.5625C9.07133 27.4664 9.20451 27.4132 9.34278 27.4143C9.48105 27.4155 9.61334 27.4709 9.71116 27.5686C9.80898 27.6663 9.8645 27.7986 9.86577 27.9368C9.86704 28.0751 9.81395 28.2083 9.71793 28.3078L6.49199 31.5338C6.44289 31.5831 6.38447 31.6222 6.32014 31.6487C6.2558 31.6753 6.18683 31.6888 6.11723 31.6885Z" fill="white"/>
<path d="M34.1719 31.9739H25.0312C24.4488 31.9739 23.9766 32.4461 23.9766 33.0286V34.0833C23.9766 34.6657 24.4488 35.1379 25.0312 35.1379H34.1719C34.7544 35.1379 35.2266 34.6657 35.2266 34.0833V33.0286C35.2266 32.4461 34.7544 31.9739 34.1719 31.9739Z" fill="#FED030"/>
<path d="M34.172 31.9739H33.7592C33.7994 32.0868 33.8201 32.2056 33.8204 32.3254V33.3801C33.8204 33.6598 33.7093 33.9281 33.5115 34.1259C33.3137 34.3237 33.0455 34.4348 32.7657 34.4348H24.0378C24.1105 34.6403 24.245 34.8182 24.4229 34.9442C24.6008 35.0701 24.8134 35.1378 25.0314 35.1379H34.172C34.4517 35.1379 34.72 35.0268 34.9178 34.829C35.1155 34.6312 35.2267 34.363 35.2267 34.0833V33.0286C35.2267 32.7488 35.1155 32.4806 34.9178 32.2828C34.72 32.085 34.4517 31.9739 34.172 31.9739Z" fill="white"/>
<path d="M28.1089 26.3489C27.4768 27.4752 26.7331 28.5352 25.8892 29.5129H23.9767C23.6969 29.5129 23.4287 29.4018 23.2309 29.204C23.0331 29.0062 22.922 28.738 22.922 28.4583V27.4036C22.922 27.1238 23.0331 26.8556 23.2309 26.6578C23.4287 26.46 23.6969 26.3489 23.9767 26.3489H28.1089ZM26.2407 29.5129C25.2285 30.686 24.0929 31.7468 22.8538 32.677H22.2209C21.9412 32.677 21.673 32.5659 21.4752 32.3681C21.2774 32.1703 21.1663 31.902 21.1663 31.6223V30.5676C21.1663 30.2879 21.2774 30.0196 21.4752 29.8219C21.673 29.6241 21.9412 29.5129 22.2209 29.5129H26.2407Z" fill="#6A5ACD"/>
<path d="M26.2407 29.5129C25.2285 30.686 24.0929 31.7468 22.8538 32.677H22.2209C21.9412 32.677 21.673 32.5659 21.4752 32.3681C21.2774 32.1703 21.1663 31.902 21.1663 31.6223V31.3593C21.9541 30.7984 22.7006 30.1816 23.4001 29.5136L26.2407 29.5129Z" fill="#6A5ACD"/>
<path d="M32.0625 28.8098H22.9219C22.3394 28.8098 21.8672 29.282 21.8672 29.8645V30.9192C21.8672 31.5017 22.3394 31.9739 22.9219 31.9739H32.0625C32.645 31.9739 33.1172 31.5017 33.1172 30.9192V29.8645C33.1172 29.282 32.645 28.8098 32.0625 28.8098Z" fill="#FED030"/>
<path d="M32.0626 28.8098H31.6499C31.69 28.9227 31.7107 29.0416 31.711 29.1614V30.2161C31.711 30.4958 31.5999 30.764 31.4021 30.9618C31.2043 31.1596 30.9361 31.2708 30.6564 31.2708H21.9285C22.0011 31.4762 22.1357 31.6542 22.3136 31.7801C22.4915 31.906 22.704 31.9737 22.922 31.9739H32.0626C32.3423 31.9739 32.6106 31.8628 32.8084 31.665C33.0062 31.4672 33.1173 31.1989 33.1173 30.9192V29.8645C33.1173 29.5848 33.0062 29.3165 32.8084 29.1187C32.6106 28.9209 32.3423 28.8098 32.0626 28.8098Z" fill="white"/>
<path d="M32.0625 22.4817H22.9219C22.3394 22.4817 21.8672 22.9539 21.8672 23.5364V24.5911C21.8672 25.1736 22.3394 25.6458 22.9219 25.6458H32.0625C32.645 25.6458 33.1172 25.1736 33.1172 24.5911V23.5364C33.1172 22.9539 32.645 22.4817 32.0625 22.4817Z" fill="#FED030"/>
<path d="M32.0626 22.4817H31.6499C31.69 22.5946 31.7107 22.7134 31.711 22.8333V23.8879C31.711 24.1677 31.5999 24.4359 31.4021 24.6337C31.2043 24.8315 30.9361 24.9426 30.6564 24.9426H21.9285C22.0011 25.1481 22.1357 25.3261 22.3136 25.452C22.4915 25.5779 22.704 25.6456 22.922 25.6458H32.0626C32.3423 25.6458 32.6106 25.5346 32.8084 25.3368C33.0062 25.139 33.1173 24.8708 33.1173 24.5911V23.5364C33.1173 23.2567 33.0062 22.9884 32.8084 22.7906C32.6106 22.5928 32.3423 22.4817 32.0626 22.4817Z" fill="white"/>
<path d="M34.1719 25.6458H25.0312C24.4488 25.6458 23.9766 26.118 23.9766 26.7004V27.7551C23.9766 28.3376 24.4488 28.8098 25.0312 28.8098H34.1719C34.7544 28.8098 35.2266 28.3376 35.2266 27.7551V26.7004C35.2266 26.118 34.7544 25.6458 34.1719 25.6458Z" fill="#FED030"/>
<path d="M34.172 25.6458H33.7592C33.7994 25.7586 33.8201 25.8775 33.8204 25.9973V27.052C33.8204 27.3317 33.7093 27.6 33.5115 27.7978C33.3137 27.9956 33.0455 28.1067 32.7657 28.1067H24.0378C24.1105 28.3122 24.245 28.4901 24.4229 28.616C24.6008 28.7419 24.8134 28.8096 25.0314 28.8098H34.172C34.4517 28.8098 34.72 28.6987 34.9178 28.5009C35.1155 28.3031 35.2267 28.0348 35.2267 27.7551V26.7004C35.2267 26.4207 35.1155 26.1525 34.9178 25.9547C34.72 25.7569 34.4517 25.6458 34.172 25.6458Z" fill="white"/>
<path d="M7.58322 23.4358C7.72588 23.3444 7.88605 23.2838 8.05348 23.2578C8.22091 23.2318 8.39192 23.2411 8.55557 23.2849C8.71923 23.3288 8.87193 23.4064 9.00391 23.5126C9.13589 23.6189 9.24424 23.7515 9.32205 23.902C9.42898 24.109 9.5931 24.2809 9.7949 24.3973C9.9967 24.5138 10.2277 24.5698 10.4604 24.5587C10.6296 24.551 10.7986 24.5787 10.9566 24.64C11.1145 24.7012 11.2579 24.7948 11.3777 24.9146C11.4975 25.0344 11.5909 25.1779 11.6521 25.3359C11.7133 25.4939 11.7409 25.6629 11.7331 25.8321C11.7223 26.0648 11.7786 26.2958 11.8951 26.4975C12.0116 26.6993 12.1835 26.8634 12.3905 26.9704C12.541 27.0482 12.6737 27.1566 12.7799 27.2886C12.8861 27.4206 12.9636 27.5733 13.0075 27.737C13.0513 27.9007 13.0604 28.0717 13.0343 28.2391C13.0083 28.4066 12.9475 28.5667 12.856 28.7093C12.7303 28.9054 12.6635 29.1334 12.6635 29.3663C12.6635 29.5993 12.7303 29.8273 12.856 30.0234C12.9475 30.166 13.0083 30.3261 13.0343 30.4936C13.0604 30.661 13.0513 30.832 13.0075 30.9957C12.9636 31.1594 12.8861 31.3121 12.7799 31.4441C12.6737 31.5761 12.541 31.6845 12.3905 31.7622C12.1835 31.8693 12.0116 32.0334 11.8951 32.2352C11.7786 32.4369 11.7223 32.6679 11.7331 32.9006C11.741 33.0698 11.7135 33.2388 11.6523 33.3968C11.5912 33.5548 11.4977 33.6983 11.3779 33.8181C11.2581 33.9379 11.1146 34.0314 10.9566 34.0925C10.7987 34.1537 10.6296 34.1812 10.4604 34.1733C10.2276 34.1625 9.99668 34.2187 9.7949 34.3352C9.59313 34.4517 9.42902 34.6237 9.32205 34.8307C9.24424 34.9812 9.13589 35.1138 9.00391 35.2201C8.87193 35.3263 8.71923 35.4039 8.55557 35.4477C8.39192 35.4916 8.22091 35.5009 8.05348 35.4749C7.88605 35.4489 7.72588 35.3883 7.58322 35.2969C7.38697 35.1712 7.15882 35.1044 6.9258 35.1044C6.69277 35.1044 6.46462 35.1712 6.26837 35.2969C6.12571 35.3883 5.96555 35.4489 5.79812 35.4749C5.63068 35.5009 5.45967 35.4916 5.29602 35.4477C5.13236 35.4039 4.97967 35.3263 4.84769 35.2201C4.71571 35.1138 4.60735 34.9812 4.52955 34.8307C4.42277 34.6234 4.25875 34.4512 4.05696 34.3344C3.85517 34.2176 3.62409 34.1612 3.39119 34.1719C3.22196 34.1798 3.05294 34.1523 2.89495 34.0911C2.73696 34.03 2.59348 33.9365 2.47369 33.8167C2.35389 33.6969 2.26043 33.5534 2.19927 33.3954C2.13811 33.2374 2.11062 33.0684 2.11853 32.8992C2.12925 32.6665 2.07302 32.4355 1.9565 32.2338C1.83998 32.032 1.66806 31.8679 1.46111 31.7608C1.31078 31.683 1.17832 31.5747 1.07221 31.4428C0.966107 31.311 0.888676 31.1584 0.844871 30.9949C0.801066 30.8314 0.79185 30.6605 0.81781 30.4932C0.843771 30.326 0.904338 30.166 0.995642 30.0234C1.12132 29.8273 1.18811 29.5993 1.18811 29.3663C1.18811 29.1334 1.12132 28.9054 0.995642 28.7093C0.904099 28.5667 0.843338 28.4066 0.817249 28.2391C0.791159 28.0717 0.800315 27.9007 0.844131 27.737C0.887946 27.5733 0.965457 27.4206 1.0717 27.2886C1.17794 27.1566 1.31058 27.0482 1.46111 26.9704C1.66806 26.8634 1.83998 26.6993 1.9565 26.4975C2.07302 26.2958 2.12925 26.0648 2.11853 25.8321C2.11073 25.6629 2.13831 25.4939 2.19949 25.3359C2.26068 25.1779 2.35414 25.0344 2.4739 24.9146C2.59366 24.7948 2.73709 24.7012 2.89503 24.64C3.05297 24.5787 3.22195 24.551 3.39119 24.5587C3.6239 24.5698 3.85489 24.5138 4.05669 24.3973C4.25849 24.2809 4.42261 24.109 4.52955 23.902C4.60735 23.7515 4.71571 23.6189 4.84769 23.5126C4.97967 23.4064 5.13236 23.3288 5.29602 23.2849C5.45967 23.2411 5.63068 23.2318 5.79812 23.2578C5.96555 23.2838 6.12571 23.3444 6.26837 23.4358C6.46462 23.5615 6.69277 23.6283 6.9258 23.6283C7.15882 23.6283 7.38697 23.5615 7.58322 23.4358Z" fill="#6A5ACD"/>
<path d="M12.8559 30.0234C12.7303 29.8273 12.6635 29.5993 12.6635 29.3663C12.6635 29.1334 12.7303 28.9054 12.8559 28.7093C12.9475 28.5667 13.0082 28.4066 13.0343 28.2391C13.0604 28.0717 13.0513 27.9007 13.0074 27.737C12.9636 27.5733 12.8861 27.4206 12.7799 27.2886C12.6736 27.1566 12.541 27.0482 12.3905 26.9704C12.1835 26.8634 12.0116 26.6993 11.8951 26.4975C11.7786 26.2958 11.7223 26.0648 11.733 25.8321C11.7409 25.6628 11.7134 25.4938 11.6523 25.3358C11.5911 25.1777 11.4977 25.0342 11.3779 24.9144C11.2581 24.7945 11.1147 24.701 10.9567 24.6397C10.7987 24.5785 10.6296 24.5509 10.4604 24.5587C10.2277 24.5698 9.99668 24.5138 9.79488 24.3973C9.59308 24.2809 9.42896 24.109 9.32202 23.902C9.24422 23.7515 9.13586 23.6189 9.00388 23.5126C8.8719 23.4064 8.71921 23.3288 8.55555 23.2849C8.39189 23.2411 8.22088 23.2318 8.05345 23.2578C7.88602 23.2838 7.72586 23.3444 7.58319 23.4358C7.49706 23.4911 7.40419 23.535 7.30687 23.5666C7.41181 23.6623 7.49895 23.7759 7.56421 23.902C7.67114 24.109 7.83527 24.2809 8.03707 24.3973C8.23887 24.5138 8.46986 24.5698 8.70257 24.5587C8.87183 24.5509 9.04086 24.5785 9.19886 24.6397C9.35685 24.701 9.50032 24.7945 9.6201 24.9144C9.73988 25.0342 9.83334 25.1777 9.89449 25.3358C9.95564 25.4938 9.98313 25.6628 9.97523 25.8321C9.96451 26.0648 10.0207 26.2958 10.1373 26.4975C10.2538 26.6993 10.4257 26.8634 10.6326 26.9704C10.7832 27.0482 10.9158 27.1566 11.0221 27.2886C11.1283 27.4206 11.2058 27.5733 11.2496 27.737C11.2934 27.9007 11.3026 28.0717 11.2765 28.2391C11.2504 28.4066 11.1897 28.5667 11.0981 28.7093C10.9724 28.9054 10.9056 29.1334 10.9056 29.3663C10.9056 29.5993 10.9724 29.8273 11.0981 30.0234C11.1897 30.166 11.2504 30.3261 11.2765 30.4936C11.3026 30.661 11.2934 30.832 11.2496 30.9957C11.2058 31.1594 11.1283 31.3121 11.0221 31.4441C10.9158 31.5761 10.7832 31.6845 10.6326 31.7622C10.4257 31.8693 10.2538 32.0334 10.1373 32.2352C10.0207 32.4369 9.96451 32.6679 9.97523 32.9006C9.98314 33.0698 9.95564 33.2388 9.89449 33.3968C9.83333 33.5548 9.73987 33.6983 9.62007 33.8181C9.50028 33.9379 9.3568 34.0314 9.1988 34.0925C9.04081 34.1537 8.8718 34.1812 8.70257 34.1733C8.46981 34.1625 8.23884 34.2187 8.03707 34.3352C7.83529 34.4517 7.67118 34.6237 7.56421 34.8307C7.49877 34.9567 7.41166 35.0702 7.30687 35.1661C7.40419 35.1977 7.49706 35.2416 7.58319 35.2969C7.72586 35.3883 7.88602 35.4489 8.05345 35.4749C8.22088 35.5009 8.39189 35.4916 8.55555 35.4477C8.71921 35.4039 8.8719 35.3263 9.00388 35.2201C9.13586 35.1138 9.24422 34.9812 9.32202 34.8307C9.4288 34.6234 9.59282 34.4512 9.79461 34.3344C9.9964 34.2176 10.2275 34.1612 10.4604 34.1719C10.6296 34.1798 10.7986 34.1523 10.9566 34.0911C11.1146 34.03 11.2581 33.9365 11.3779 33.8167C11.4977 33.6969 11.5911 33.5534 11.6523 33.3954C11.7135 33.2374 11.741 33.0684 11.733 32.8992C11.7223 32.6665 11.7786 32.4355 11.8951 32.2338C12.0116 32.032 12.1835 31.8679 12.3905 31.7608C12.5408 31.683 12.6732 31.5747 12.7794 31.4428C12.8855 31.311 12.9629 31.1584 13.0067 30.9949C13.0505 30.8314 13.0597 30.6605 13.0338 30.4932C13.0078 30.326 12.9472 30.166 12.8559 30.0234ZM5.82538 23.4358C5.89527 23.3912 5.96947 23.3538 6.04687 23.324C5.83509 23.2431 5.60492 23.2229 5.3823 23.2658C5.15968 23.3087 4.95345 23.4128 4.78687 23.5666C4.95879 23.6235 5.14124 23.6413 5.32091 23.6186C5.50058 23.596 5.67293 23.5336 5.82538 23.4358ZM5.82538 35.2969C5.67293 35.1991 5.50058 35.1367 5.32091 35.114C5.14124 35.0914 4.95879 35.1092 4.78687 35.1661C4.95362 35.3196 5.15984 35.4236 5.3824 35.4664C5.60495 35.5093 5.83504 35.4893 6.04687 35.4087C5.96947 35.3789 5.89527 35.3415 5.82538 35.2969Z" fill="#525CDD"/>
<path d="M21.5155 16.9692C21.5155 16.8293 21.46 16.6952 21.3611 16.5963C21.2622 16.4974 21.128 16.4419 20.9882 16.4419H16.5936C16.4538 16.4419 16.3196 16.4974 16.2208 16.5963C16.1219 16.6952 16.0663 16.8293 16.0663 16.9692C16.0663 17.1091 16.1219 17.2432 16.2208 17.3421C16.3196 17.441 16.4538 17.4965 16.5936 17.4965H18.13C18.3882 17.4969 18.6409 17.5722 18.8573 17.7132C19.0736 17.8542 19.2445 18.055 19.3492 18.2911H16.5936C16.4538 18.2911 16.3196 18.3466 16.2208 18.4455C16.1219 18.5444 16.0663 18.6786 16.0663 18.8184C16.0663 18.9583 16.1219 19.0924 16.2208 19.1913C16.3196 19.2902 16.4538 19.3458 16.5936 19.3458H19.3492C19.2445 19.5819 19.0736 19.7826 18.8573 19.9236C18.6409 20.0646 18.3882 20.1399 18.13 20.1403H16.5936H16.5592H16.5416C16.5305 20.1412 16.5195 20.1429 16.5086 20.1452H16.4896L16.4593 20.1529L16.4397 20.1586C16.4289 20.1617 16.4183 20.1654 16.408 20.1698L16.3918 20.1762C16.3808 20.1807 16.37 20.1859 16.3595 20.1916L16.3461 20.1979L16.3187 20.2148L16.3018 20.2254C16.2947 20.2301 16.2879 20.2352 16.2815 20.2408L16.2604 20.2563L16.2449 20.2711C16.2367 20.2778 16.2289 20.2851 16.2217 20.2929H16.2182L16.2076 20.3048L16.1865 20.3287L16.1732 20.3477C16.1674 20.3549 16.162 20.3624 16.157 20.3702C16.1521 20.3772 16.1479 20.385 16.1436 20.392C16.1394 20.399 16.1345 20.4068 16.131 20.4145C16.1275 20.4222 16.1232 20.43 16.1197 20.4377L16.1092 20.4616C16.1057 20.4693 16.1028 20.4773 16.1007 20.4855C16.0972 20.4935 16.0944 20.5017 16.0923 20.5101L16.086 20.5347C16.086 20.5432 16.0818 20.5516 16.0804 20.5601C16.079 20.5685 16.0804 20.5783 16.0761 20.5868C16.0719 20.5952 16.0761 20.6029 16.0761 20.6114C16.0754 20.6215 16.0754 20.6316 16.0761 20.6416C16.0758 20.6472 16.0758 20.6529 16.0761 20.6585V20.6634C16.0761 20.6634 16.0761 20.6838 16.0761 20.6944C16.0761 20.7049 16.0761 20.7091 16.0761 20.7162C16.0761 20.7232 16.0761 20.7337 16.0804 20.7429C16.0846 20.752 16.0804 20.759 16.0804 20.7675C16.0826 20.7746 16.0845 20.7819 16.086 20.7893C16.086 20.7984 16.0909 20.8083 16.0937 20.8174C16.0965 20.8265 16.0986 20.8301 16.1007 20.8371C16.1029 20.8441 16.1071 20.8561 16.1113 20.8652C16.1155 20.8744 16.1183 20.8793 16.1218 20.887C16.1254 20.8947 16.1296 20.9032 16.1338 20.9109C16.1376 20.9182 16.1418 20.9252 16.1465 20.932L16.1605 20.9552L16.1739 20.9728C16.1795 20.9812 16.1858 20.989 16.1922 20.9967L16.2055 21.0115L16.228 21.0354L19.5503 24.236C19.651 24.3331 19.7861 24.3861 19.926 24.3836C20.0658 24.381 20.1989 24.323 20.2959 24.2223C20.393 24.1216 20.4461 23.9865 20.4435 23.8466C20.441 23.7068 20.3829 23.5737 20.2822 23.4766L17.9015 21.183H18.13C18.6687 21.1842 19.192 21.0034 19.615 20.6699C20.0381 20.3364 20.3361 19.8698 20.4608 19.3458H20.9938C21.1337 19.3458 21.2678 19.2902 21.3667 19.1913C21.4656 19.0924 21.5211 18.9583 21.5211 18.8184C21.5211 18.6786 21.4656 18.5444 21.3667 18.4455C21.2678 18.3466 21.1337 18.2911 20.9938 18.2911H20.4608C20.3957 18.0073 20.2789 17.738 20.1163 17.4965H20.9938C21.1327 17.4951 21.2654 17.4388 21.3631 17.3401C21.4607 17.2414 21.5155 17.1081 21.5155 16.9692ZM35.739 28.0898V27.0351C35.7387 26.6157 35.5719 26.2135 35.2753 25.9169C34.9786 25.6203 34.5765 25.4535 34.157 25.4531H33.539C33.599 25.2838 33.6296 25.1054 33.6297 24.9258V23.8711C33.6293 23.4516 33.4625 23.0494 33.1659 22.7528C32.8693 22.4562 32.4671 22.2894 32.0476 22.289H30.6414C31.0065 20.8761 31.1915 19.4227 31.1919 17.9634V11.1466C31.1919 11.019 31.1455 10.8957 31.0615 10.7996C30.9774 10.7035 30.8614 10.6412 30.7349 10.6242C28.467 10.3201 26.2695 9.62244 24.2415 8.56263C22.358 7.58025 20.647 6.29786 19.1755 4.76576C19.127 4.71554 19.069 4.67541 19.005 4.64766C18.9409 4.6199 18.872 4.60508 18.8022 4.60404C18.7318 4.6023 18.6618 4.61487 18.5964 4.64097C18.531 4.66708 18.4716 4.70618 18.4218 4.75591C17.1512 6.01203 15.7271 7.10276 14.1833 8.00224C11.9171 9.31972 9.42787 10.2092 6.83989 10.6263C6.71637 10.6464 6.60404 10.7097 6.523 10.8051C6.44196 10.9004 6.39751 11.0215 6.39762 11.1466V17.9634C6.39774 19.6828 6.65415 21.3926 7.1584 23.0365C7.05744 23.0754 6.94875 23.0902 6.84106 23.0796C6.73336 23.0689 6.62965 23.0332 6.53825 22.9753C6.33385 22.8443 6.10437 22.7573 5.86446 22.72C5.62455 22.6827 5.3795 22.6959 5.14497 22.7587C4.91045 22.8215 4.6916 22.9325 4.50243 23.0847C4.31327 23.2369 4.15794 23.4269 4.04637 23.6426C3.98584 23.76 3.89281 23.8576 3.77837 23.9237C3.66393 23.9898 3.5329 24.0215 3.4009 24.0152C3.15832 24.0039 2.91604 24.0433 2.68958 24.131C2.46311 24.2187 2.25746 24.3527 2.08577 24.5245C1.91408 24.6962 1.78014 24.902 1.69254 25.1285C1.60493 25.3549 1.56557 25.5972 1.577 25.8398C1.583 25.9717 1.55109 26.1025 1.48505 26.2168C1.419 26.331 1.32159 26.424 1.20434 26.4846C0.988621 26.5962 0.798551 26.7515 0.646282 26.9407C0.494013 27.1299 0.382895 27.3488 0.320029 27.5834C0.257163 27.818 0.243934 28.0631 0.281186 28.3031C0.318438 28.5431 0.405352 28.7727 0.536372 28.9772C0.607612 29.0883 0.645478 29.2175 0.645478 29.3495C0.645478 29.4815 0.607612 29.6107 0.536372 29.7218C0.405255 29.9262 0.318261 30.1557 0.280958 30.3957C0.243654 30.6356 0.256864 30.8808 0.319741 31.1153C0.382618 31.3499 0.493777 31.5687 0.646102 31.7579C0.798428 31.947 0.988565 32.1022 1.20434 32.2137C1.32147 32.2746 1.41877 32.3677 1.48479 32.482C1.5508 32.5964 1.58279 32.7272 1.577 32.8591C1.56579 33.1016 1.60529 33.3438 1.69298 33.5702C1.78067 33.7966 1.91461 34.0023 2.08625 34.174C2.25789 34.3457 2.46346 34.4797 2.68983 34.5675C2.91619 34.6552 3.15837 34.6948 3.4009 34.6837C3.53288 34.6775 3.66388 34.7093 3.7783 34.7754C3.89273 34.8414 3.98578 34.939 4.04637 35.0564C4.15793 35.2721 4.31329 35.4622 4.50251 35.6145C4.69173 35.7667 4.91065 35.8778 5.14527 35.9406C5.37988 36.0034 5.62502 36.0166 5.86501 35.9792C6.10499 35.9418 6.33453 35.8548 6.53895 35.7237C6.65029 35.6527 6.77957 35.615 6.91161 35.615C7.04364 35.615 7.17293 35.6527 7.28426 35.7237C7.48856 35.8542 7.71782 35.9408 7.95742 35.9778C8.19703 36.0148 8.44172 36.0015 8.6759 35.9388C8.91008 35.876 9.12862 35.7651 9.31756 35.6132C9.50651 35.4613 9.66173 35.2716 9.77333 35.0564C9.83399 34.939 9.92705 34.8415 10.0415 34.7755C10.1559 34.7094 10.2868 34.6776 10.4188 34.6837C10.6613 34.6948 10.9035 34.6552 11.1299 34.5675C11.3562 34.4797 11.5618 34.3457 11.7334 34.174C11.9051 34.0023 12.039 33.7966 12.1267 33.5702C12.2144 33.3438 12.2539 33.1016 12.2427 32.8591C12.2371 32.7272 12.2691 32.5965 12.3351 32.4822C12.4011 32.3679 12.4983 32.2747 12.6154 32.2137C12.7629 32.1375 12.8986 32.0404 13.0182 31.9254C13.2489 32.13 13.483 32.3311 13.7214 32.5244C15.2087 33.735 16.8336 34.7658 18.5624 35.5957C18.6338 35.6304 18.7122 35.6484 18.7916 35.6484C18.871 35.6484 18.9494 35.6304 19.0208 35.5957C20.5987 34.8369 22.091 33.9117 23.4723 32.8359H23.525C23.465 33.0053 23.4344 33.1836 23.4343 33.3633V34.4179C23.4347 34.8374 23.6015 35.2396 23.8981 35.5362C24.1947 35.8328 24.5969 35.9996 25.0164 36H34.157C34.5765 35.9996 34.9786 35.8328 35.2753 35.5362C35.5719 35.2396 35.7387 34.8374 35.739 34.4179V33.3633C35.7387 32.9438 35.5719 32.5416 35.2753 32.245C34.9786 31.9484 34.5765 31.7816 34.157 31.7812H33.539C33.599 31.6119 33.6296 31.4335 33.6297 31.2539V30.1992C33.6296 30.0195 33.599 29.8412 33.539 29.6719H34.157C34.5765 29.6715 34.9786 29.5047 35.2753 29.2081C35.5719 28.9115 35.7387 28.5093 35.739 28.0898ZM32.0476 23.3437C32.1875 23.3437 32.3216 23.3993 32.4205 23.4982C32.5194 23.5971 32.575 23.7312 32.575 23.8711V24.9258C32.575 25.0656 32.5194 25.1998 32.4205 25.2987C32.3216 25.3975 32.1875 25.4531 32.0476 25.4531H22.907C22.7671 25.4531 22.633 25.3975 22.5341 25.2987C22.4352 25.1998 22.3797 25.0656 22.3797 24.9258V23.8711C22.3797 23.7312 22.4352 23.5971 22.5341 23.4982C22.633 23.3993 22.7671 23.3437 22.907 23.3437H32.0476ZM21.325 23.8711V24.8161C20.3142 25.3572 19.1566 25.5597 18.0221 25.3939C16.8877 25.2281 15.8364 24.7027 15.0229 23.895C14.2791 23.1519 13.773 22.2046 13.5685 21.1733C13.3641 20.1421 13.4707 19.0733 13.8747 18.1027C14.2787 17.1321 14.962 16.3034 15.8378 15.7218C16.7135 15.1401 17.7424 14.8318 18.7937 14.8359C19.4939 14.8337 20.1875 14.97 20.8348 15.2369C21.4821 15.5038 22.0702 15.8961 22.5653 16.3912C23.3247 17.147 23.8372 18.1151 24.0351 19.168C24.2331 20.2209 24.1072 21.3091 23.6741 22.289H22.907C22.4875 22.2894 22.0854 22.4562 21.7887 22.7528C21.4921 23.0494 21.3253 23.4516 21.325 23.8711ZM7.45301 11.5903C10.0112 11.1265 12.469 10.2207 14.7163 8.91349C16.1838 8.05831 17.5487 7.03826 18.7846 5.87318C20.2502 7.32232 21.9243 8.54404 23.7515 9.49779C25.7505 10.5422 27.9068 11.2528 30.1351 11.6015V17.9627C30.1347 19.4247 29.937 20.8799 29.5473 22.289H28.4926C28.9105 20.8851 29.1236 19.4282 29.1254 17.9634V12.8714C29.1254 12.7509 29.0842 12.6341 29.0086 12.5404C28.933 12.4466 28.8276 12.3815 28.7099 12.356C26.8211 11.9446 24.9957 11.2825 23.2825 10.3872C21.7861 9.60618 20.3861 8.65309 19.1108 7.54732C19.0161 7.46543 18.8955 7.41983 18.7703 7.41867C18.6451 7.41751 18.5236 7.46087 18.4274 7.54099C17.4271 8.376 16.3583 9.12536 15.2324 9.78115C13.2494 10.935 11.1072 11.7903 8.87473 12.3194C8.75939 12.3471 8.65671 12.4127 8.58324 12.5059C8.50977 12.599 8.46978 12.7141 8.46973 12.8327V17.9655C8.46997 19.726 8.77543 21.4731 9.37255 23.1293C9.0371 22.8357 8.60155 22.6823 8.15614 22.7011C7.68917 21.1652 7.45223 19.5687 7.45301 17.9634V11.5903ZM12.3981 30.2934C12.4498 30.3742 12.484 30.4649 12.4987 30.5597C12.5133 30.6545 12.508 30.7513 12.4832 30.844C12.4583 30.9366 12.4143 31.023 12.3542 31.0977C12.294 31.1724 12.2189 31.2338 12.1337 31.2778C11.8379 31.4313 11.5921 31.6662 11.4252 31.9546C11.2583 32.2431 11.1772 32.5733 11.1915 32.9062C11.1959 33.0022 11.1803 33.098 11.1455 33.1876C11.1108 33.2772 11.0577 33.3585 10.9898 33.4264C10.9218 33.4943 10.8404 33.5473 10.7508 33.5819C10.6612 33.6166 10.5654 33.6321 10.4694 33.6276C10.136 33.6131 9.80543 33.6941 9.51647 33.861C9.22751 34.0279 8.99219 34.2738 8.83817 34.5698C8.79398 34.6549 8.73257 34.7298 8.65783 34.7899C8.58309 34.8499 8.49667 34.8937 8.40407 34.9185C8.31147 34.9433 8.21472 34.9486 8.11998 34.9339C8.02524 34.9193 7.93459 34.8851 7.8538 34.8335C7.57261 34.6539 7.24594 34.5585 6.91231 34.5585C6.57868 34.5585 6.25202 34.6539 5.97083 34.8335C5.89 34.885 5.79935 34.9191 5.70464 34.9337C5.60992 34.9483 5.51321 34.943 5.42064 34.9182C5.32807 34.8934 5.24167 34.8496 5.16692 34.7897C5.09218 34.7297 5.03072 34.6548 4.98645 34.5698C4.8329 34.2734 4.59768 34.0271 4.30861 33.8602C4.01953 33.6932 3.68869 33.6125 3.3552 33.6276C3.25901 33.6325 3.16285 33.6173 3.07291 33.5828C2.98297 33.5483 2.90124 33.4954 2.83297 33.4275C2.76469 33.3595 2.71139 33.2781 2.67648 33.1883C2.64158 33.0985 2.62584 33.0024 2.63028 32.9062C2.64466 32.5731 2.56356 32.2427 2.39651 31.9541C2.22947 31.6655 1.98344 31.4306 1.68739 31.2771C1.60218 31.233 1.52709 31.1717 1.46692 31.097C1.40676 31.0223 1.36283 30.9359 1.33795 30.8433C1.31307 30.7506 1.30779 30.6538 1.32243 30.559C1.33708 30.4642 1.37134 30.3735 1.42301 30.2927C1.60279 30.0115 1.69832 29.6847 1.69832 29.3509C1.69832 29.0171 1.60279 28.6903 1.42301 28.409C1.37086 28.3281 1.33621 28.2372 1.32131 28.1421C1.3064 28.047 1.31156 27.9499 1.33647 27.8569C1.36137 27.7639 1.40545 27.6771 1.46589 27.6022C1.52633 27.5273 1.60178 27.4659 1.68739 27.4219C1.98351 27.268 2.22948 27.0327 2.39629 26.7437C2.56309 26.4547 2.6438 26.124 2.62887 25.7906C2.62447 25.6947 2.64012 25.5989 2.67481 25.5094C2.70951 25.4199 2.76249 25.3386 2.83038 25.2707C2.89827 25.2028 2.97957 25.1498 3.06908 25.1151C3.1586 25.0804 3.25437 25.0648 3.35028 25.0692C3.68375 25.0842 4.01456 25.0035 4.30362 24.8365C4.59268 24.6696 4.82791 24.4234 4.98153 24.127C5.02589 24.0421 5.08738 23.9673 5.16212 23.9074C5.23685 23.8475 5.32321 23.8037 5.41572 23.7789C5.50823 23.754 5.60489 23.7486 5.69959 23.7631C5.7943 23.7775 5.88498 23.8114 5.9659 23.8626C6.24703 24.0424 6.57373 24.1379 6.90739 24.1379C7.24105 24.1379 7.56774 24.0424 7.84887 23.8626C7.88883 23.8372 7.93123 23.8157 7.97544 23.7987H7.98036C8.13847 23.7399 8.3126 23.741 8.46995 23.8018C8.62731 23.8625 8.75702 23.9787 8.83465 24.1284C8.98834 24.4247 9.22358 24.6709 9.51263 24.8378C9.80167 25.0048 10.1324 25.0855 10.4659 25.0706C10.5619 25.0661 10.6577 25.0817 10.7473 25.1163C10.8369 25.151 10.9183 25.2039 10.9863 25.2718C11.0542 25.3397 11.1073 25.4211 11.142 25.5106C11.1768 25.6002 11.1924 25.696 11.188 25.792C11.1737 26.1255 11.255 26.4562 11.4225 26.7449C11.5899 27.0337 11.8365 27.2686 12.133 27.4219C12.2182 27.4659 12.2933 27.5272 12.3535 27.6019C12.4136 27.6766 12.4576 27.7631 12.4825 27.8557C12.5073 27.9483 12.5126 28.0451 12.498 28.1399C12.4833 28.2347 12.4491 28.3254 12.3974 28.4062C12.2173 28.6876 12.1216 29.0147 12.1216 29.3488C12.1216 29.6828 12.2173 30.0099 12.3974 30.2913L12.3981 30.2934ZM12.6182 26.4867C12.501 26.426 12.4036 26.3331 12.3376 26.2188C12.2715 26.1045 12.2396 25.9738 12.2455 25.8419C12.2649 25.4338 12.1403 25.0318 11.8934 24.7063C11.6465 24.3807 11.293 24.1523 10.8948 24.0609C9.99419 22.1549 9.5253 20.0736 9.52161 17.9655V13.2447C11.7093 12.6862 13.809 11.8267 15.7604 10.691C16.809 10.0801 17.8105 9.39167 18.7565 8.63154C20.0018 9.66847 21.354 10.5698 22.7903 11.3203C24.4611 12.1923 26.2336 12.8536 28.0672 13.289V17.9606C28.066 19.43 27.8364 20.8902 27.3866 22.289H24.8075C25.0536 21.6008 25.1797 20.8754 25.1802 20.1445C25.1859 18.8788 24.8157 17.6399 24.1166 16.5848C23.4174 15.5298 22.4208 14.706 21.253 14.2179C20.0852 13.7299 18.7987 13.5995 17.5567 13.8433C16.3148 14.0871 15.1731 14.6942 14.2765 15.5876C13.3799 16.4809 12.7687 17.6204 12.5203 18.8615C12.272 20.1026 12.3976 21.3894 12.8815 22.559C13.3653 23.7286 14.1854 24.7283 15.2379 25.4312C16.2905 26.1342 17.528 26.5089 18.7937 26.5078C19.7748 26.5091 20.7429 26.2843 21.6231 25.8511C21.7696 26.0546 21.9625 26.2203 22.1857 26.3345C22.409 26.4487 22.6562 26.5081 22.907 26.5078H23.525C23.465 26.6771 23.4344 26.8555 23.4343 27.0351V28.0898C23.4344 28.2695 23.465 28.4478 23.525 28.6172H22.907C22.4875 28.6175 22.0854 28.7843 21.7887 29.0809C21.4921 29.3776 21.3253 29.7797 21.325 30.1992V30.5578C20.5214 31.167 19.6755 31.7182 18.7937 32.2073C16.7638 31.0823 15.006 29.6901 13.5604 28.0708C13.5676 27.7446 13.4831 27.423 13.3164 27.1425C13.1497 26.862 12.9075 26.6341 12.6175 26.4846L12.6182 26.4867ZM18.7944 34.5361C17.2246 33.7627 15.747 32.8151 14.3893 31.7109C14.099 31.474 13.8121 31.2265 13.5336 30.9733C13.6123 30.5402 13.525 30.0934 13.289 29.7218C13.1948 29.5746 13.1604 29.3971 13.1926 29.2254C14.752 30.8492 16.5593 32.2153 18.5469 33.2726C18.6237 33.3141 18.7096 33.3359 18.7969 33.3359C18.8842 33.3359 18.9701 33.3141 19.0468 33.2726C19.8692 32.8302 20.6631 32.3371 21.4241 31.796C21.544 32.1202 21.7661 32.3966 22.0569 32.5835C21.023 33.3197 19.9318 33.972 18.7937 34.534L18.7944 34.5361ZM22.907 31.7812C22.7671 31.7812 22.633 31.7257 22.5341 31.6268C22.4352 31.5279 22.3797 31.3937 22.3797 31.2539V30.1992C22.3797 30.0593 22.4352 29.9252 22.5341 29.8263C22.633 29.7274 22.7671 29.6719 22.907 29.6719H32.0476C32.1875 29.6719 32.3216 29.7274 32.4205 29.8263C32.5194 29.9252 32.575 30.0593 32.575 30.1992V31.2539C32.575 31.3937 32.5194 31.5279 32.4205 31.6268C32.3216 31.7257 32.1875 31.7812 32.0476 31.7812H22.907ZM34.157 32.8359C34.2969 32.8359 34.431 32.8915 34.5299 32.9904C34.6288 33.0893 34.6843 33.2234 34.6843 33.3633V34.4179C34.6843 34.5578 34.6288 34.6919 34.5299 34.7908C34.431 34.8897 34.2969 34.9453 34.157 34.9453H25.0164C24.8765 34.9453 24.7424 34.8897 24.6435 34.7908C24.5446 34.6919 24.489 34.5578 24.489 34.4179V33.3633C24.489 33.2234 24.5446 33.0893 24.6435 32.9904C24.7424 32.8915 24.8765 32.8359 25.0164 32.8359H34.157ZM25.0164 28.6172C24.8765 28.6172 24.7424 28.5616 24.6435 28.4627C24.5446 28.3638 24.489 28.2297 24.489 28.0898V27.0351C24.489 26.8953 24.5446 26.7611 24.6435 26.6622C24.7424 26.5634 24.8765 26.5078 25.0164 26.5078H34.157C34.2969 26.5078 34.431 26.5634 34.5299 26.6622C34.6288 26.7611 34.6843 26.8953 34.6843 27.0351V28.0898C34.6843 28.2297 34.6288 28.3638 34.5299 28.4627C34.431 28.5616 34.2969 28.6172 34.157 28.6172H25.0164ZM8.957 27.3635L6.10442 30.2168L4.86481 28.9765C4.76588 28.8775 4.63171 28.822 4.4918 28.822C4.3519 28.822 4.21772 28.8775 4.11879 28.9765C4.01987 29.0754 3.96429 29.2096 3.96429 29.3495C3.96429 29.4894 4.01987 29.6236 4.11879 29.7225L5.73176 31.3354C5.83073 31.434 5.96473 31.4894 6.10442 31.4894C6.24411 31.4894 6.37811 31.434 6.47708 31.3354L9.70301 28.1095C9.752 28.0605 9.79085 28.0024 9.81736 27.9384C9.84387 27.8744 9.85752 27.8058 9.85752 27.7365C9.85752 27.6672 9.84387 27.5986 9.81736 27.5346C9.79085 27.4706 9.752 27.4125 9.70301 27.3635C9.65403 27.3145 9.59588 27.2757 9.53188 27.2491C9.46787 27.2226 9.39928 27.209 9.33001 27.209C9.26073 27.209 9.19214 27.2226 9.12814 27.2491C9.06414 27.2757 9.00598 27.3145 8.957 27.3635Z" fill="white"/>
</g>
<defs>
<clipPath id="clip0_383_99">
<rect width="36" height="36" fill="white"/>
</clipPath>
</defs>
</svg>
