<svg width="16" height="16" viewBox="0 0 16 16" fill="none" xmlns="http://www.w3.org/2000/svg">
<path d="M8.47196 8.80004L6.63197 10.632C6.55698 10.7064 6.49747 10.7949 6.45685 10.8924C6.41624 10.9899 6.39533 11.0944 6.39533 11.2C6.39533 11.3056 6.41624 11.4102 6.45685 11.5077C6.49747 11.6052 6.55698 11.6937 6.63197 11.768C6.70634 11.843 6.79482 11.9025 6.8923 11.9431C6.98979 11.9837 7.09436 12.0047 7.19996 12.0047C7.30557 12.0047 7.41014 11.9837 7.50762 11.9431C7.60511 11.9025 7.69359 11.843 7.76796 11.768L10.9679 8.56804C11.0408 8.49195 11.0979 8.40224 11.1359 8.30404C11.216 8.10927 11.216 7.89081 11.1359 7.69604C11.0979 7.59784 11.0408 7.50813 10.9679 7.43204L7.76796 4.23206C7.69337 4.15747 7.60482 4.0983 7.50736 4.05793C7.40991 4.01756 7.30545 3.99679 7.19996 3.99679C7.09448 3.99679 6.99002 4.01756 6.89257 4.05793C6.79511 4.0983 6.70656 4.15747 6.63197 4.23206C6.55738 4.30665 6.49821 4.3952 6.45784 4.49266C6.41747 4.59011 6.3967 4.69457 6.3967 4.80006C6.3967 4.90554 6.41747 5.01 6.45784 5.10745C6.49821 5.20491 6.55738 5.29346 6.63197 5.36805L8.47196 7.20004H0.799996C0.587824 7.20004 0.384342 7.28433 0.234313 7.43436C0.084285 7.58439 0 7.78787 0 8.00004C0 8.21221 0.084285 8.41569 0.234313 8.56572C0.384342 8.71575 0.587824 8.80004 0.799996 8.80004H8.47196ZM7.99996 7.97545e-05C6.50484 -0.00659524 5.03777 0.405848 3.76516 1.19063C2.49254 1.97541 1.46532 3.10111 0.799996 4.44006C0.704519 4.63101 0.688808 4.85207 0.756321 5.05461C0.823834 5.25715 0.969039 5.42457 1.15999 5.52005C1.35095 5.61553 1.57201 5.63124 1.77455 5.56373C1.97709 5.49621 2.14451 5.35101 2.23999 5.16005C2.74574 4.13872 3.51505 3.27096 4.46842 2.64646C5.42179 2.02195 6.52463 1.66337 7.66297 1.60775C8.80131 1.55212 9.93385 1.80149 10.9436 2.33008C11.9533 2.85866 12.8035 3.64729 13.4064 4.61445C14.0093 5.58162 14.343 6.69224 14.373 7.83155C14.4031 8.97085 14.1283 10.0975 13.5771 11.0951C13.026 12.0926 12.2185 12.9249 11.238 13.506C10.2575 14.087 9.13965 14.3956 7.99996 14.4C6.80707 14.4052 5.63689 14.0739 4.62373 13.4442C3.61057 12.8145 2.79547 11.9119 2.27199 10.84C2.17651 10.6491 2.00909 10.5039 1.80655 10.4364C1.60401 10.3688 1.38295 10.3846 1.19199 10.48C1.00104 10.5755 0.855834 10.7429 0.788321 10.9455C0.720808 11.148 0.736518 11.3691 0.831996 11.56C1.46625 12.8364 2.43 13.9202 3.62356 14.6992C4.81711 15.4783 6.19713 15.9243 7.62086 15.9912C9.04459 16.0581 10.4603 15.7434 11.7217 15.0796C12.983 14.4159 14.0441 13.4272 14.7952 12.2159C15.5463 11.0045 15.9601 9.61454 15.9939 8.18964C16.0277 6.76474 15.6802 5.35669 14.9873 4.11112C14.2945 2.86556 13.2814 1.82772 12.053 1.10496C10.8245 0.382194 9.42526 0.000748913 7.99996 7.97545e-05Z" fill="#53616E"/>
</svg>
