<svg width="200" height="30" viewBox="0 0 200 30" fill="none" xmlns="http://www.w3.org/2000/svg">
<g clip-path="url(#clip0_328_419)">
<path d="M0 0H32.6452V26.6691C32.6452 28.9162 29.9282 30.0367 28.3439 28.4463L16.3196 16.3798L0 0Z" fill="#6A5ACD"/>
<path opacity="0.9" d="M32.6452 0H0V26.6691C0 28.9162 2.71692 30.0367 4.30128 28.4463L16.3196 16.3798L32.6452 0Z" fill="#00BFFF"/>
</g>
<path d="M46.4401 23.5618H42V9.04117H46.2356V10.7065C46.5862 10.0832 47.1606 9.5768 47.9591 9.18725C48.777 8.7977 49.5949 8.60292 50.4128 8.60292C52.4966 8.60292 53.9279 9.36255 54.7069 10.8818C55.7585 9.36255 57.258 8.60292 59.2054 8.60292C60.7244 8.60292 61.9999 9.07038 63.0321 10.0053C64.0642 10.9208 64.5803 12.3037 64.5803 14.1541V23.5618H60.2862V15.1474C60.2862 14.4267 60.0915 13.8424 59.702 13.3944C59.3125 12.927 58.738 12.6932 57.9785 12.6932C57.219 12.6932 56.6251 12.9367 56.1966 13.4236C55.7682 13.9106 55.554 14.4949 55.554 15.1766V23.5618H51.1723V15.1474C51.1723 14.4267 50.9678 13.8424 50.5589 13.3944C50.1694 12.927 49.5949 12.6932 48.8354 12.6932C48.0954 12.6932 47.5112 12.9367 47.0827 13.4236C46.6543 13.9106 46.4401 14.5046 46.4401 15.2058V23.5618Z" fill="#6A5ACD"/>
<path d="M72.7701 23.5618H68.33V9.04117H72.7701V23.5618ZM68.7098 6.4409C68.2034 5.93448 67.9503 5.32094 67.9503 4.60027C67.9503 3.87959 68.2034 3.26605 68.7098 2.75963C69.2161 2.25321 69.8198 2 70.5209 2C71.2414 2 71.8548 2.25321 72.3612 2.75963C72.887 3.26605 73.1499 3.87959 73.1499 4.60027C73.1499 5.32094 72.887 5.93448 72.3612 6.4409C71.8548 6.94732 71.2414 7.20053 70.5209 7.20053C69.8198 7.20053 69.2161 6.94732 68.7098 6.4409Z" fill="#6A5ACD"/>
<path d="M90.9441 2.40903V20.9615C90.9441 21.838 90.983 22.7047 91.0609 23.5618H86.7961C86.7182 23.0943 86.6792 22.6268 86.6792 22.1594C86.3287 22.6658 85.8029 23.0846 85.1018 23.4157C84.4202 23.7273 83.651 23.8831 82.7941 23.8831C80.7299 23.8831 79.0162 23.1722 77.653 21.7503C76.2898 20.309 75.6082 18.4781 75.6082 16.2576C75.6082 14.0761 76.2703 12.2745 77.5945 10.8526C78.9188 9.41124 80.6033 8.69057 82.6481 8.69057C84.6344 8.69057 85.9392 9.18725 86.5624 10.1806V2.40903H90.9441ZM81.0122 13.6282C80.3891 14.2514 80.0775 15.1377 80.0775 16.2869C80.0775 17.436 80.3891 18.332 81.0122 18.9748C81.6549 19.5981 82.4339 19.9097 83.3491 19.9097C84.2644 19.9097 85.0337 19.5981 85.6568 18.9748C86.2995 18.332 86.6208 17.436 86.6208 16.2869C86.6208 15.1377 86.2995 14.2514 85.6568 13.6282C85.0337 13.0049 84.2644 12.6932 83.3491 12.6932C82.4339 12.6932 81.6549 13.0049 81.0122 13.6282Z" fill="#6A5ACD"/>
<path d="M109.23 2.40903V20.9615C109.23 21.838 109.269 22.7047 109.346 23.5618H105.082C105.004 23.0943 104.965 22.6268 104.965 22.1594C104.614 22.6658 104.088 23.0846 103.387 23.4157C102.706 23.7273 101.937 23.8831 101.08 23.8831C99.0154 23.8831 97.3017 23.1722 95.9385 21.7503C94.5753 20.309 93.8937 18.4781 93.8937 16.2576C93.8937 14.0761 94.5558 12.2745 95.8801 10.8526C97.2043 9.41124 98.8888 8.69057 100.934 8.69057C102.92 8.69057 104.225 9.18725 104.848 10.1806V2.40903H109.23ZM99.2978 13.6282C98.6746 14.2514 98.363 15.1377 98.363 16.2869C98.363 17.436 98.6746 18.332 99.2978 18.9748C99.9404 19.5981 100.719 19.9097 101.635 19.9097C102.55 19.9097 103.319 19.5981 103.942 18.9748C104.585 18.332 104.906 17.436 104.906 16.2869C104.906 15.1377 104.585 14.2514 103.942 13.6282C103.319 13.0049 102.55 12.6932 101.635 12.6932C100.719 12.6932 99.9404 13.0049 99.2978 13.6282Z" fill="#6A5ACD"/>
<path d="M117.671 23.5618H113.231V2.40903H117.671V23.5618Z" fill="#6A5ACD"/>
<path d="M124.948 14.5631H130.761C130.722 13.9008 130.46 13.3263 129.973 12.8393C129.505 12.3524 128.795 12.1089 127.84 12.1089C126.983 12.1089 126.302 12.3621 125.796 12.8685C125.289 13.3749 125.007 13.9398 124.948 14.5631ZM131.083 18.332L134.793 19.3838C134.423 20.7278 133.653 21.838 132.485 22.7145C131.316 23.5715 129.856 24 128.103 24C126 24 124.208 23.2988 122.728 21.8964C121.268 20.494 120.538 18.6144 120.538 16.2576C120.538 13.9982 121.248 12.1576 122.67 10.7357C124.111 9.31386 125.815 8.60292 127.782 8.60292C130.041 8.60292 131.813 9.26516 133.098 10.5896C134.403 11.8946 135.055 13.7158 135.055 16.0531C135.055 16.7933 135.026 17.251 134.968 17.4263H124.861C124.9 18.2249 125.241 18.8969 125.883 19.4422C126.526 19.9681 127.285 20.2311 128.162 20.2311C129.661 20.2311 130.635 19.5981 131.083 18.332Z" fill="#6A5ACD"/>
<path d="M143.223 4.80478V9.04117H146.056V12.927H143.223V18.3612C143.223 19.3741 143.758 19.8805 144.829 19.8805C145.18 19.8805 145.569 19.8318 145.998 19.7344V23.4157C145.453 23.6884 144.683 23.8247 143.69 23.8247C142.191 23.8247 141.003 23.4059 140.126 22.5684C139.27 21.7309 138.841 20.5914 138.841 19.1501V12.927H136.271V9.04117H137.001C137.741 9.04117 138.296 8.82692 138.666 8.39841C139.055 7.95042 139.25 7.37583 139.25 6.67464V4.80478H143.223Z" fill="#6A5ACD"/>
<path d="M158.262 9.04117V13.4236C157.853 13.3263 157.386 13.2776 156.86 13.2776C155.867 13.2776 155.049 13.5989 154.407 14.2417C153.783 14.8845 153.472 15.8778 153.472 17.2218V23.5618H149.032V9.04117H153.326V10.9987C153.676 10.2585 154.212 9.72289 154.932 9.39177C155.653 9.06065 156.373 8.89509 157.094 8.89509C157.542 8.89509 157.931 8.94378 158.262 9.04117Z" fill="#6A5ACD"/>
<path d="M170.218 23.5618C170.141 23.2112 170.102 22.7242 170.102 22.1009C169.751 22.6853 169.216 23.1332 168.495 23.4449C167.774 23.7371 167.015 23.8831 166.217 23.8831C164.503 23.8831 163.149 23.3475 162.156 22.2762C161.182 21.1855 160.696 19.8318 160.696 18.2151V9.04117H165.136V17.2802C165.136 18.0204 165.33 18.6242 165.72 19.0916C166.129 19.5591 166.713 19.7928 167.473 19.7928C168.213 19.7928 168.797 19.5688 169.225 19.1208C169.673 18.6534 169.897 18.0496 169.897 17.3094V9.04117H174.337V20.9615C174.337 21.9159 174.386 22.7826 174.483 23.5618H170.218Z" fill="#6A5ACD"/>
<path d="M177.045 19.4422L180.813 18.7703C180.852 19.3156 181.057 19.7831 181.427 20.1726C181.816 20.5427 182.371 20.7278 183.092 20.7278C183.637 20.7278 184.056 20.6109 184.348 20.3772C184.64 20.1239 184.786 19.822 184.786 19.4714C184.786 18.8871 184.309 18.4878 183.355 18.2736L181.69 17.8938C180.21 17.5821 179.119 17.0367 178.418 16.2576C177.717 15.4591 177.367 14.5144 177.367 13.4236C177.367 12.0797 177.892 10.9402 178.944 10.0053C180.015 9.07038 181.349 8.60292 182.946 8.60292C184.835 8.60292 186.247 9.06065 187.182 9.9761C188.136 10.8721 188.662 11.8557 188.759 12.927L185.078 13.5989C185.02 13.073 184.815 12.6445 184.465 12.3134C184.134 11.9823 183.647 11.8167 183.004 11.8167C182.576 11.8167 182.206 11.9336 181.894 12.1673C181.583 12.4011 181.427 12.703 181.427 13.073C181.427 13.6574 181.807 14.0177 182.566 14.1541L184.494 14.5339C185.955 14.826 187.065 15.3811 187.824 16.1992C188.584 17.0173 188.963 17.9814 188.963 19.0916C188.963 20.4356 188.457 21.5945 187.444 22.5684C186.432 23.5228 185.01 24 183.18 24C182.109 24 181.154 23.8442 180.317 23.5325C179.499 23.2209 178.866 22.8216 178.418 22.3347C177.99 21.8282 177.659 21.3316 177.425 20.8446C177.211 20.3577 177.084 19.8902 177.045 19.4422Z" fill="#6A5ACD"/>
<path d="M197.167 4.80478V9.04117H200V12.927H197.167V18.3612C197.167 19.3741 197.702 19.8805 198.773 19.8805C199.124 19.8805 199.513 19.8318 199.942 19.7344V23.4157C199.396 23.6884 198.627 23.8247 197.634 23.8247C196.134 23.8247 194.946 23.4059 194.07 22.5684C193.213 21.7309 192.785 20.5914 192.785 19.1501V12.927H190.214V9.04117H190.945C191.685 9.04117 192.24 8.82692 192.61 8.39841C192.999 7.95042 193.194 7.37583 193.194 6.67464V4.80478H197.167Z" fill="#6A5ACD"/>
<defs>
<clipPath id="clip0_328_419">
<rect width="32.6452" height="29.1933" fill="white"/>
</clipPath>
</defs>
</svg>
