<svg width="32" height="32" viewBox="0 0 32 32" fill="none" xmlns="http://www.w3.org/2000/svg">
<path d="M16.64 16.0001V22.3361H18.112C18.2817 22.3361 18.4445 22.4035 18.5645 22.5235C18.6845 22.6435 18.752 22.8063 18.752 22.9761C18.752 23.1458 18.6845 23.3086 18.5645 23.4286C18.4445 23.5486 18.2817 23.6161 18.112 23.6161H16.64V28.8001C16.64 28.9698 16.5725 29.1326 16.4525 29.2526C16.3325 29.3726 16.1697 29.4401 16 29.4401C15.8302 29.4401 15.6674 29.3726 15.5474 29.2526C15.4274 29.1326 15.36 28.9698 15.36 28.8001V16.6401H13.888C13.7182 16.6401 13.5554 16.5726 13.4354 16.4526C13.3154 16.3326 13.248 16.1698 13.248 16.0001C13.248 15.8303 13.3154 15.6675 13.4354 15.5475C13.5554 15.4275 13.7182 15.3601 13.888 15.3601H15.36V3.20006C15.36 3.03032 15.4274 2.86753 15.5474 2.74751C15.6674 2.62749 15.8302 2.56006 16 2.56006C16.1697 2.56006 16.3325 2.62749 16.4525 2.74751C16.5725 2.86753 16.64 3.03032 16.64 3.20006V8.38406H18.112C18.2817 8.38406 18.4445 8.45149 18.5645 8.57151C18.6845 8.69153 18.752 8.85432 18.752 9.02406C18.752 9.1938 18.6845 9.35658 18.5645 9.47661C18.4445 9.59663 18.2817 9.66406 18.112 9.66406H16.64V16.0001ZM27.52 19.6481H22.8352C22.7495 19.6481 22.6647 19.6651 22.5856 19.6981C22.5065 19.731 22.4347 19.7793 22.3744 19.8401L19.8144 22.5281C19.7032 22.6482 19.6414 22.8059 19.6414 22.9697C19.6414 23.1334 19.7032 23.2911 19.8144 23.4113L22.3744 26.1121C22.4996 26.2298 22.6634 26.298 22.8352 26.3041H27.52C27.6897 26.3041 27.8525 26.2366 27.9725 26.1166C28.0925 25.9966 28.16 25.8338 28.16 25.6641V20.2881C28.16 20.1183 28.0925 19.9555 27.9725 19.8355C27.8525 19.7155 27.6897 19.6481 27.52 19.6481ZM9.62557 12.8641C9.56519 12.8033 9.4934 12.755 9.41433 12.7221C9.33525 12.6891 9.25043 12.6721 9.16477 12.6721H4.47997C4.31023 12.6721 4.14744 12.7395 4.02742 12.8595C3.90739 12.9795 3.83997 13.1423 3.83997 13.3121V18.6881C3.83997 18.8578 3.90739 19.0206 4.02742 19.1406C4.14744 19.2606 4.31023 19.3281 4.47997 19.3281H9.16477C9.25043 19.328 9.33525 19.311 9.41433 19.278C9.4934 19.2451 9.56519 19.1968 9.62557 19.1361L12.1856 16.4353C12.2953 16.3169 12.3563 16.1615 12.3563 16.0001C12.3563 15.8387 12.2953 15.6832 12.1856 15.5649L9.62557 12.8641ZM27.52 5.69606H22.8352C22.6634 5.70209 22.4996 5.77032 22.3744 5.88806L19.8144 8.58886C19.7032 8.70904 19.6414 8.86673 19.6414 9.03046C19.6414 9.19418 19.7032 9.35188 19.8144 9.47206L22.3744 12.1601C22.4347 12.2208 22.5065 12.2691 22.5856 12.302C22.6647 12.335 22.7495 12.352 22.8352 12.3521H27.52C27.6897 12.3521 27.8525 12.2846 27.9725 12.1646C28.0925 12.0446 28.16 11.8818 28.16 11.7121V6.33606C28.16 6.16632 28.0925 6.00353 27.9725 5.88351C27.8525 5.76349 27.6897 5.69606 27.52 5.69606Z" fill="#6A5ACD"/>
</svg>
