<svg width="32" height="32" viewBox="0 0 32 32" fill="none" xmlns="http://www.w3.org/2000/svg">
<path d="M16.6401 16.0001V22.3361H18.1121C18.2818 22.3361 18.4446 22.4035 18.5646 22.5235C18.6847 22.6435 18.7521 22.8063 18.7521 22.9761C18.7521 23.1458 18.6847 23.3086 18.5646 23.4286C18.4446 23.5486 18.2818 23.6161 18.1121 23.6161H16.6401V28.8001C16.6401 28.9698 16.5727 29.1326 16.4526 29.2526C16.3326 29.3726 16.1698 29.4401 16.0001 29.4401C15.8303 29.4401 15.6676 29.3726 15.5475 29.2526C15.4275 29.1326 15.3601 28.9698 15.3601 28.8001V16.6401H13.8881C13.7184 16.6401 13.5556 16.5726 13.4355 16.4526C13.3155 16.3326 13.2481 16.1698 13.2481 16.0001C13.2481 15.8303 13.3155 15.6675 13.4355 15.5475C13.5556 15.4275 13.7184 15.3601 13.8881 15.3601H15.3601V3.20006C15.3601 3.03032 15.4275 2.86753 15.5475 2.74751C15.6676 2.62749 15.8303 2.56006 16.0001 2.56006C16.1698 2.56006 16.3326 2.62749 16.4526 2.74751C16.5727 2.86753 16.6401 3.03032 16.6401 3.20006V8.38406H18.1121C18.2818 8.38406 18.4446 8.45149 18.5646 8.57151C18.6847 8.69153 18.7521 8.85432 18.7521 9.02406C18.7521 9.1938 18.6847 9.35658 18.5646 9.47661C18.4446 9.59663 18.2818 9.66406 18.1121 9.66406H16.6401V16.0001ZM27.5201 19.6481H22.8353C22.7496 19.6481 22.6648 19.6651 22.5857 19.6981C22.5067 19.731 22.4349 19.7793 22.3745 19.8401L19.8145 22.5281C19.7033 22.6482 19.6415 22.8059 19.6415 22.9697C19.6415 23.1334 19.7033 23.2911 19.8145 23.4113L22.3745 26.1121C22.4997 26.2298 22.6635 26.298 22.8353 26.3041H27.5201C27.6898 26.3041 27.8526 26.2366 27.9726 26.1166C28.0927 25.9966 28.1601 25.8338 28.1601 25.6641V20.2881C28.1601 20.1183 28.0927 19.9555 27.9726 19.8355C27.8526 19.7155 27.6898 19.6481 27.5201 19.6481ZM9.62569 12.8641C9.56532 12.8033 9.49353 12.755 9.41445 12.7221C9.33537 12.6891 9.25056 12.6721 9.16489 12.6721H4.48009C4.31035 12.6721 4.14756 12.7395 4.02754 12.8595C3.90752 12.9795 3.84009 13.1423 3.84009 13.3121V18.6881C3.84009 18.8578 3.90752 19.0206 4.02754 19.1406C4.14756 19.2606 4.31035 19.3281 4.48009 19.3281H9.16489C9.25056 19.328 9.33537 19.311 9.41445 19.278C9.49353 19.2451 9.56532 19.1968 9.62569 19.1361L12.1857 16.4353C12.2954 16.3169 12.3564 16.1615 12.3564 16.0001C12.3564 15.8387 12.2954 15.6832 12.1857 15.5649L9.62569 12.8641ZM27.5201 5.69606H22.8353C22.6635 5.70209 22.4997 5.77032 22.3745 5.88806L19.8145 8.58886C19.7033 8.70904 19.6415 8.86673 19.6415 9.03046C19.6415 9.19418 19.7033 9.35188 19.8145 9.47206L22.3745 12.1601C22.4349 12.2208 22.5067 12.2691 22.5857 12.302C22.6648 12.335 22.7496 12.352 22.8353 12.3521H27.5201C27.6898 12.3521 27.8526 12.2846 27.9726 12.1646C28.0927 12.0446 28.1601 11.8818 28.1601 11.7121V6.33606C28.1601 6.16632 28.0927 6.00353 27.9726 5.88351C27.8526 5.76349 27.6898 5.69606 27.5201 5.69606Z" fill="#6A5ACD"/>
</svg>
