<svg width="400" height="361" viewBox="0 0 400 361" fill="none" xmlns="http://www.w3.org/2000/svg">
<path opacity="0.4" d="M357.957 135.348C374.739 145.043 388.348 134.043 388.391 110.783C388.391 87.5217 374.783 60.7826 358 51.087C341.217 41.3913 327.609 52.3913 327.565 75.6522C327.565 80.7826 328.217 86.0435 329.435 91.2609L267.565 114.348C262.087 103.783 254.565 94.8696 246.304 90.087C229.522 80.3913 215.913 91.3913 215.87 114.652C215.87 137.913 229.478 164.652 246.261 174.348C254.217 178.957 261.478 178.87 266.913 175.087L327.565 267.739C327.565 268.304 327.522 268.826 327.522 269.391C327.522 292.652 341.131 319.391 357.913 329.087C374.696 338.783 388.304 327.783 388.348 304.522C388.348 281.261 374.739 254.522 357.957 244.826C346.913 238.478 337.261 241.043 331.913 250.13L274.913 163.043C276.087 159.261 276.696 154.826 276.696 149.783C276.696 145.174 276.174 140.478 275.174 135.783L337.478 112.522C342.87 122.478 350.087 130.783 357.957 135.348Z" fill="url(#paint0_linear_328_325)"/>
<path opacity="0.07" d="M405.609 97.5653C405.609 120.826 392 131.826 375.174 122.131C358.391 112.435 344.783 85.7392 344.783 62.4349C344.783 39.174 358.391 28.174 375.217 37.8697C392 47.5653 405.609 74.3045 405.609 97.5653Z" fill="url(#paint1_linear_328_325)"/>
<path opacity="0.07" d="M293.87 135.826C293.87 159.087 280.261 170.087 263.435 160.392C246.652 150.696 233.043 123.957 233.043 100.696C233.043 77.435 246.652 66.435 263.478 76.1307C280.261 85.8263 293.87 112.565 293.87 135.826Z" fill="url(#paint2_linear_328_325)"/>
<path opacity="0.07" d="M406.043 291.478C406.043 314.739 392.435 325.739 375.609 316.044C358.826 306.348 345.217 279.609 345.217 256.348C345.217 233.087 358.826 222.087 375.652 231.783C392.435 241.478 406.043 268.218 406.043 291.478Z" fill="url(#paint3_linear_328_325)"/>
<path opacity="0.2" d="M148.696 269.565L235.044 319.435L235.087 396.305L148.739 346.435L148.696 269.565Z" fill="url(#paint4_linear_328_325)"/>
<path opacity="0.15" d="M148.696 269.565L191.913 340.609L235.087 319.392L148.696 269.565Z" fill="url(#paint5_linear_328_325)"/>
<path fill-rule="evenodd" clip-rule="evenodd" d="M199.348 342.261C199.348 347.696 196.087 350.174 192 347.826C187.957 345.478 184.652 339.174 184.652 333.783C184.652 328.348 187.913 325.87 192 328.217C196.087 330.565 199.348 336.87 199.348 342.261Z" fill="#F2994A"/>
<path opacity="0.3" d="M237.174 232.044L107.826 157.435L107.87 223.217L225.826 291.261L237.261 307.913L237.174 232.044Z" fill="url(#paint6_linear_328_325)"/>
<path fill-rule="evenodd" clip-rule="evenodd" d="M94.0435 182.913V165.044L142.87 193.218V211.087L94.0435 182.913Z" fill="#F2994A"/>
<path opacity="0.15" d="M203.913 228.87L175.565 212.522V218.305L203.913 234.652V228.87Z" fill="white"/>
<path opacity="0.15" d="M203.956 240.435L149.304 208.913V214.696L203.956 246.217V240.435Z" fill="white"/>
<path opacity="0.15" d="M203.957 252L137.739 213.826V219.609L203.957 257.783V252Z" fill="white"/>
<path fill-rule="evenodd" clip-rule="evenodd" d="M210.913 238.913C210.913 244.348 214.217 250.609 218.261 252.957C222.304 255.304 225.609 252.783 225.609 247.391C225.609 241.957 222.304 235.696 218.261 233.348C214.174 231 210.913 233.522 210.913 238.913Z" fill="#F2994A"/>
<path opacity="0.3" d="M248.913 276.044L378.261 350.652L378.304 416.435L260.348 348.392L248.957 351.87L248.913 276.044Z" fill="url(#paint7_linear_328_325)"/>
<path fill-rule="evenodd" clip-rule="evenodd" d="M340.652 361.739V343.87L389.478 372.044V389.913L340.652 361.739Z" fill="#F2C94C"/>
<path opacity="0.15" d="M282.174 311.218L310.522 327.565V333.348L282.174 317V311.218Z" fill="white"/>
<path opacity="0.15" d="M282.174 322.783L333.348 352.304V358.087L282.174 328.609V322.783Z" fill="white"/>
<path opacity="0.15" d="M282.174 334.391L348.391 372.565V378.348L282.174 340.174V334.391Z" fill="white"/>
<path fill-rule="evenodd" clip-rule="evenodd" d="M275.217 313.217C275.217 318.652 271.957 321.131 267.87 318.783C263.826 316.435 260.522 310.13 260.522 304.739C260.522 299.304 263.783 296.826 267.87 299.174C271.913 301.522 275.174 307.826 275.217 313.217Z" fill="#F2C94C"/>
<path opacity="0.2" d="M178.783 143.739L160.174 133V126.739L178.783 137.478C180.304 138.348 182.522 140.131 184.391 142.87C186.435 145.783 187.869 149.478 187.869 153.478C187.869 157.913 186.739 160.435 184.609 161.131C182.609 161.783 180.217 160.652 178.783 159.826L171.13 155.391L171.087 155.348C170.435 154.957 169.391 154.565 168.565 154.826C167.869 155.044 167.13 155.696 167.13 158.174C167.13 160.652 167.913 162.131 168.522 163.044C169.304 164.174 170.348 164.957 171 165.304L171.087 165.348L194.478 178.87V185.131L171.217 171.696C169.609 170.87 167.304 169.087 165.304 166.304C163.13 163.218 161.652 159.348 161.652 155.044C161.652 150.739 163.13 148.565 165.261 147.957C167.261 147.391 169.565 148.218 171.174 149.174L178.739 153.565C179.826 154.218 180.652 154.478 181.217 154.304C181.652 154.174 182.435 153.565 182.435 150.391C182.435 148.304 181.783 146.957 181.13 146.087C180.391 144.913 179.435 144.087 178.783 143.739Z" fill="white"/>
<path fill-rule="evenodd" clip-rule="evenodd" d="M163.609 131.652C163.609 137.261 160.304 139.913 156.261 137.609C152.217 135.261 148.913 128.826 148.913 123.174C148.913 117.565 152.217 114.913 156.261 117.218C160.304 119.565 163.609 126.044 163.609 131.652Z" fill="#F2994A"/>
<path fill-rule="evenodd" clip-rule="evenodd" d="M204.043 187.304C204.043 192.913 200.739 195.565 196.695 193.261C192.652 190.913 189.348 184.478 189.348 178.826C189.348 173.217 192.652 170.565 196.695 172.87C200.739 175.217 204.043 181.696 204.043 187.304Z" fill="#F2C94C"/>
<path opacity="0.2" d="M240.913 399.044C217.913 369.435 234.565 358.783 240.913 376.087C247.261 366.087 263.913 396 240.913 399.044Z" fill="url(#paint8_linear_328_325)"/>
<defs>
<linearGradient id="paint0_linear_328_325" x1="12532.4" y1="5970" x2="4088.91" y2="14583.7" gradientUnits="userSpaceOnUse">
<stop stop-color="white"/>
<stop offset="1" stop-color="white" stop-opacity="0"/>
</linearGradient>
<linearGradient id="paint1_linear_328_325" x1="4061.56" y1="3046.88" x2="-4846.6" y2="12135" gradientUnits="userSpaceOnUse">
<stop stop-color="white"/>
<stop offset="1" stop-color="white" stop-opacity="0"/>
</linearGradient>
<linearGradient id="paint2_linear_328_325" x1="3949.82" y1="3085.14" x2="-4958.34" y2="12173.3" gradientUnits="userSpaceOnUse">
<stop stop-color="white"/>
<stop offset="1" stop-color="white" stop-opacity="0"/>
</linearGradient>
<linearGradient id="paint3_linear_328_325" x1="4062" y1="3240.79" x2="-4846.17" y2="12328.9" gradientUnits="userSpaceOnUse">
<stop stop-color="white"/>
<stop offset="1" stop-color="white" stop-opacity="0"/>
</linearGradient>
<linearGradient id="paint4_linear_328_325" x1="4777.2" y1="1169.67" x2="3855.61" y2="8705.48" gradientUnits="userSpaceOnUse">
<stop stop-color="white"/>
<stop offset="1" stop-color="white" stop-opacity="0"/>
</linearGradient>
<linearGradient id="paint5_linear_328_325" x1="4370.9" y1="1652.5" x2="4621.31" y2="7172.46" gradientUnits="userSpaceOnUse">
<stop stop-color="white"/>
<stop offset="1" stop-color="white" stop-opacity="0"/>
</linearGradient>
<linearGradient id="paint6_linear_328_325" x1="9218.35" y1="4849.8" x2="3723.73" y2="9212.05" gradientUnits="userSpaceOnUse">
<stop stop-color="white"/>
<stop offset="1" stop-color="white" stop-opacity="0"/>
</linearGradient>
<linearGradient id="paint7_linear_328_325" x1="6061.04" y1="547.982" x2="7477.1" y2="13812.9" gradientUnits="userSpaceOnUse">
<stop stop-color="white"/>
<stop offset="1" stop-color="white" stop-opacity="0"/>
</linearGradient>
<linearGradient id="paint8_linear_328_325" x1="1684.07" y1="1313.07" x2="403.48" y2="2419.39" gradientUnits="userSpaceOnUse">
<stop stop-color="white"/>
<stop offset="1" stop-color="white" stop-opacity="0"/>
</linearGradient>
</defs>
</svg>
