<svg width="24" height="24" viewBox="0 0 24 24" fill="none" xmlns="http://www.w3.org/2000/svg">
<path d="M16.9992 11.3904C16.3844 12.1168 15.6186 12.7005 14.7553 13.1008C13.8919 13.5011 12.9517 13.7085 12 13.7085C11.0483 13.7085 10.1081 13.5011 9.24474 13.1008C8.38138 12.7005 7.61564 12.1168 7.0008 11.3904C5.36077 12.1326 3.96956 13.332 2.99391 14.8449C2.01827 16.3577 1.49957 18.1198 1.5 19.92V22.5H22.5V19.92C22.5004 18.1198 21.9817 16.3577 21.0061 14.8449C20.0304 13.332 18.6392 12.1326 16.9992 11.3904Z" fill="#53616E"/>
<path d="M12 12.7512C15.0924 12.7512 17.5992 10.2444 17.5992 7.152C17.5992 4.05964 15.0924 1.5528 12 1.5528C8.90767 1.5528 6.40082 4.05964 6.40082 7.152C6.40082 10.2444 8.90767 12.7512 12 12.7512Z" fill="#CFDADD"/>
</svg>
