<svg width="36" height="36" viewBox="0 0 36 36" fill="none" xmlns="http://www.w3.org/2000/svg">
<path d="M24.2068 25.356V31.2937H11.7918V25.356H24.2068ZM24.2068 23.4566V21.4961C24.2068 20.9751 23.7881 20.5454 23.2661 20.5454H12.7326C12.2007 20.5454 11.7918 20.9751 11.7918 21.4961V23.4566H24.2068ZM8.89404 4.70642C8.56497 4.70642 8.25623 4.86413 8.06435 5.13195L4.62691 9.90512C4.45465 10.1449 4.43433 10.5019 4.43433 10.5019V13.4391C4.43433 15.7328 6.29944 17.5977 8.59254 17.5977C9.84994 17.5977 10.9651 17.0259 11.728 16.1406C12.4914 17.0259 13.6065 17.5977 14.8639 17.5977C16.1213 17.5977 17.2365 17.0259 17.9994 16.1406C18.7623 17.0259 19.8774 17.5977 21.1348 17.5977C22.3922 17.5977 23.5074 17.0259 24.2707 16.1406C25.0336 17.0259 26.1488 17.5977 27.4062 17.5977C29.6994 17.5977 31.5644 15.7328 31.5644 13.4391V10.5019C31.5644 10.5019 31.5914 10.2279 31.388 9.92804L28.1498 5.15473C27.9593 4.87355 27.6422 4.70642 27.3034 4.70642H8.89404Z" fill="white"/>
<path d="M14.1328 4.70642L11.9548 11.5242H5.45713C5.07315 11.5242 4.7218 11.3094 4.54693 10.968C4.37199 10.6265 4.40258 10.2155 4.62688 9.90519L8.06431 5.13202C8.25627 4.8642 8.56501 4.70649 8.894 4.70649L14.1328 4.70642ZM31.388 9.92804L28.1498 5.15473C27.9593 4.87355 27.6422 4.70642 27.3034 4.70642H22.2852L24.4627 11.5242H30.5416C30.9204 11.5242 31.2681 11.3156 31.4456 10.9815C31.6229 10.6461 31.6002 10.2414 31.388 9.92804ZM16.2801 4.70642L14.1027 11.5242H22.3153L20.1379 4.70642H16.2801ZM28.9489 17.3V28.2226C28.9489 29.9143 27.5727 31.2905 25.8809 31.2905H24.2069V25.3561H11.7919V31.2905H10.2625C8.57077 31.2905 7.19455 29.9143 7.19455 28.2226V17.3554C7.63168 17.5119 8.10221 17.5978 8.5925 17.5978C9.8499 17.5978 10.9651 17.026 11.7279 16.1407C12.4913 17.026 13.6066 17.5978 14.8639 17.5978C16.1212 17.5978 17.2364 17.026 17.9993 16.1407C18.7622 17.026 19.8774 17.5978 21.1348 17.5978C22.3922 17.5978 23.5073 17.026 24.2707 16.1407C25.0336 17.026 26.1488 17.5978 27.4062 17.5978C27.9512 17.5978 28.4715 17.4913 28.9489 17.3ZM24.2069 21.4961C24.2069 20.9751 23.7882 20.5454 23.2661 20.5454H12.7326C12.2007 20.5454 11.7919 20.975 11.7919 21.4961V23.4566H24.2069V21.4961Z" fill="#6A5ACD"/>
</svg>
