<svg width="24" height="24" viewBox="0 0 24 24" fill="none" xmlns="http://www.w3.org/2000/svg">
<path d="M4.06082 14.2392C4.23568 14.8638 4.48381 15.4656 4.80002 16.032L5.78642 14.5728L4.06082 14.2392Z" fill="#53616E"/>
<path d="M4.80004 7.968C4.483 8.53426 4.23407 9.13604 4.05844 9.7608L5.78644 9.4272L4.80004 7.968Z" fill="#53616E"/>
<path d="M7.96799 19.2C8.53425 19.517 9.13603 19.766 9.76079 19.9416L9.42719 18.2136L7.96799 19.2Z" fill="#53616E"/>
<path d="M19.2 16.032C19.517 15.4657 19.766 14.864 19.9416 14.2392L18.2136 14.5728L19.2 16.032Z" fill="#53616E"/>
<path d="M9.5136 6L6 9.5136V14.4864L9.5136 18H14.4864L18 14.4864V9.5136L14.4864 6H9.5136ZM17.46 12C17.46 13.0799 17.1398 14.1355 16.5398 15.0334C15.9399 15.9313 15.0871 16.6311 14.0895 17.0444C13.0918 17.4576 11.9939 17.5658 10.9348 17.3551C9.87567 17.1444 8.90279 16.6244 8.1392 15.8608C7.3756 15.0972 6.85559 14.1243 6.64491 13.0652C6.43424 12.0061 6.54236 10.9082 6.95562 9.91055C7.36887 8.91286 8.06869 8.06013 8.96659 7.46018C9.86448 6.86022 10.9201 6.54 12 6.54C13.4475 6.5419 14.8352 7.11777 15.8587 8.1413C16.8822 9.16484 17.4581 10.5525 17.46 12Z" fill="#53616E"/>
<path d="M19.9392 9.7608C19.7643 9.13615 19.5162 8.53437 19.2 7.968L18.2136 9.4272L19.9392 9.7608Z" fill="#53616E"/>
<path d="M16.032 4.8C15.4657 4.48295 14.8639 4.23402 14.2392 4.0584L14.5728 5.7864L16.032 4.8Z" fill="#53616E"/>
<path d="M9.76079 4.06081C9.13614 4.23567 8.53436 4.48379 7.96799 4.80001L9.42719 5.78641L9.76079 4.06081Z" fill="#53616E"/>
<path d="M14.2392 19.9392C14.8638 19.7643 15.4656 19.5162 16.032 19.2L14.5728 18.2136L14.2392 19.9392Z" fill="#53616E"/>
<path d="M12 16.5C14.4853 16.5 16.5 14.4853 16.5 12C16.5 9.51472 14.4853 7.5 12 7.5C9.51472 7.5 7.5 9.51472 7.5 12C7.5 14.4853 9.51472 16.5 12 16.5Z" fill="#CFDADD"/>
<path d="M9.60475 5.9088L9.51596 6H14.484L14.3952 5.9088L14.5728 5.7888L14.2392 4.0608L13.7424 1.5H10.2576L9.76075 4.0608L9.42715 5.7888L9.60475 5.9088Z" fill="#53616E"/>
<path d="M14.3952 18.0912L14.484 18H9.51596L9.60475 18.0912L9.42715 18.2112L9.76075 19.9392L10.2576 22.5H13.7424L14.2392 19.9392L14.5728 18.2112L14.3952 18.0912Z" fill="#53616E"/>
<path d="M5.9088 14.3952L6 14.484V9.516L5.9088 9.6048L5.7888 9.4272L4.0608 9.7608L1.5 10.2576V13.7424L4.0608 14.2392L5.7888 14.5728L5.9088 14.3952Z" fill="#53616E"/>
<path d="M18.2112 9.4272L18.0912 9.6048L18 9.516V14.484L18.0912 14.3952L18.2112 14.5728L19.9392 14.2392L22.5 13.7424V10.2576L19.9392 9.7608L18.2112 9.4272Z" fill="#53616E"/>
<path d="M5.9088 9.6048L6 9.516L9.516 6L9.6048 5.9088L9.4272 5.7888L7.968 4.8024L5.808 3.3432L3.3432 5.808L4.8024 7.968L5.7888 9.4272L5.9088 9.6048Z" fill="#53616E"/>
<path d="M18.0912 14.3952L18 14.484L14.484 18L14.3952 18.0912L14.5728 18.2112L16.032 19.1976L18.192 20.6568L20.6568 18.192L19.1976 16.032L18.2112 14.5728L18.0912 14.3952Z" fill="#53616E"/>
<path d="M9.6048 18.0912L9.516 18L6 14.484L5.9088 14.3952L5.7888 14.5728L4.8024 16.032L3.3432 18.192L5.808 20.6568L7.968 19.1976L9.4272 18.2112L9.6048 18.0912Z" fill="#53616E"/>
<path d="M14.3952 5.9088L14.484 6L18 9.516L18.0912 9.6048L18.2112 9.4272L19.1976 7.968L20.6568 5.808L18.192 3.3432L16.032 4.8024L14.5728 5.7888L14.3952 5.9088Z" fill="#53616E"/>
</svg>
