<svg width="24" height="24" viewBox="0 0 24 24" fill="none" xmlns="http://www.w3.org/2000/svg">
<path fill-rule="evenodd" clip-rule="evenodd" d="M14 1C14.2779 1 14.5292 1.11331 14.7104 1.29624L20.7037 7.28944C20.8867 7.47067 21 7.7221 21 8L21 8.00625V20C21 21.6569 19.6569 23 18 23H6C4.34315 23 3 21.6569 3 20V4C3 2.34315 4.34315 1 6 1H14H14ZM5.99999 3H13V8C13 8.55229 13.4477 9 14 9H19V20C19 20.5523 18.5523 21 18 21H5.99999C5.4477 21 4.99999 20.5523 4.99999 20V4C4.99999 3.44771 5.4477 3 5.99999 3ZM15 7H17.5858L15 4.41424V7ZM8.00001 12H16C16.5523 12 17 12.4477 17 13C17 13.5523 16.5523 14 16 14H8.00001C7.44773 14 7.00001 13.5523 7.00001 13C7.00001 12.4477 7.44773 12 8.00001 12ZM16 16H8.00001C7.44773 16 7.00001 16.4477 7.00001 17C7.00001 17.5523 7.44773 18 8.00001 18H16C16.5523 18 17 17.5523 17 17C17 16.4477 16.5523 16 16 16ZM8.00001 8.00001H10C10.5523 8.00001 11 8.44772 11 9.00001C11 9.55229 10.5523 10 10 10H8.00001C7.44773 10 7.00001 9.55229 7.00001 9.00001C7.00001 8.44772 7.44773 8.00001 8.00001 8.00001Z" fill="#53616E"/>
<path fill-rule="evenodd" clip-rule="evenodd" d="M14 1C14.2652 1 14.5196 1.10536 14.7071 1.2929L20.7071 7.2929C20.8946 7.48043 21 7.73479 21 8V20C21 21.6569 19.6569 23 18 23H6C4.34315 23 3 21.6569 3 20V4C3 2.34315 4.34315 1 6 1H14ZM13.0864 3L14.5431 3.95728L13.5858 3H13.0864ZM19 19.9928C18.7742 20.4576 18.3737 20.8218 17.884 21H18C18.5523 21 19 20.5523 19 20V19.9928Z" fill="#53616E"/>
<path d="M14.94 1.95C14.94 1.40324 14.4968 0.959999 13.95 0.959999C13.4032 0.959999 12.96 1.40324 12.96 1.95V7.89C12.96 8.43676 13.4032 8.88 13.95 8.88H19.89C20.4368 8.88 20.88 8.43676 20.88 7.89C20.88 7.34324 20.4368 6.9 19.89 6.9H14.94V1.95Z" fill="#CFDADD"/>
<path d="M16 16H8C7.44772 16 7 16.4477 7 17C7 17.5523 7.44772 18 8 18H16C16.5523 18 17 17.5523 17 17C17 16.4477 16.5523 16 16 16Z" fill="#CFDADD"/>
<path d="M16 12H8C7.44772 12 7 12.4477 7 13C7 13.5523 7.44772 14 8 14H16C16.5523 14 17 13.5523 17 13C17 12.4477 16.5523 12 16 12Z" fill="#CFDADD"/>
<path d="M10 8H8C7.44772 8 7 8.44771 7 9C7 9.55228 7.44772 10 8 10H10C10.5523 10 11 9.55228 11 9C11 8.44771 10.5523 8 10 8Z" fill="#CFDADD"/>
</svg>
