<svg width="46" height="46" viewBox="0 0 46 46" fill="none" xmlns="http://www.w3.org/2000/svg">
<g clip-path="url(#clip0_975_293)">
<path d="M25.8937 29.5713L23.0935 32.4277C21.8557 33.6903 20.1671 34.4094 18.3991 34.427C16.6311 34.4445 14.9285 33.759 13.6659 32.5213C12.4033 31.2835 11.6841 29.5949 11.6666 27.8268C11.649 26.0588 12.3345 24.3562 13.5723 23.0936L16.3725 20.2373C16.6201 19.9848 16.9578 19.8409 17.3114 19.8374C17.665 19.8339 18.0055 19.971 18.258 20.2186C18.5105 20.4661 18.6544 20.8038 18.6579 21.1574C18.6614 21.5111 18.5243 21.8516 18.2767 22.1041L15.4765 24.9604C14.7339 25.718 14.3226 26.7396 14.3331 27.8004C14.3436 28.8612 14.7751 29.8744 15.5327 30.617C16.2902 31.3597 17.3118 31.771 18.3726 31.7605C19.4334 31.7499 20.4466 31.3184 21.1893 30.5609L23.9895 27.7045C24.237 27.452 24.5748 27.3082 24.9284 27.3046C25.282 27.3011 25.6225 27.4382 25.875 27.6858C26.1275 27.9333 26.2714 28.2711 26.2749 28.6247C26.2784 28.9783 26.1413 29.3188 25.8937 29.5713ZM32.4275 22.9065L29.6273 25.7628C29.3798 26.0153 29.0421 26.1592 28.6884 26.1627C28.3348 26.1662 27.9943 26.0291 27.7418 25.7815C27.4893 25.534 27.3455 25.1963 27.3419 24.8427C27.3384 24.4891 27.4755 24.1485 27.7231 23.896L30.5233 21.0397C31.266 20.2821 31.6773 19.2606 31.6667 18.1997C31.6562 17.1389 31.2247 16.1257 30.4671 15.3831C29.7096 14.6404 28.688 14.2291 27.6272 14.2396C26.5664 14.2502 25.5532 14.6817 24.8106 15.4392L22.0104 18.2956C21.7628 18.5481 21.4251 18.692 21.0715 18.6955C20.7179 18.699 20.3774 18.5619 20.1248 18.3143C19.8723 18.0668 19.7285 17.729 19.725 17.3754C19.7215 17.0218 19.8586 16.6813 20.1061 16.4288L22.9063 13.5724C24.1441 12.3098 25.8327 11.5907 27.6008 11.5731C29.3688 11.5556 31.0714 12.2411 32.334 13.4788C33.5965 14.7166 34.3157 16.4052 34.3333 18.1733C34.3508 19.9413 33.6653 21.6439 32.4275 22.9065Z" fill="#6A5ACD"/>
<path d="M26.7523 21.0771L21.1519 26.7898C20.9043 27.0423 20.5666 27.1862 20.213 27.1897C19.8594 27.1932 19.5188 27.0561 19.2663 26.8085C19.0138 26.561 18.87 26.2232 18.8665 25.8696C18.863 25.516 19.0001 25.1755 19.2476 24.923L24.848 19.2103C25.0956 18.9578 25.4333 18.8139 25.7869 18.8104C26.1405 18.8069 26.481 18.944 26.7336 19.1916C26.9861 19.4391 27.1299 19.7768 27.1334 20.1304C27.1369 20.484 26.9998 20.8246 26.7523 21.0771Z" fill="#B2B1FF"/>
</g>
<defs>
<clipPath id="clip0_975_293">
<rect width="32" height="32" fill="white" transform="translate(0.373657 23.2246) rotate(-45.5688)"/>
</clipPath>
</defs>
</svg>
