<svg width="20" height="20" viewBox="0 0 20 20" fill="none" xmlns="http://www.w3.org/2000/svg">
<circle cx="10" cy="10" r="5" fill="white"/>
<path fill-rule="evenodd" clip-rule="evenodd" d="M12.3932 2.4037C12.4333 2.45556 12.4683 2.5112 12.4976 2.56983L12.6158 2.80611C12.8704 3.31504 13.4367 3.58774 13.9934 3.46951L14.2518 3.41462C14.7986 3.2985 15.336 3.6476 15.4521 4.19437C15.4657 4.2585 15.4731 4.32379 15.4741 4.38934L15.4781 4.65351C15.4867 5.22253 15.8785 5.71392 16.4314 5.84893L16.688 5.91161C17.2311 6.04422 17.5638 6.59191 17.4311 7.13492C17.4156 7.1986 17.3939 7.26062 17.3663 7.32011L17.2553 7.55986C17.0162 8.07626 17.156 8.68901 17.5956 9.05051L17.7996 9.21835C18.2313 9.57343 18.2934 10.2112 17.9383 10.6429C17.8967 10.6936 17.8502 10.74 17.7996 10.7817L17.5956 10.9495C17.156 11.311 17.0162 11.9238 17.2553 12.4402L17.3663 12.6799C17.6012 13.1871 17.3805 13.7887 16.8732 14.0236C16.8137 14.0512 16.7517 14.0729 16.688 14.0884L16.4314 14.1511C15.8785 14.2861 15.4867 14.7775 15.4781 15.3465L15.4741 15.6107C15.4656 16.1696 15.0057 16.6158 14.4468 16.6074C14.3812 16.6064 14.3159 16.599 14.2518 16.5854L13.9934 16.5305C13.4367 16.4123 12.8704 16.685 12.6158 17.1939L12.4976 17.4302C12.2475 17.9301 11.6395 18.1326 11.1396 17.8824C11.081 17.8531 11.0253 17.8182 10.9735 17.7781L10.7644 17.6165C10.3142 17.2684 9.68568 17.2684 9.23543 17.6165L9.0264 17.7781C8.58416 18.1199 7.94852 18.0386 7.60666 17.5963C7.56657 17.5445 7.53161 17.4888 7.50228 17.4302L7.38406 17.1939C7.12941 16.685 6.56315 16.4123 6.00648 16.5305L5.74804 16.5854C5.20127 16.7015 4.66388 16.3524 4.54775 15.8056C4.53414 15.7415 4.52678 15.6762 4.52579 15.6107L4.52179 15.3465C4.51319 14.7775 4.12132 14.2861 3.56848 14.1511L3.31182 14.0884C2.76881 13.9558 2.43611 13.4081 2.56872 12.8651C2.58427 12.8014 2.60597 12.7394 2.63352 12.6799L2.74454 12.4402C2.98368 11.9238 2.84382 11.311 2.40431 10.9495L2.20026 10.7817C1.76856 10.4266 1.70645 9.78878 2.06152 9.35708C2.10317 9.30645 2.14963 9.25999 2.20026 9.21835L2.40431 9.05051C2.84382 8.68901 2.98368 8.07626 2.74454 7.55986L2.63352 7.32011C2.39863 6.81289 2.61941 6.21129 3.12663 5.97641C3.18611 5.94886 3.24813 5.92716 3.31182 5.91161L3.56848 5.84893C4.12132 5.71392 4.51319 5.22253 4.52179 4.65351L4.52579 4.38934C4.53424 3.83043 4.99417 3.3842 5.55308 3.39266C5.61862 3.39365 5.68392 3.401 5.74804 3.41462L6.00648 3.46951C6.56315 3.58774 7.12941 3.31504 7.38406 2.80611L7.50228 2.56983C7.75239 2.06994 8.36039 1.86746 8.86028 2.11757C8.9189 2.1469 8.97454 2.18186 9.0264 2.22195L9.23543 2.38354C9.68568 2.73159 10.3142 2.73159 10.7644 2.38354L10.9735 2.22195C11.4157 1.88009 12.0513 1.96146 12.3932 2.4037ZM13.3088 7.89463C13.0596 7.67168 12.681 7.67731 12.4385 7.90756L9.81039 10.4032C9.52373 10.6754 9.075 10.6784 8.78476 10.41L7.68431 9.39246C7.40921 9.13808 6.98154 9.14914 6.71996 9.41741C6.7076 9.43008 6.69579 9.44329 6.68456 9.45698C6.46824 9.7208 6.50674 10.11 6.77055 10.3263L8.55781 11.7918C9.0497 12.1952 9.76605 12.1648 10.222 11.7212L13.3257 8.70195C13.3348 8.69305 13.3437 8.68384 13.3522 8.67432C13.5555 8.44704 13.5361 8.09796 13.3088 7.89463Z" fill="#6A5ACD"/>
</svg>
