<svg width="24" height="24" viewBox="0 0 24 24" fill="none" xmlns="http://www.w3.org/2000/svg">
<g clip-path="url(#clip0_975_462)">
<path d="M10.7366 1.89473C10.7366 1.89473 10.7366 0.631569 11.9998 0.631569C13.2629 0.631569 13.2629 1.89473 13.2629 1.89473V3.15788C13.2629 3.15788 13.2629 4.42104 11.9998 4.42104C10.7366 4.42104 10.7366 3.15788 10.7366 3.15788V1.89473ZM22.105 10.7368C22.105 10.7368 23.3682 10.7368 23.3682 12C23.3682 13.2631 22.105 13.2631 22.105 13.2631H20.8419C20.8419 13.2631 19.5787 13.2631 19.5787 12C19.5787 10.7368 20.8419 10.7368 20.8419 10.7368H22.105ZM3.15766 10.7368C3.15766 10.7368 4.42082 10.7368 4.42082 12C4.42082 13.2631 3.15766 13.2631 3.15766 13.2631H1.89451C1.89451 13.2631 0.631348 13.2631 0.631348 12C0.631348 10.7368 1.89451 10.7368 1.89451 10.7368H3.15766ZM6.39198 5.23831C6.39198 5.23831 7.28503 6.13136 6.39198 7.02441C5.49893 7.91746 4.60587 7.02441 4.60587 7.02441L3.71219 6.13136C3.71219 6.13136 2.81914 5.23831 3.71219 4.34462C4.60587 3.45157 5.49893 4.34462 5.49893 4.34462L6.39198 5.23831ZM19.6551 18.5008C19.6551 18.5008 20.5482 19.3939 19.6551 20.2869C18.7621 21.18 17.869 20.2869 17.869 20.2869L16.976 19.3939C16.976 19.3939 16.0829 18.5008 16.976 17.6078C17.869 16.7147 18.7621 17.6078 18.7621 17.6078L19.6551 18.5008ZM19.3943 7.02378C19.3943 7.02378 18.5012 7.91683 17.6082 7.02378C16.7151 6.13073 17.6082 5.23767 17.6082 5.23767L18.5012 4.34462C18.5012 4.34462 19.3943 3.45157 20.2873 4.34462C21.1804 5.23767 20.2873 6.13073 20.2873 6.13073L19.3943 7.02378ZM6.13114 20.2869C6.13114 20.2869 5.23808 21.18 4.34503 20.2869C3.45198 19.3939 4.34503 18.5008 4.34503 18.5008L5.23808 17.6078C5.23808 17.6078 6.13114 16.7147 7.02419 17.6078C7.91724 18.5008 7.02419 19.3939 7.02419 19.3939L6.13114 20.2869ZM10.7366 20.8421C10.7366 20.8421 10.7366 19.5789 11.9998 19.5789C13.2629 19.5789 13.2629 20.8421 13.2629 20.8421V22.1053C13.2629 22.1053 13.2629 23.3684 11.9998 23.3684C10.7366 23.3684 10.7366 22.1053 10.7366 22.1053V20.8421ZM18.3156 12C18.3156 8.51178 15.4873 5.6842 11.9998 5.6842C8.51156 5.6842 5.68398 8.51178 5.68398 12C5.68398 15.4876 8.51156 18.3158 11.9998 18.3158C15.4873 18.3158 18.3156 15.4876 18.3156 12Z" fill="#53616E"/>
</g>
<defs>
<clipPath id="clip0_975_462">
<rect width="24" height="24" fill="white"/>
</clipPath>
</defs>
</svg>
