<svg width="36" height="36" viewBox="0 0 36 36" fill="none" xmlns="http://www.w3.org/2000/svg">
<path d="M18 16.875C16.9557 16.875 15.9542 17.2898 15.2158 18.0283C14.4773 18.7667 14.0625 19.7682 14.0625 20.8125V21.9375C14.0656 22.5689 14.2206 23.1904 14.5143 23.7494C14.808 24.3084 15.2318 24.7885 15.75 25.1494C16.4152 25.6204 17.2102 25.8733 18.0253 25.8733C18.8404 25.8733 19.6354 25.6204 20.3006 25.1494C20.8095 24.783 21.2235 24.3004 21.5082 23.7418C21.7929 23.1831 21.9401 22.5645 21.9375 21.9375V20.8125C21.9375 19.7682 21.5227 18.7667 20.7842 18.0283C20.0458 17.2898 19.0443 16.875 18 16.875ZM20.8125 21.9375C20.8125 22.6834 20.5162 23.3988 19.9887 23.9262C19.4613 24.4537 18.7459 24.75 18 24.75C17.2541 24.75 16.5387 24.4537 16.0113 23.9262C15.4838 23.3988 15.1875 22.6834 15.1875 21.9375V20.8125C15.1875 20.0666 15.4838 19.3512 16.0113 18.8238C16.5387 18.2963 17.2541 18 18 18C18.7459 18 19.4613 18.2963 19.9887 18.8238C20.5162 19.3512 20.8125 20.0666 20.8125 20.8125V21.9375Z" fill="#6A5ACD"/>
<path d="M25.2057 32.625L24.6769 30.1444C24.6443 29.9866 24.603 29.8307 24.5532 29.6775C24.4969 29.475 24.4294 29.2725 24.3563 29.0756C24.2832 28.8787 24.2157 28.7437 24.1369 28.5862C24.0596 28.4222 23.9733 28.2626 23.8782 28.1081C23.7837 27.9415 23.6804 27.78 23.5688 27.6244C23.4624 27.4739 23.3479 27.3293 23.2257 27.1913C22.5855 26.4277 21.786 25.8136 20.8833 25.3918C19.9805 24.9701 18.9965 24.751 18.0001 24.75C17.2326 24.7512 16.4711 24.8864 15.7501 25.1494C14.5994 25.5509 13.5789 26.2565 12.7969 27.1913C12.6788 27.3319 12.5663 27.4725 12.4594 27.6244C12.3526 27.7763 12.3526 27.7706 12.3076 27.8494C12.2626 27.9281 12.1951 28.0181 12.1444 28.1081C12.0657 28.2319 11.9982 28.3669 11.9307 28.4962C11.8632 28.6256 11.8801 28.5975 11.8576 28.6481C11.8351 28.6988 11.7451 28.89 11.6944 29.0138C11.6096 29.2271 11.5363 29.4449 11.4751 29.6663C11.4253 29.8195 11.384 29.9753 11.3513 30.1331L10.7944 32.625L10.6988 33.0694C10.6812 33.1515 10.6822 33.2365 10.7017 33.3183C10.7212 33.4 10.7588 33.4763 10.8117 33.5415C10.8645 33.6068 10.9314 33.6594 11.0072 33.6955C11.0831 33.7316 11.1661 33.7502 11.2501 33.75H24.7501C24.835 33.7519 24.9193 33.7345 24.9966 33.6992C25.0738 33.6639 25.1421 33.6115 25.1962 33.546C25.2504 33.4805 25.289 33.4036 25.3091 33.321C25.3293 33.2385 25.3304 33.1524 25.3126 33.0694L25.2057 32.625ZM11.9476 32.625L12.4257 30.375C12.5062 29.9885 12.6269 29.6115 12.7857 29.25C12.877 29.0551 12.9822 28.8671 13.1007 28.6875C13.1265 28.6345 13.1566 28.5837 13.1907 28.5356L13.3538 28.2994C13.8044 27.6646 14.3804 27.1289 15.0462 26.7255C15.712 26.3222 16.4535 26.0597 17.2248 25.9542C17.9961 25.8488 18.7808 25.9027 19.5305 26.1125C20.2801 26.3224 20.9788 26.6838 21.5832 27.1744C21.9881 27.4999 22.3476 27.8783 22.6519 28.2994C23.0954 28.9225 23.4091 29.6283 23.5744 30.375L24.0526 32.625H11.9476Z" fill="#6A5ACD"/>
<path opacity="0.5" d="M10.1249 19.6875C9.22981 19.6875 8.37136 20.0431 7.73843 20.676C7.10549 21.3089 6.74991 22.1674 6.74991 23.0625V24.1875C6.75034 24.7086 6.87143 25.2225 7.1037 25.689C7.33596 26.1555 7.67309 26.5619 8.08866 26.8762C7.29687 27.23 6.60158 27.7687 6.06126 28.447C5.52094 29.1254 5.15138 29.9235 4.98366 30.7744L4.60116 32.625L4.49991 33.075C4.48302 33.1577 4.48494 33.2431 4.50554 33.3249C4.52614 33.4067 4.56488 33.4829 4.6189 33.5477C4.67292 33.6125 4.74083 33.6644 4.81761 33.6994C4.89438 33.7344 4.97805 33.7517 5.06241 33.75H11.2499C11.3807 33.7529 11.5085 33.7101 11.6111 33.629C11.7138 33.5479 11.785 33.4336 11.8124 33.3056L11.9474 32.625L12.4255 30.375C12.5061 29.9885 12.6267 29.6115 12.7855 29.25C12.8768 29.0551 12.9821 28.8671 13.1005 28.6875C13.1263 28.6345 13.1564 28.5837 13.1905 28.5356C13.2412 28.4569 13.2918 28.3781 13.348 28.2994C13.4323 28.1812 13.4677 28.0351 13.4467 27.8914C13.4258 27.7478 13.3501 27.6179 13.2355 27.5287C13.0876 27.4155 12.9336 27.3103 12.7743 27.2138C12.5803 27.0916 12.3772 26.9844 12.1668 26.8931C12.5836 26.5764 12.921 26.1671 13.1524 25.6975C13.3838 25.2279 13.5028 24.711 13.4999 24.1875V23.0625C13.4999 22.1674 13.1443 21.3089 12.5114 20.676C11.8785 20.0431 11.02 19.6875 10.1249 19.6875ZM12.1162 28.125C12.0374 28.2487 11.9699 28.3837 11.9024 28.5131C11.8349 28.6425 11.8518 28.6144 11.8293 28.665C11.8068 28.7156 11.7168 28.9069 11.6662 29.0306C11.5813 29.244 11.5081 29.4618 11.4468 29.6831C11.397 29.8364 11.3557 29.9922 11.323 30.15L10.7943 32.625H5.73179L6.06366 30.9994C6.24106 30.0463 6.74212 29.1838 7.48211 28.5575C8.22211 27.9313 9.15566 27.5798 10.1249 27.5625C10.8289 27.5681 11.5184 27.7624 12.1218 28.125H12.1162ZM12.3749 24.1875C12.3751 24.6705 12.2199 25.1408 11.9322 25.5287C11.6446 25.9167 11.2397 26.2018 10.7774 26.3419C10.5657 26.4051 10.3459 26.4373 10.1249 26.4375C9.52818 26.4375 8.95588 26.2004 8.53392 25.7785C8.11197 25.3565 7.87491 24.7842 7.87491 24.1875V23.0625C7.87491 22.4658 8.11197 21.8935 8.53392 21.4715C8.95588 21.0496 9.52818 20.8125 10.1249 20.8125C10.7217 20.8125 11.2939 21.0496 11.7159 21.4715C12.1379 21.8935 12.3749 22.4658 12.3749 23.0625V24.1875ZM31.3987 32.625L31.0162 30.7744C30.7725 29.5604 30.1288 28.4632 29.188 27.6581C28.8049 27.3351 28.3766 27.0698 27.9168 26.8706C28.3306 26.5562 28.6662 26.1505 28.8974 25.6851C29.1286 25.2197 29.2493 24.7072 29.2499 24.1875V23.0625C29.2499 22.1674 28.8943 21.3089 28.2614 20.676C27.6285 20.0431 26.77 19.6875 25.8749 19.6875C24.9798 19.6875 24.1214 20.0431 23.4884 20.676C22.8555 21.3089 22.4999 22.1674 22.4999 23.0625V24.1875C22.5005 24.7072 22.6212 25.2197 22.8524 25.6851C23.0837 26.1505 23.4193 26.5562 23.833 26.8706C23.6227 26.9619 23.4196 27.0691 23.2255 27.1912C23.0662 27.2878 22.9122 27.393 22.7643 27.5063C22.6497 27.5954 22.5741 27.7253 22.5531 27.8689C22.5321 28.0126 22.5675 28.1587 22.6518 28.2769C23.0979 28.9067 23.4118 29.6205 23.5743 30.375L24.0524 32.625L24.1874 33.3056C24.2149 33.4336 24.286 33.5479 24.3887 33.629C24.4914 33.7101 24.6191 33.7529 24.7499 33.75H30.9374C31.0218 33.7517 31.1054 33.7344 31.1822 33.6994C31.259 33.6644 31.3269 33.6125 31.3809 33.5477C31.4349 33.4829 31.4737 33.4067 31.4943 33.3249C31.5149 33.2431 31.5168 33.1577 31.4999 33.075L31.3987 32.625ZM23.6249 24.1875V23.0625C23.6249 22.4658 23.862 21.8935 24.2839 21.4715C24.7059 21.0496 25.2782 20.8125 25.8749 20.8125C26.4716 20.8125 27.0439 21.0496 27.4659 21.4715C27.8879 21.8935 28.1249 22.4658 28.1249 23.0625V24.1875C28.1249 24.7842 27.8879 25.3565 27.4659 25.7785C27.0439 26.2004 26.4716 26.4375 25.8749 26.4375C25.2782 26.4375 24.7059 26.2004 24.2839 25.7785C23.862 25.3565 23.6249 24.7842 23.6249 24.1875ZM25.2055 32.625L24.6768 30.1444C24.6442 29.9866 24.6028 29.8307 24.553 29.6775C24.4968 29.475 24.4293 29.2725 24.3562 29.0756C24.283 28.8787 24.2155 28.7437 24.1368 28.5863C24.0595 28.4222 23.9731 28.2626 23.878 28.1081C24.4831 27.7514 25.1725 27.563 25.8749 27.5625C26.8239 27.5623 27.7416 27.9015 28.4624 28.5188C29.2096 29.1604 29.7205 30.0336 29.9137 30.9994L30.2455 32.625H25.2055Z" fill="#0F0B24"/>
<path d="M14.0626 33.75H13.9501C13.8755 33.7367 13.8044 33.7084 13.741 33.6668C13.6776 33.6253 13.6233 33.5714 13.5813 33.5084C13.5393 33.4453 13.5104 33.3745 13.4964 33.3C13.4825 33.2255 13.4837 33.149 13.5001 33.075L14.0626 30.2625C14.0924 30.1133 14.1803 29.9821 14.3069 29.8977C14.4334 29.8133 14.5884 29.7827 14.7376 29.8125C14.8867 29.8424 15.018 29.9302 15.1024 30.0568C15.1867 30.1834 15.2174 30.3383 15.1876 30.4875L14.6251 33.3C14.5988 33.429 14.5281 33.5447 14.4253 33.6269C14.3225 33.7091 14.1942 33.7527 14.0626 33.75ZM22.0051 33.75C21.8773 33.7541 21.752 33.7145 21.6498 33.6378C21.5475 33.5611 21.4744 33.4519 21.4426 33.3282L20.7451 30.5438C20.7094 30.3991 20.7326 30.2461 20.8096 30.1185C20.8865 29.9909 21.011 29.8991 21.1557 29.8632C21.2996 29.8273 21.4519 29.8497 21.5794 29.9256C21.7068 30.0014 21.7992 30.1246 21.8363 30.2682L22.5338 33.0525C22.5695 33.1972 22.5463 33.3502 22.4693 33.4778C22.3923 33.6054 22.2678 33.6973 22.1232 33.7332C22.0845 33.743 22.0449 33.7486 22.0051 33.75Z" fill="#6A5ACD"/>
<path opacity="0.5" d="M7.31251 33.75C7.26767 33.7554 7.22235 33.7554 7.17751 33.75C7.10254 33.7343 7.03158 33.7034 6.96896 33.6593C6.90635 33.6152 6.85341 33.5587 6.81338 33.4934C6.77335 33.4281 6.74709 33.3553 6.73619 33.2795C6.72529 33.2037 6.73 33.1264 6.75001 33.0525L7.31251 30.8025C7.35288 30.6628 7.44577 30.5441 7.57171 30.4715C7.69765 30.3988 7.84685 30.3777 7.988 30.4126C8.12916 30.4475 8.25131 30.5358 8.32882 30.6588C8.40633 30.7818 8.43319 30.9301 8.40376 31.0725L7.84126 33.3225C7.81185 33.4417 7.74426 33.548 7.64879 33.6252C7.55332 33.7024 7.43522 33.7462 7.31251 33.75ZM28.6875 33.75C28.559 33.7537 28.4331 33.7133 28.3308 33.6356C28.2284 33.5578 28.1558 33.4473 28.125 33.3225L27.5625 31.0725C27.5448 30.9986 27.5418 30.922 27.5537 30.8469C27.5656 30.7719 27.5921 30.7 27.6318 30.6352C27.6715 30.5704 27.7236 30.5141 27.785 30.4695C27.8465 30.4248 27.9161 30.3927 27.99 30.375C28.0639 30.3573 28.1405 30.3542 28.2155 30.3661C28.2906 30.378 28.3625 30.4046 28.4273 30.4443C28.4921 30.484 28.5484 30.536 28.593 30.5975C28.6377 30.659 28.6698 30.7286 28.6875 30.8025L29.25 33.0525C29.27 33.1264 29.2747 33.2037 29.2638 33.2795C29.2529 33.3553 29.2267 33.4281 29.1866 33.4934C29.1466 33.5587 29.0937 33.6152 29.0311 33.6593C28.9684 33.7034 28.8975 33.7343 28.8225 33.75C28.7777 33.7554 28.7323 33.7554 28.6875 33.75Z" fill="#6A5ACD"/>
<path d="M33.75 33.1875C33.75 33.3367 33.6907 33.4798 33.5852 33.5852C33.4798 33.6907 33.3367 33.75 33.1875 33.75H2.8125C2.66332 33.75 2.52024 33.6907 2.41475 33.5852C2.30926 33.4798 2.25 33.3367 2.25 33.1875C2.25 33.0383 2.30926 32.8952 2.41475 32.7898C2.52024 32.6843 2.66332 32.625 2.8125 32.625H33.1875C33.3367 32.625 33.4798 32.6843 33.5852 32.7898C33.6907 32.8952 33.75 33.0383 33.75 33.1875Z" fill="#6A5ACD"/>
<path opacity="0.5" d="M29.8125 2.25H6.1875C5.14321 2.25 4.14169 2.66484 3.40327 3.40327C2.66484 4.14169 2.25 5.14321 2.25 6.1875V9.5625C2.25 10.6068 2.66484 11.6083 3.40327 12.3467C4.14169 13.0852 5.14321 13.5 6.1875 13.5H8.08875L9.62438 16.5656C9.67158 16.6578 9.7433 16.7351 9.83163 16.7891C9.91996 16.8431 10.0215 16.8716 10.125 16.8716C10.2285 16.8716 10.33 16.8431 10.4184 16.7891C10.5067 16.7351 10.5784 16.6578 10.6256 16.5656L12.1613 13.5H16.5262L17.4994 15.4406C17.5466 15.5328 17.6183 15.6101 17.7066 15.6641C17.795 15.7181 17.8965 15.7466 18 15.7466C18.1035 15.7466 18.205 15.7181 18.2934 15.6641C18.3817 15.6101 18.4534 15.5328 18.5006 15.4406L19.4737 13.5H23.8388L25.3744 16.5656C25.4216 16.6578 25.4933 16.7351 25.5816 16.7891C25.67 16.8431 25.7715 16.8716 25.875 16.8716C25.9785 16.8716 26.08 16.8431 26.1684 16.7891C26.2567 16.7351 26.3284 16.6578 26.3756 16.5656L27.9112 13.5H29.8125C30.8568 13.5 31.8583 13.0852 32.5967 12.3467C33.3352 11.6083 33.75 10.6068 33.75 9.5625V6.1875C33.75 5.14321 33.3352 4.14169 32.5967 3.40327C31.8583 2.66484 30.8568 2.25 29.8125 2.25ZM32.625 9.5625C32.625 10.3084 32.3287 11.0238 31.8012 11.5512C31.2738 12.0787 30.5584 12.375 29.8125 12.375H27.5625C27.4586 12.3753 27.3569 12.4044 27.2685 12.459C27.1801 12.5136 27.1086 12.5916 27.0619 12.6844L25.875 15.0525L24.6881 12.6844C24.6414 12.5916 24.5699 12.5136 24.4815 12.459C24.3931 12.4044 24.2914 12.3753 24.1875 12.375H19.125C19.0211 12.3753 18.9194 12.4044 18.831 12.459C18.7426 12.5136 18.6711 12.5916 18.6244 12.6844L18 13.9275L17.3756 12.6844C17.3289 12.5916 17.2574 12.5136 17.169 12.459C17.0806 12.4044 16.9789 12.3753 16.875 12.375H11.8125C11.7086 12.3753 11.6069 12.4044 11.5185 12.459C11.4301 12.5136 11.3586 12.5916 11.3119 12.6844L10.125 15.0525L8.93813 12.6844C8.89138 12.5916 8.81986 12.5136 8.7315 12.459C8.64313 12.4044 8.54138 12.3753 8.4375 12.375H6.1875C5.44158 12.375 4.72621 12.0787 4.19876 11.5512C3.67132 11.0238 3.375 10.3084 3.375 9.5625V6.1875C3.375 5.44158 3.67132 4.72621 4.19876 4.19876C4.72621 3.67132 5.44158 3.375 6.1875 3.375H29.8125C30.5584 3.375 31.2738 3.67132 31.8012 4.19876C32.3287 4.72621 32.625 5.44158 32.625 6.1875V9.5625Z" fill="#0F0B24"/>
<path d="M10.0857 5.47314L10.8282 6.81752L12.3357 7.11002L11.2894 8.23502L11.4751 9.75377L10.0857 9.10689L8.69632 9.75377L8.88194 8.23502L7.83569 7.11002L9.33757 6.81752L10.0857 5.47314Z" fill="#C3CB23"/>
<path d="M20.0025 8.12252C20.2158 7.90918 20.3357 7.61984 20.3357 7.31814C20.3357 7.01644 20.2158 6.7271 20.0025 6.51377C19.7892 6.30043 19.4998 6.18058 19.1981 6.18058C18.8964 6.18058 18.6071 6.30043 18.3938 6.51377L18 6.91314L17.595 6.51377C17.4929 6.40066 17.3688 6.30948 17.2304 6.24576C17.092 6.18204 16.942 6.14711 16.7897 6.14309C16.6373 6.13907 16.4858 6.16605 16.3442 6.22238C16.2026 6.27871 16.0739 6.36323 15.9659 6.4708C15.858 6.57837 15.773 6.70675 15.7162 6.84815C15.6593 6.98955 15.6318 7.14103 15.6353 7.29338C15.6388 7.44574 15.6732 7.5958 15.7364 7.73446C15.7996 7.87312 15.8904 7.99749 16.0031 8.10002L18 10.125L20.0025 8.12252Z" fill="#C3CB23"/>
<path d="M25.8357 6.03564L26.5782 7.38002L28.0857 7.67252L27.0394 8.79752L27.2251 10.3163L25.8357 9.66939L24.4407 10.3163L24.6263 8.79752L23.5857 7.67252L25.0876 7.38002L25.8357 6.03564Z" fill="#C3CB23"/>
</svg>
