<svg width="24" height="24" viewBox="0 0 24 24" fill="none" xmlns="http://www.w3.org/2000/svg">
<path d="M20.625 20.625H3.375C2.97718 20.625 2.59564 20.467 2.31434 20.1857C2.03304 19.9044 1.875 19.5228 1.875 19.125V7.875C1.875 7.47718 2.03304 7.09564 2.31434 6.81434C2.59564 6.53304 2.97718 6.375 3.375 6.375H20.625C21.0228 6.375 21.4044 6.53304 21.6857 6.81434C21.967 7.09564 22.125 7.47718 22.125 7.875V19.125C22.125 19.5228 21.967 19.9044 21.6857 20.1857C21.4044 20.467 21.0228 20.625 20.625 20.625Z" fill="#53616E"/>
<path d="M20.625 6.375H3.375C2.97718 6.375 2.59564 6.53304 2.31434 6.81434C2.03304 7.09564 1.875 7.47718 1.875 7.875V10.875L10.5 13.4302V12.375H13.5V13.4302L22.125 10.875V7.875C22.125 7.47718 21.967 7.09564 21.6857 6.81434C21.4044 6.53304 21.0228 6.375 20.625 6.375Z" fill="#CFDADD"/>
<path d="M10.5 12.375H13.5V16.125H10.5V12.375Z" fill="#EADDED"/>
<path d="M20.625 21H3.375C2.8779 20.9994 2.40133 20.8017 2.04983 20.4502C1.69833 20.0987 1.5006 19.6221 1.5 19.125V7.875C1.5 6.8415 2.3415 6 3.375 6H20.625C21.6585 6 22.5 6.8415 22.5 7.875V19.125C22.5 20.1585 21.6585 21 20.625 21ZM3.375 6.75C2.75475 6.75 2.25 7.25475 2.25 7.875V19.125C2.25 19.7452 2.75475 20.25 3.375 20.25H20.625C21.2453 20.25 21.75 19.7452 21.75 19.125V7.875C21.75 7.25475 21.2453 6.75 20.625 6.75H3.375Z" fill="#53616E"/>
<path d="M13.5 16.5H10.5C10.4006 16.5 10.3052 16.4605 10.2349 16.3902C10.1645 16.3198 10.125 16.2245 10.125 16.125V12.375C10.125 12.2755 10.1645 12.1802 10.2349 12.1098C10.3052 12.0395 10.4006 12 10.5 12H13.5C13.5995 12 13.6949 12.0395 13.7652 12.1098C13.8355 12.1802 13.875 12.2755 13.875 12.375V16.125C13.875 16.2245 13.8355 16.3198 13.7652 16.3902C13.6949 16.4605 13.5995 16.5 13.5 16.5ZM10.875 15.75H13.125V12.75H10.875V15.75ZM16.5 6.75H7.50002C7.44306 6.74999 7.38685 6.73699 7.33566 6.71201C7.28446 6.68703 7.23964 6.65071 7.20458 6.60582C7.16952 6.56093 7.14514 6.50864 7.13331 6.45292C7.12147 6.3972 7.12248 6.33952 7.13627 6.28425L7.60202 4.4205C7.70305 4.01451 7.93712 3.65405 8.26689 3.39659C8.59666 3.13913 9.00315 2.99951 9.42152 3H14.5793C15.441 3 16.1895 3.58425 16.398 4.4205L16.8638 6.28425C16.878 6.33955 16.8794 6.39739 16.8677 6.4533C16.8561 6.50921 16.8317 6.56169 16.7966 6.6067C16.7614 6.65171 16.7164 6.68804 16.665 6.71288C16.6136 6.73773 16.5571 6.75043 16.5 6.75ZM7.98002 6H16.02L15.6705 4.602C15.6099 4.3584 15.4693 4.14214 15.2714 3.98771C15.0735 3.83329 14.8296 3.7496 14.5785 3.75H9.42077C9.16979 3.74986 8.92598 3.83365 8.72811 3.98803C8.53024 4.14241 8.38967 4.35853 8.32877 4.602L7.98002 6Z" fill="#53616E"/>
<path d="M13.5 13.8052C13.4006 13.8051 13.3053 13.7655 13.2351 13.6952C13.1648 13.6249 13.1252 13.5296 13.125 13.4302V12.75H10.875V13.4302C10.8751 13.4886 10.8615 13.5462 10.8354 13.5984C10.8093 13.6507 10.7713 13.6961 10.7246 13.731C10.6778 13.766 10.6235 13.7895 10.566 13.7998C10.5086 13.8101 10.4495 13.8068 10.3935 13.7902L1.7685 11.235C1.69101 11.2118 1.62306 11.1643 1.5747 11.0994C1.52634 11.0346 1.50015 10.9559 1.5 10.875V7.875C1.5 6.8415 2.3415 6 3.375 6H20.625C21.6585 6 22.5 6.8415 22.5 7.875V10.875C22.4999 10.9558 22.4738 11.0345 22.4254 11.0992C22.377 11.1639 22.309 11.2113 22.2315 11.2343L13.6065 13.7895C13.5719 13.7999 13.5361 13.8052 13.5 13.8052ZM10.5 12H13.5C13.5995 12 13.6948 12.0395 13.7652 12.1098C13.8355 12.1802 13.875 12.2755 13.875 12.375V12.9285L21.75 10.5945V7.875C21.75 7.25475 21.2453 6.75 20.625 6.75H3.375C2.75475 6.75 2.25 7.25475 2.25 7.875V10.5945L10.125 12.9277V12.375C10.125 12.2755 10.1645 12.1802 10.2348 12.1098C10.3052 12.0395 10.4005 12 10.5 12ZM12 16.5C11.9005 16.5 11.8052 16.4605 11.7348 16.3902C11.6645 16.3198 11.625 16.2245 11.625 16.125V15.375C11.625 15.2755 11.6645 15.1802 11.7348 15.1098C11.8052 15.0395 11.9005 15 12 15C12.0995 15 12.1948 15.0395 12.2652 15.1098C12.3355 15.1802 12.375 15.2755 12.375 15.375V16.125C12.375 16.2245 12.3355 16.3198 12.2652 16.3902C12.1948 16.4605 12.0995 16.5 12 16.5Z" fill="#53616E"/>
<path d="M13.5 14.25H10.5C10.4005 14.25 10.3052 14.2105 10.2348 14.1402C10.1645 14.0698 10.125 13.9745 10.125 13.875C10.125 13.7755 10.1645 13.6802 10.2348 13.6098C10.3052 13.5395 10.4005 13.5 10.5 13.5H13.5C13.5995 13.5 13.6948 13.5395 13.7652 13.6098C13.8355 13.6802 13.875 13.7755 13.875 13.875C13.875 13.9745 13.8355 14.0698 13.7652 14.1402C13.6948 14.2105 13.5995 14.25 13.5 14.25Z" fill="#53616E"/>
</svg>
