<svg width="24" height="24" viewBox="0 0 24 24" fill="none" xmlns="http://www.w3.org/2000/svg">
<path d="M21.5028 5.95325L15.4772 11.9553L21.5193 17.9972C21.5693 17.8656 21.6 17.7246 21.6 17.576V6.424C21.6 6.25706 21.5651 6.09805 21.5028 5.95325Z" fill="#53616E"/>
<path d="M20.824 5.304L12 14.096L3.17603 5.304C3.30803 5.25601 3.45203 5.224 3.60002 5.224H20.4C20.548 5.224 20.692 5.25601 20.824 5.304Z" fill="#53616E"/>
<path d="M2.49731 5.95325C2.43501 6.09805 2.40002 6.25706 2.40002 6.424V17.576C2.40002 17.7232 2.43052 17.8629 2.47961 17.9936L8.52251 11.9549L2.49731 5.95325ZM12.3323 15.0879C12.2405 15.1793 12.1202 15.225 12 15.225C11.8798 15.225 11.7596 15.1793 11.6678 15.0879L9.22349 12.6531L3.17751 18.6949C3.3095 18.7451 3.45095 18.776 3.60002 18.776H20.4C20.5481 18.776 20.6886 18.7454 20.8198 18.6957L14.7768 12.6529L12.3323 15.0879Z" fill="#53616E"/>
</svg>
