<svg width="32" height="32" viewBox="0 0 32 32" fill="none" xmlns="http://www.w3.org/2000/svg">
<g clip-path="url(#clip0_397_139)">
<mask id="mask0_397_139" style="mask-type:luminance" maskUnits="userSpaceOnUse" x="0" y="0" width="32" height="32">
<path d="M0 0H32V32H0V0Z" fill="white"/>
</mask>
<g mask="url(#mask0_397_139)">
<path d="M31.1578 15.9999C31.1578 24.3713 24.3713 31.1578 15.9999 31.1578C7.62857 31.1578 0.842041 24.3713 0.842041 15.9999C0.842041 7.62857 7.62857 0.842047 15.9999 0.842047C24.3713 0.842047 31.1578 7.62857 31.1578 15.9999Z" fill="#88C9F9"/>
</g>
<mask id="mask1_397_139" style="mask-type:luminance" maskUnits="userSpaceOnUse" x="0" y="0" width="32" height="32">
<path d="M0.842041 15.9999C0.842041 24.3713 7.62857 31.1578 15.9999 31.1578C24.3713 31.1578 31.1578 24.3713 31.1578 15.9999C31.1578 7.62857 24.3713 0.842047 15.9999 0.842047C7.62857 0.842047 0.842041 7.62857 0.842041 15.9999Z" fill="white"/>
</mask>
<g mask="url(#mask1_397_139)">
<path d="M7.31616 2.42097C9.27406 2.78813 10.2113 2.42097 10.9473 2.68371C11.6842 2.94729 11.0004 3.31529 11.5267 3.63108C12.053 3.94687 12.2105 3.89466 12.6315 3.73634C13.0526 3.57887 13.3684 2.98771 13.6842 3.21003C14 3.43319 15.1056 3.23445 15.3692 3.63108C15.632 4.02855 16.0008 4.34013 16.5793 4.05213C17.1587 3.76498 19.3692 3.4955 19.9477 3.8534C20.5271 4.21045 22 4.27445 22.5793 4.36876C23.1578 4.46224 24.6315 4.51192 24.421 4.75613C24.2105 5.00034 25.0004 4.84203 24.5793 5.4214C24.1583 5.99992 22.5263 7.21003 22.3688 7.05256C22.2105 6.89424 22.053 6.1574 21.5267 6.21045C21.0004 6.26266 20.2635 6.10519 20.2113 6.73676C20.1583 7.36834 19.3692 8.1574 19.9477 8.1574C20.5271 8.1574 21.1056 7.57887 21.2631 8.1574C21.4214 8.73676 21.3162 9.05255 21.1578 9.36834C21.0004 9.68413 21.3684 9.68413 20.5271 9.89466C19.685 10.1052 20.053 9.4214 19.685 10.1052C19.3162 10.7898 18.4741 11.0003 18.6846 11.5789C18.8951 12.1582 19.0534 12.474 19.1056 12.9473C19.1587 13.4214 18.5793 13.9999 18.2635 14.421C17.9477 14.842 17.5797 15.2631 17.1056 15.3683C16.6324 15.4736 16.2635 15.5789 16.0008 16.2627C15.7372 16.9473 16.288 17.9469 15.5124 17.8416C14.7376 17.7363 14.3166 17.2631 14.2635 16.8942C14.2113 16.5262 13.4214 15.7894 13.3684 15.5789C13.3162 15.3683 12.3157 14.6315 12.3157 14.6315C12.3157 14.6315 11.6842 15.2631 11.6842 15.9999C11.6842 16.7368 11.8947 17.6311 11.8947 17.6311C11.8947 17.6311 11.632 17.9999 11.1056 17.5789C10.5793 17.1578 10.0008 17.0526 9.73722 16.4732C9.47448 15.8947 9.15869 14.8951 9.15869 14.5262C9.15869 14.1582 8.52627 13.3683 8.26353 13.3683C7.99995 13.3683 6.68459 13.5267 6.57932 13.7372C6.47406 13.9477 6.15827 14.3157 5.89553 14.5793C5.63195 14.842 4.89511 15.7894 4.63153 15.6319C4.3688 15.4736 3.31616 14.8951 3.31616 14.3688C3.31616 13.8425 2.57932 14.1582 2.52711 13.3161C2.47406 12.474 2.10606 11.7372 2.0008 12.5262C1.89553 13.3161 1.94774 13.5789 2.26353 14.5262C2.57932 15.4736 2.78985 15.7894 3.26395 15.9999C3.73722 16.2105 3.47448 16.5785 4.26353 16.4732C5.05259 16.3679 5.52669 16.1052 5.5789 16.421C5.63195 16.7368 6.05301 17.3304 5.26311 17.8492C4.47406 18.3679 4.57932 18.421 4.10522 18.8942C3.63195 19.3683 3.15869 19.21 3.15869 20.2104C3.15869 21.21 3.15869 21.3683 3.2109 22.2104C3.26395 23.0526 3.36922 23.8416 2.63237 24.2627C1.89553 24.6837 -0.526362 21.7363 -0.736888 20.0521C-0.947415 18.3679 -1.84173 12.7368 -1.52594 11.4214C-1.21015 10.1052 0.474059 6.05213 1.15869 5.26308C1.84248 4.47403 5.63195 2.10519 7.31616 2.42097ZM14.2635 18.789C14.2635 19.3675 13.8425 19.9991 14.2635 20.5784C14.6846 21.1578 15.0526 21.1578 15.4214 21.21C15.7894 21.2631 16.8429 21.21 16.0008 20.5262C15.1578 19.8416 14.6846 20.3679 14.7898 19.578C14.8951 18.789 14.2635 18.789 14.2635 18.789Z" fill="#6A5ACD"/>
<path d="M20.1583 10.3679C20.1583 10.9464 19.7373 11.578 20.1583 12.1574C20.5794 12.7367 19.3162 13.21 19.6851 13.2631C20.0531 13.3153 21.632 13.1047 20.7899 12.4209C19.9478 11.7363 20.5794 11.9468 20.6846 11.1569C20.7899 10.3679 20.1583 10.3679 20.1583 10.3679ZM16.3183 19.5788C16.6863 18.8833 17.1048 18.8951 17.5259 19.2108C17.9469 19.5266 19.2101 20.1052 18.5263 20.3679C17.8417 20.6315 18.0438 21.21 17.5217 20.6315C16.9996 20.0521 15.8998 20.3679 16.3183 19.5788ZM19.632 20.0075C19.9175 20.1548 20.3688 20.6315 21.0004 20.5793C21.632 20.5262 21.5798 21.2403 22.2114 21.2252C22.8429 21.2108 23.4215 21.3683 23.6842 21.6841C23.9478 21.9999 25.1023 22.474 24.4463 22.5262C23.7895 22.5793 23.5267 22.1052 22.8429 21.8946C22.1583 21.6841 22.1061 22.2635 21.3693 21.8424C20.6316 21.4214 19.8425 22.0294 19.632 21.2252C19.4215 20.4209 19.0114 19.6875 19.632 20.0075ZM14.0758 23.9999C14.5592 23.53 14.8943 23.2108 15.6312 22.842C16.368 22.474 17.6312 21.9468 17.9469 21.8946C18.2627 21.8416 18.6316 21.6967 18.8421 22.1136C19.0526 22.5304 19.3154 22.6845 19.7364 22.5304C20.1575 22.3755 20.6518 22.4664 20.9676 22.7325C21.2834 22.9995 22.0522 23.4736 22.3158 23.9999C22.5785 24.5262 23.1048 24.4209 22.9474 25.0525C22.7891 25.6841 22.9996 26.6845 22.4211 27.2108C21.8417 27.7363 21.4737 28.3679 20.8421 28.6837C20.2105 28.9995 18.5432 28.2104 18.5432 27.7363C18.5432 27.263 17.9368 26.8732 17.4754 26.4521C17.0131 26.031 16.7394 26.1052 16.3183 26.4209C15.8973 26.7367 16.0522 27.0525 15.5259 27.1578C14.9996 27.263 13.5983 28.3679 13.6514 27.5258C13.7036 26.6845 14.4152 25.21 14.0758 24.7367C13.7364 24.2626 13.3196 24.7359 14.0758 23.9999Z" fill="#6A5ACD"/>
</g>
</g>
<defs>
<clipPath id="clip0_397_139">
<rect width="32" height="32" fill="white"/>
</clipPath>
</defs>
</svg>
