<svg width="550" height="550" viewBox="0 0 550 550" fill="none" xmlns="http://www.w3.org/2000/svg">
<g clip-path="url(#clip0_11_70)">
<path d="M483.735 299.205C483.389 301.548 483.099 303.004 483.027 303.35C476.142 335.806 453.76 363.265 423.765 384.425C423.25 384.786 422.731 385.148 422.212 385.509C421.616 385.922 421.015 386.334 420.414 386.732C416.126 389.644 411.699 392.427 407.132 395.078C406.98 395.17 406.822 395.256 406.669 395.343C405.712 395.903 404.754 396.448 403.787 396.983C401.688 398.171 399.567 399.322 397.421 400.436C393.255 402.625 389.008 404.705 384.679 406.674C383.569 407.183 382.454 407.688 381.333 408.176C366.197 414.828 350.526 420.187 334.487 424.198C329.2 425.527 323.908 426.703 318.608 427.727C304.885 430.415 290.975 432.04 277.001 432.585C265.881 432.967 254.747 432.681 243.66 431.73C239.067 431.343 234.427 430.847 229.742 430.243C220.774 429.087 211.694 427.518 202.665 425.517C201.779 425.323 200.898 425.119 200.012 424.916C198.937 424.666 197.868 424.412 196.793 424.152C191.456 422.853 186.16 421.398 180.904 419.788C179.784 419.451 178.669 419.1 177.558 418.744C177.365 418.682 177.176 418.621 176.988 418.56C176.642 418.443 176.29 418.331 175.939 418.214C169.344 416.05 162.861 413.631 156.577 410.947C156.205 410.789 155.838 410.631 155.467 410.468C153.74 409.725 152.031 408.959 150.338 408.171C145.19 405.778 140.208 403.199 135.392 400.436C132.25 398.633 129.196 396.745 126.23 394.773C125.68 394.411 125.13 394.044 124.585 393.673C122.777 392.435 121.005 391.172 119.269 389.869C117.374 388.458 115.527 387.005 113.728 385.509C98.3227 372.732 86.569 357.149 80.6514 338.53C80.1319 336.885 79.6481 335.215 79.2153 333.509C76.2024 321.415 75.2605 308.899 76.4296 296.491C78.4361 274.486 86.9255 252.995 102.789 239.719C116.101 228.571 133.772 223.901 150.338 222.338C150.445 222.322 150.557 222.317 150.669 222.307C172.145 220.326 191.69 223.544 197.338 224.578C216.995 228.189 234.809 235.97 264.372 232.645C266.745 232.375 274.888 231.397 289.733 227.318C290.054 227.231 290.38 227.14 290.711 227.048C292.142 226.651 293.537 226.25 294.897 225.846C337.023 213.436 346.811 199.782 371.713 193.452C373.44 193.009 375.232 192.612 377.071 192.25C379.811 191.721 382.662 191.278 385.601 190.947C409.862 188.212 439.817 192.811 460.106 211.592C479.982 229.992 484.779 256.606 485.151 276.451C485.297 284.062 484.824 291.672 483.735 299.205Z" fill="#E6EDFA"/>
<path d="M422.212 385.509C392.416 406.13 355.374 420.617 318.61 427.73C304.886 430.414 290.975 432.038 277.001 432.586C265.88 432.965 254.746 432.68 243.658 431.732C227.864 430.414 212.196 427.879 196.792 424.15C190.121 422.527 183.5 420.666 176.99 418.56C176.641 418.446 176.289 418.334 175.939 418.216C169.342 416.05 162.863 413.63 156.577 410.948C156.206 410.79 155.837 410.632 155.469 410.471C153.742 409.726 152.032 408.959 150.337 408.171C136.865 401.907 124.416 394.385 113.726 385.509L422.212 385.509Z" fill="#D8DFF3"/>
<path d="M483.737 299.205C483.391 301.548 483.099 303.005 483.024 303.349C469.246 368.33 393.348 413.27 318.609 427.729C318.609 427.475 318.601 427.214 318.576 426.957C318.412 425.214 317.6 423.604 317.209 421.896C315.668 415.204 320.844 408.71 326.712 405.142C332.581 401.573 339.434 399.677 344.855 395.459C342.045 393.315 344.266 388.839 346.8 386.377C352.844 380.521 360.066 376.02 367.986 373.174C366.713 363.23 377.625 353.863 387.258 356.624C387.321 354.187 388.248 351.853 389.875 350.038C391.501 348.223 393.72 347.046 396.135 346.717C398.55 346.389 401.003 346.93 403.055 348.245C405.107 349.559 406.625 351.561 407.336 353.892C407.747 350.405 408.725 347.008 410.233 343.836C411.551 341.064 415.676 341.277 416.645 344.188C416.65 344.208 416.656 344.228 416.664 344.248C419.859 337.817 429.904 336.325 434.832 341.548C433.113 335.148 440.823 328.469 446.913 331.083C443.993 326.794 443.202 320.803 445.958 316.404C448.713 312.006 455.411 310.258 459.419 313.552C456.571 308.696 460.159 301.449 465.749 300.77C468.601 300.424 471.435 301.523 474.307 301.597C475.794 301.63 477.259 301.237 478.529 300.463C480.077 299.476 481.91 299.033 483.737 299.205ZM385.47 216.469C385.47 229.08 367.55 239.332 345.289 239.564C345.03 239.57 344.773 239.57 344.514 239.57C342.923 239.57 341.356 239.515 339.816 239.417C335.784 243.331 330.526 245.736 324.928 246.228C319.331 246.72 313.734 245.267 309.082 242.116C308.961 242.037 308.847 241.955 308.73 241.874C308.757 242.04 308.781 242.209 308.801 242.378V242.381C308.863 242.894 308.894 243.411 308.894 243.928C308.894 249.862 304.927 255.272 298.406 259.362C297.797 259.747 297.164 260.115 296.513 260.472C291.495 263.231 285.228 265.269 278.238 266.286V266.289C277.499 266.395 276.758 266.49 276.017 266.573C275.403 266.644 274.787 266.704 274.17 266.758H274.167C268.485 267.248 262.764 267.065 257.124 266.213C257.124 266.21 257.124 266.21 257.121 266.21C256.96 266.185 256.802 266.159 256.641 266.133C249.667 265.007 243.451 262.865 238.536 260.006C233.508 257.084 229.838 253.411 228.106 249.317C227.437 249.341 226.769 249.36 226.092 249.36C225.495 249.36 224.9 249.349 224.31 249.327C221.868 249.245 219.437 248.976 217.036 248.523C216.558 248.433 216.087 248.334 215.62 248.228H215.617C211.542 247.364 207.646 245.808 204.098 243.625C203.259 244.339 202.382 245.006 201.471 245.625C200.223 246.472 198.923 247.242 197.581 247.93C197.123 248.168 196.653 248.399 196.173 248.62C195.581 248.901 194.972 249.169 194.353 249.426H194.348C193.303 249.864 192.225 250.268 191.106 250.645C184.776 252.707 178.156 253.736 171.5 253.695H171.265C165.7 253.663 160.375 251.428 156.455 247.479C152.534 243.53 150.337 238.189 150.344 232.625V222.337C150.454 222.324 150.565 222.316 150.675 222.307C172.152 220.326 191.697 223.543 197.345 224.58C217.002 228.187 234.815 235.968 264.378 232.642C266.753 232.375 274.894 231.395 289.739 227.317C290.061 227.229 290.386 227.139 290.716 227.047C292.146 226.648 293.542 226.248 294.904 225.846C337.026 213.435 346.818 199.782 371.716 193.45C373.448 193.011 375.234 192.611 377.075 192.25C377.235 195.38 376.735 198.509 375.61 201.433C381.202 205.108 384.779 209.782 385.382 214.919C385.443 215.434 385.472 215.951 385.47 216.469Z" fill="#CAD4EF"/>
<path d="M322.613 225.846C322.613 225.846 322.605 225.874 322.591 225.928C322.471 226.336 321.903 228.261 320.847 231.366C320.103 233.551 319.116 236.323 317.865 239.565C317.188 241.325 316.433 243.216 315.598 245.24C310.182 258.372 303.711 271.043 296.246 283.129C295.946 283.615 295.641 284.102 295.33 284.591C292.686 288.782 289.83 293.016 286.752 297.234C286.752 297.236 286.751 297.238 286.751 297.24C286.75 297.242 286.748 297.244 286.747 297.245C286.551 297.515 286.351 297.785 286.152 298.053C285.918 298.372 285.68 298.694 285.439 299.013C285.139 299.416 284.837 299.819 284.533 300.222C284.533 300.222 284.533 300.222 284.528 300.227C278.041 308.859 270.811 316.907 262.922 324.28C245.295 340.651 229.884 359.256 217.081 379.623C217.081 379.623 217.081 379.623 217.081 379.628C216.776 380.114 216.475 380.6 216.178 381.08C212.87 386.455 209.975 391.62 207.49 396.458V396.463C207.323 396.783 207.162 397.099 207.004 397.413C201.383 408.515 197.981 417.867 196.795 424.149C190.123 422.526 183.503 420.665 176.993 418.559C176.643 418.445 176.291 418.333 175.942 418.215C169.345 416.049 162.865 413.629 156.579 410.947C156.208 410.789 155.84 410.631 155.471 410.47C153.745 409.725 152.034 408.958 150.339 408.17V363.975C164.069 344.227 184.244 321.852 213.793 299.91C215.642 298.538 217.025 296.631 217.755 294.448C218.484 292.264 218.525 289.909 217.872 287.701C217.866 287.679 217.858 287.655 217.853 287.633C217.001 284.765 215.948 281.398 214.778 278.084C214.118 276.217 213.31 274.407 212.361 272.67C212.361 272.668 212.361 272.666 212.361 272.664C212.225 272.405 212.08 272.148 211.932 271.895C211.785 271.641 211.641 271.385 211.488 271.136C211.488 271.136 211.488 271.136 211.488 271.131C209.32 267.547 206.572 264.35 203.354 261.669C199.86 258.755 195.437 254.896 191.127 250.663L191.107 250.644C189.445 249.015 187.801 247.334 186.232 245.624C184.537 243.807 182.931 241.913 181.413 239.944C180.868 239.24 180.335 238.526 179.815 237.802C177.452 234.457 175.736 231.221 175.125 228.346C178.948 228.769 182.803 227.889 186.062 225.846L191.279 232.283L195.506 237.499L197.763 240.282C198.014 240.603 198.358 240.839 198.748 240.956C199.138 241.074 199.556 241.068 199.942 240.939C200.287 240.817 200.589 240.6 200.815 240.313C201.04 240.025 201.179 239.68 201.215 239.316L201.623 235.216L201.768 233.759L201.997 231.472C202.983 232.261 204.086 232.892 205.265 233.344C207.517 234.244 209.923 234.694 212.348 234.668C212.612 234.668 212.882 234.662 213.158 234.651C213.18 234.651 213.202 234.651 213.223 234.651H213.229C214.816 234.58 216.392 234.352 217.935 233.972C218.795 236.962 219.817 239.903 220.996 242.782C221.902 245.058 223.012 247.248 224.311 249.325C225.025 250.497 225.933 251.539 226.996 252.408C228.426 253.48 230.472 256.088 232.663 259.266L232.662 259.268L232.663 259.269C232.93 259.657 233.199 260.052 233.468 260.456C234.701 262.289 235.963 264.262 237.167 266.211C239.115 269.351 240.921 272.42 242.256 274.726C242.481 275.116 242.782 275.458 243.14 275.733C243.498 276.007 243.906 276.208 244.342 276.325C244.778 276.442 245.232 276.471 245.679 276.412C246.126 276.353 246.557 276.207 246.948 275.981C247.218 275.824 247.466 275.631 247.684 275.408C248.451 274.622 249.338 273.714 250.32 272.701C250.321 272.698 250.323 272.695 250.326 272.693L251.049 271.944H251.052C252.667 270.277 254.506 268.367 256.489 266.289L256.637 266.133C260.355 262.234 264.563 257.757 268.723 253.201C269.623 252.216 270.52 251.228 271.413 250.238C278.594 242.274 285.265 234.4 288.569 229.271C288.569 229.271 288.572 229.271 288.572 229.265C288.785 228.938 288.979 228.619 289.166 228.313C289.376 227.967 289.564 227.634 289.734 227.318C290.056 227.23 290.38 227.14 290.711 227.048C292.14 226.649 293.536 226.249 294.899 225.847L322.613 225.846Z" fill="#D8DFF3"/>
<path d="M270.855 303.001C265.519 304.41 260.002 305.865 254.704 307.737C241.325 312.459 231.876 319.292 226.622 328.047C223.471 333.298 221.843 339.176 220.552 344.746C217.793 356.649 216.257 368.803 215.969 381.019C215.968 381.044 215.976 381.069 215.991 381.089C216.006 381.11 216.027 381.125 216.051 381.132C216.075 381.139 216.101 381.138 216.125 381.129C216.149 381.121 216.169 381.104 216.182 381.083C216.479 380.6 216.78 380.116 217.083 379.63L217.101 379.573C217.471 367.926 218.983 356.344 221.614 344.992C222.884 339.509 224.483 333.73 227.557 328.609C232.676 320.077 241.932 313.401 255.066 308.766C260.323 306.911 265.818 305.46 271.132 304.056C275.536 302.894 280.053 301.698 284.481 300.264L284.538 300.224C284.843 299.821 285.146 299.418 285.445 299.014C285.46 298.995 285.468 298.971 285.469 298.947C285.469 298.922 285.461 298.898 285.447 298.879C285.432 298.859 285.412 298.844 285.388 298.837C285.365 298.83 285.34 298.83 285.317 298.838C280.546 300.438 275.634 301.739 270.855 303.001Z" fill="#CAD4EF"/>
<path d="M207.49 396.458V396.463C207.487 396.473 207.484 396.482 207.479 396.491C207.326 396.788 207.173 397.088 207.021 397.386C207.015 397.395 207.008 397.405 207.001 397.413C206.995 397.419 206.989 397.425 206.982 397.429C206.956 397.445 206.925 397.45 206.895 397.443C206.865 397.436 206.84 397.417 206.824 397.391C206.158 396.333 205.451 395.299 204.704 394.289C203.361 392.472 201.506 390.189 199.062 388.642C197.359 387.601 195.452 386.936 193.471 386.693C191.49 386.451 189.48 386.635 187.575 387.234C186.897 387.454 186.281 387.832 185.777 388.337C185.274 388.841 184.897 389.458 184.678 390.137C181.729 399.116 178.684 408.725 176.988 418.56C176.639 418.446 176.287 418.334 175.938 418.216C177.785 407.573 181.19 397.227 184.347 387.646L184.453 387.46L184.597 387.343C186.918 386.078 189.53 385.447 192.172 385.514C194.814 385.581 197.391 386.344 199.644 387.725C202.239 389.367 204.177 391.752 205.581 393.645C206.238 394.535 206.868 395.444 207.472 396.373C207.488 396.398 207.494 396.429 207.49 396.458Z" fill="#647CBE"/>
<path d="M311.031 229.15C309.494 234.546 307.632 239.843 305.454 245.013H305.451C303.383 249.928 301.031 254.719 298.407 259.361C296.532 262.688 294.519 265.935 292.366 269.101C292.041 269.576 291.716 270.051 291.389 270.527C289.051 273.926 286.634 277.443 285.477 281.388C284.833 283.651 284.58 286.008 284.727 288.356C284.728 288.37 284.731 288.384 284.738 288.397C284.744 288.411 284.752 288.424 284.763 288.435C284.774 288.445 284.787 288.454 284.801 288.459C284.816 288.465 284.831 288.467 284.846 288.467C284.861 288.467 284.876 288.463 284.89 288.457C288.702 286.768 292.438 284.939 296.101 282.968C296.118 282.958 296.138 282.954 296.158 282.954C296.178 282.954 296.198 282.958 296.215 282.968C296.228 282.976 296.24 282.986 296.248 282.998C296.257 283.011 296.264 283.025 296.267 283.039C296.27 283.054 296.271 283.07 296.268 283.085C296.265 283.099 296.259 283.114 296.251 283.126C295.951 283.612 295.645 284.099 295.334 284.588C295.321 284.603 295.306 284.617 295.291 284.63C291.888 286.422 288.428 288.091 284.91 289.636C284.887 289.646 284.868 289.663 284.856 289.685C284.844 289.706 284.839 289.731 284.841 289.756C285.145 292.291 285.791 294.773 286.762 297.133C286.769 297.149 286.772 297.166 286.771 297.183C286.77 297.2 286.765 297.217 286.757 297.232C286.757 297.234 286.756 297.236 286.755 297.238C286.754 297.24 286.753 297.241 286.751 297.242C286.555 297.512 286.355 297.783 286.156 298.05C286.145 298.067 286.129 298.081 286.11 298.088C286.082 298.1 286.05 298.1 286.022 298.089C285.993 298.078 285.97 298.056 285.957 298.028C284.892 295.553 284.169 292.944 283.81 290.273C283.811 290.262 283.808 290.252 283.802 290.243C283.796 290.229 283.788 290.217 283.777 290.206C283.767 290.196 283.754 290.188 283.74 290.182C283.727 290.176 283.712 290.174 283.697 290.174C283.683 290.174 283.668 290.177 283.654 290.183C272.388 295.031 260.608 298.588 248.541 300.787C247.957 300.889 247.374 300.997 246.787 301.099C241.593 302.015 236.22 302.962 231.844 305.815C225.487 309.963 222.328 317.296 219.272 324.389C218.039 327.255 216.762 330.217 215.286 332.954C210.536 341.766 203.246 348.89 196.194 355.779C190.565 361.279 184.746 366.968 180.249 373.48C177.077 378.08 174.504 383.187 172.016 388.12C169.364 393.38 166.625 398.82 163.135 403.698C161.229 406.354 159.03 408.785 156.579 410.948C156.208 410.789 155.839 410.631 155.471 410.47C158.014 408.279 160.287 405.793 162.244 403.065C165.684 398.253 168.406 392.851 171.037 387.629C173.542 382.66 176.133 377.523 179.35 372.86C183.904 366.26 189.764 360.534 195.428 354.998C202.421 348.166 209.651 341.1 214.322 332.435C215.773 329.742 217.039 326.801 218.264 323.958C221.385 316.714 224.613 309.225 231.242 304.901C235.807 301.925 241.291 300.958 246.592 300.023C247.179 299.921 247.762 299.817 248.341 299.712C260.463 297.504 272.293 293.916 283.599 289.017C283.62 289.008 283.638 288.992 283.65 288.972C283.663 288.952 283.668 288.929 283.667 288.905C283.447 286.273 283.706 283.622 284.43 281.081C285.636 276.969 288.103 273.379 290.488 269.911C290.815 269.436 291.139 268.96 291.461 268.485C293.238 265.868 294.921 263.197 296.512 260.469C298.613 256.871 300.544 253.184 302.306 249.409C302.825 248.299 303.328 247.182 303.815 246.058C306.247 240.464 308.305 234.715 309.977 228.848C309.981 228.834 309.988 228.82 309.997 228.808C310.007 228.797 310.018 228.787 310.032 228.78C310.045 228.773 310.06 228.768 310.075 228.767C310.09 228.766 310.105 228.767 310.119 228.772L310.948 229.007C310.963 229.011 310.977 229.017 310.989 229.027C311.002 229.036 311.012 229.048 311.02 229.061C311.028 229.075 311.033 229.089 311.034 229.105C311.036 229.12 311.035 229.135 311.031 229.15Z" fill="#CAD4EF"/>
<path d="M253.913 273.349C255.481 273.492 257.138 273.604 258.829 273.604C262.013 273.683 265.181 273.129 268.149 271.974C272.078 270.329 275.308 267.272 278.158 264.574L285.373 257.747C287.152 256.062 289.17 254.153 290.202 251.669C291.178 249.323 291.169 246.695 291.166 244.379C291.154 239.287 291.135 233.546 289.373 228.338C289.368 228.323 289.361 228.31 289.351 228.299C289.341 228.287 289.329 228.278 289.315 228.271C289.302 228.264 289.287 228.26 289.272 228.259C289.257 228.258 289.242 228.26 289.228 228.265C289.201 228.274 289.179 228.292 289.166 228.316C288.982 228.621 288.784 228.939 288.572 229.268C288.563 229.282 288.558 229.298 288.555 229.314C288.553 229.33 288.554 229.347 288.559 229.363C290.047 234.197 290.063 239.369 290.075 244.386C290.08 246.6 290.086 249.109 289.194 251.254C288.25 253.524 286.323 255.348 284.622 256.957L277.407 263.786C274.488 266.547 271.471 269.403 267.727 270.971C263.329 272.812 258.326 272.658 254.011 272.265C253.09 272.181 252.123 272.078 251.151 271.916C251.133 271.913 251.114 271.915 251.096 271.921C251.079 271.927 251.063 271.937 251.05 271.95L250.325 272.697C250.304 272.719 250.293 272.749 250.293 272.779C250.294 272.81 250.307 272.839 250.329 272.86C250.345 272.875 250.366 272.886 250.388 272.89C251.587 273.116 252.783 273.246 253.913 273.349ZM150.337 380.515C150.337 380.535 150.342 380.554 150.352 380.571C150.361 380.588 150.375 380.602 150.392 380.613C150.408 380.623 150.427 380.629 150.447 380.63C150.466 380.632 150.486 380.628 150.503 380.619C156.265 377.859 161.142 373.545 164.586 368.164C165.75 366.317 166.743 364.345 167.704 362.433C168.768 360.203 169.972 358.043 171.31 355.966C175.312 350.047 181.55 345.704 187.053 341.872L200.337 332.623C204.14 329.975 208.873 326.68 211.096 321.827C213.819 315.885 212.11 309.18 208.735 303.901C208.718 303.875 208.691 303.857 208.661 303.851C208.631 303.845 208.6 303.85 208.574 303.867C208.555 303.879 208.54 303.897 208.531 303.918L207.928 304.376C207.911 304.381 207.894 304.389 207.881 304.401C207.868 304.413 207.857 304.428 207.85 304.445C207.844 304.461 207.841 304.479 207.843 304.497C207.845 304.515 207.851 304.533 207.86 304.548C211.037 309.538 212.644 315.828 210.104 321.37C208.003 325.953 203.407 329.153 199.715 331.724L186.431 340.973C180.849 344.859 174.523 349.264 170.408 355.351C169.042 357.467 167.814 359.667 166.73 361.94C165.781 363.824 164.799 365.777 163.664 367.58C160.407 372.673 155.821 376.779 150.402 379.456C150.383 379.466 150.367 379.48 150.356 379.498C150.345 379.516 150.339 379.537 150.339 379.558L150.337 380.515ZM219.43 253.361C223.255 257.099 228.342 258.937 233.335 260.631C233.358 260.639 233.383 260.639 233.406 260.631C233.429 260.624 233.449 260.61 233.463 260.591C233.478 260.572 233.486 260.548 233.487 260.524C233.487 260.5 233.48 260.477 233.467 260.457C233.195 260.054 232.926 259.659 232.66 259.271L232.604 259.228C227.94 257.623 223.59 255.902 220.192 252.58C215.511 248.007 213.843 241.626 213.336 234.756C213.334 234.727 213.32 234.699 213.298 234.68C213.276 234.66 213.247 234.65 213.218 234.651C212.925 234.663 212.639 234.668 212.357 234.669C212.342 234.669 212.327 234.672 212.313 234.677C212.299 234.683 212.287 234.692 212.276 234.702C212.266 234.713 212.257 234.726 212.251 234.739C212.246 234.753 212.243 234.768 212.243 234.783V234.791C212.76 241.903 214.496 248.539 219.43 253.361ZM191.207 250.695C194.275 250.509 197.341 250.37 200.406 250.279L200.459 250.29C204.847 252.42 208.112 255.55 209.731 259.228C211.119 262.379 211.334 265.976 211.427 269.1C211.446 269.76 211.461 270.421 211.47 271.084L211.486 271.135C211.789 271.636 212.079 272.145 212.358 272.662C212.37 272.685 212.39 272.702 212.413 272.713C212.436 272.723 212.462 272.725 212.487 272.719C212.512 272.712 212.534 272.698 212.549 272.678C212.565 272.658 212.574 272.633 212.574 272.608C212.572 271.425 212.553 270.245 212.519 269.065C212.423 265.838 212.198 262.116 210.731 258.786C209.274 255.476 206.584 252.593 202.996 250.424C202.975 250.412 202.958 250.392 202.949 250.37C202.939 250.347 202.938 250.321 202.944 250.297C202.95 250.274 202.964 250.252 202.983 250.237C203.002 250.221 203.026 250.213 203.051 250.212C203.795 250.197 204.539 250.185 205.283 250.176C207.06 250.154 208.639 250.195 209.955 250.906C211.327 251.647 212.265 253.066 213.107 254.455C217.157 261.139 220.309 268.329 222.482 275.837C223.304 278.679 223.93 281.908 222.345 284.297C221.357 285.785 219.631 286.695 218.108 287.497L217.849 287.633C217.856 287.655 217.863 287.679 217.869 287.7C217.903 287.813 217.935 287.927 217.964 288.041L218.747 288.394C220.281 287.585 222.143 286.573 223.254 284.902C225.088 282.142 224.425 278.618 223.531 275.535C221.333 267.935 218.142 260.657 214.041 253.891C213.121 252.374 212.088 250.819 210.476 249.948C208.931 249.112 207.202 249.063 205.273 249.086C203.749 249.104 202.223 249.135 200.695 249.177L200.645 249.166C200.224 248.969 199.799 248.776 199.36 248.596C195.215 246.898 190.788 246.149 186.434 245.544L186.332 245.737C186.641 246.072 186.953 246.407 187.268 246.74L187.334 246.775C190.794 247.205 194.204 247.971 197.516 249.062C197.541 249.072 197.562 249.089 197.575 249.112C197.588 249.135 197.593 249.162 197.589 249.188C197.585 249.214 197.572 249.238 197.553 249.255C197.533 249.273 197.508 249.284 197.482 249.285C195.112 249.377 192.743 249.499 190.373 249.651C190.358 249.652 190.343 249.656 190.329 249.663C190.315 249.669 190.303 249.679 190.293 249.69C190.283 249.702 190.276 249.715 190.271 249.73C190.266 249.744 190.264 249.76 190.265 249.775C190.267 249.803 190.279 249.829 190.299 249.848C190.573 250.12 190.847 250.391 191.122 250.663C191.134 250.674 191.147 250.682 191.162 250.688C191.176 250.693 191.192 250.696 191.207 250.695Z" fill="#CAD4EF"/>
<path d="M391.431 202.828C391.431 207.261 389.216 211.403 385.377 214.92C378.169 221.525 365.234 225.928 350.474 225.928H350.449C349.314 225.928 348.187 225.898 347.074 225.846C346.638 225.827 346.209 225.803 345.776 225.776C341.691 229.74 336.351 232.155 330.676 232.603C325.002 233.051 319.349 231.505 314.692 228.231C314.799 228.911 314.853 229.598 314.856 230.286C314.856 234.61 312.747 238.656 309.08 242.115C308.987 242.203 308.897 242.29 308.802 242.377H308.799V242.38C307.748 243.337 306.629 244.217 305.452 245.013H305.449C304.922 245.373 304.379 245.722 303.819 246.06C300.892 247.793 297.781 249.194 294.543 250.236C293.173 250.689 291.755 251.097 290.287 251.458C289.85 251.568 289.409 251.672 288.963 251.77C284.017 252.855 278.966 253.395 273.903 253.382C272.151 253.382 270.427 253.321 268.73 253.199C256.452 252.326 245.869 248.389 239.461 242.788L239.458 242.785V242.783C237.149 240.849 235.307 238.419 234.069 235.673C233.401 235.697 232.736 235.716 232.059 235.716C227.451 235.737 222.865 235.077 218.45 233.758C215.499 232.877 212.679 231.607 210.063 229.981C209.087 230.811 208.06 231.579 206.988 232.282C206.435 232.647 205.859 233.002 205.267 233.343C204.086 234.029 202.87 234.654 201.625 235.215C199.638 236.111 197.594 236.874 195.505 237.498C195.162 237.6 194.815 237.701 194.466 237.801C190.202 238.968 185.827 239.686 181.413 239.943C180.099 240.022 178.781 240.058 177.46 240.052C174.456 240.054 171.456 239.854 168.479 239.452C164.08 238.842 159.988 236.854 156.789 233.774C153.59 230.694 151.449 226.679 150.674 222.307C172.151 220.326 191.696 223.543 197.344 224.58C217.001 228.186 234.814 235.967 264.378 232.642C266.752 232.374 274.893 231.395 289.739 227.316C290.061 227.229 290.385 227.139 290.716 227.046C292.145 226.648 293.541 226.248 294.904 225.845C337.026 213.435 346.817 199.782 371.716 193.45C373.447 193.01 375.234 192.61 377.074 192.249C379.816 191.717 382.67 191.278 385.609 190.948C389.303 194.419 391.431 198.482 391.431 202.828ZM243.658 431.732C177.224 426.181 99.468 397.713 80.6509 338.528C80.1297 336.885 79.6505 335.213 79.2132 333.51C76.2031 321.417 75.2621 308.901 76.4301 296.493C77.8894 296.544 79.2993 297.034 80.4762 297.898C81.7563 298.79 83.3046 299.215 84.8609 299.101C87.8839 298.875 90.9094 297.37 93.8942 297.669C99.7354 298.247 103.163 307.079 99.9375 313.247C104.308 308.967 111.26 310.825 113.95 316.156C116.64 321.487 115.524 328.968 112.25 334.435C118.776 330.899 126.56 338.828 124.451 346.861C129.875 340.139 140.363 341.514 143.416 349.356C143.424 349.332 143.432 349.306 143.437 349.28C144.594 345.616 148.937 345.158 150.192 348.538C151.647 352.508 152.512 356.67 152.76 360.892C154.457 355.094 159.878 350.868 164.871 351.45C169.863 352.031 173.827 357.351 173.732 363.334C183.987 359.448 195.01 370.569 193.203 382.98C201.566 386.266 208.995 391.553 214.839 398.379C217.385 401.317 219.507 406.771 216.454 409.57C221.948 414.552 229.064 416.579 235.061 420.737C238.987 423.432 241.989 427.271 243.658 431.732Z" fill="#CAD4EF"/>
<path d="M209.335 207.536C192.2 203.846 174.053 196.75 165.617 181.385C162.588 175.868 161.06 169.125 163.287 163.237C166.277 155.331 175.09 151.155 183.454 149.939C193.922 148.444 204.595 150.315 213.931 155.281C226.631 162.079 236.814 174.557 251.078 176.568C261.989 178.104 272.583 173.059 283.092 169.748C293.602 166.437 306.458 165.321 314.361 173.002C316.249 174.839 316.565 177.28 316.747 178.277C318.289 186.68 309.965 194.39 306.956 197.179C302.847 200.985 293.307 208.176 263.447 210.584C247.378 211.878 230.994 212.2 209.335 207.536Z" fill="#E6EDFA"/>
<path d="M143.645 273.049H43.3812C41.6758 270.091 40.9759 266.659 41.3866 263.27C41.7973 259.88 43.2965 256.715 45.659 254.25C48.0215 251.785 51.12 250.152 54.4892 249.598C57.8583 249.043 61.3165 249.597 64.3444 251.175C64.6238 247.655 65.6681 244.238 67.4042 241.163C69.1404 238.088 71.5266 235.429 74.3964 233.371C77.2663 231.314 80.5505 229.907 84.02 229.249C87.4895 228.592 91.0607 228.7 94.4844 229.565C97.908 230.43 101.102 232.032 103.842 234.258C106.583 236.485 108.805 239.283 110.353 242.457C111.901 245.631 112.737 249.104 112.804 252.635C112.871 256.165 112.167 259.668 110.741 262.898C121.696 266.374 132.441 270.626 143.645 273.049ZM375.321 174.429H429.277C430.194 172.837 430.57 170.991 430.349 169.167C430.128 167.342 429.322 165.639 428.05 164.313C426.779 162.986 425.112 162.108 423.299 161.809C421.486 161.511 419.625 161.808 417.995 162.657C417.845 160.763 417.282 158.925 416.348 157.271C415.414 155.616 414.129 154.186 412.585 153.079C411.041 151.972 409.274 151.215 407.407 150.861C405.54 150.508 403.619 150.566 401.776 151.031C399.934 151.497 398.216 152.358 396.741 153.556C395.266 154.755 394.071 156.26 393.238 157.968C392.405 159.675 391.954 161.544 391.918 163.444C391.882 165.344 392.26 167.228 393.027 168.967C387.132 170.837 381.351 173.125 375.321 174.429ZM369.053 259.815H505.85C508.177 255.779 509.131 251.098 508.571 246.473C508.01 241.849 505.965 237.531 502.741 234.168C499.518 230.805 495.291 228.578 490.695 227.821C486.098 227.065 481.38 227.82 477.249 229.972C476.869 225.169 475.444 220.506 473.076 216.31C470.707 212.114 467.452 208.485 463.536 205.677C459.62 202.869 455.139 200.95 450.405 200.053C445.67 199.155 440.797 199.302 436.126 200.483C431.454 201.663 427.097 203.849 423.357 206.887C419.617 209.926 416.586 213.744 414.474 218.075C412.362 222.406 411.221 227.146 411.13 231.964C411.04 236.781 412.001 241.561 413.948 245.968C398.999 250.708 384.338 256.509 369.053 259.815Z" fill="#D8DFF3"/>
<path d="M351.011 269.57L368.398 275.497C370.813 276.32 373.04 277.613 374.952 279.302C376.864 280.991 378.423 283.041 379.538 285.336C380.653 287.63 381.302 290.123 381.448 292.67C381.594 295.216 381.235 297.767 380.39 300.174L355.64 370.668C311.667 334.504 293.218 296.754 304.006 279.984C312.238 267.188 336.649 267.913 351.011 269.57Z" fill="#77BBCB"/>
<path d="M350.549 289.152V419.691C340.057 422.954 329.394 425.636 318.608 427.727C304.885 430.415 290.975 432.04 277.001 432.585C265.881 432.967 254.747 432.681 243.66 431.73C227.866 430.412 212.198 427.878 196.793 424.152C190.122 422.527 183.501 420.663 176.988 418.56C176.642 418.443 176.29 418.331 175.939 418.214C169.344 416.05 162.861 413.631 156.577 410.947C156.205 410.789 155.838 410.631 155.467 410.468C153.74 409.725 152.031 408.959 150.338 408.171C149.804 407.922 149.269 407.672 148.739 407.413C147.023 406.603 145.326 405.768 143.647 404.907V262.304C143.647 259.093 144.923 256.013 147.194 253.742C149.465 251.471 152.545 250.195 155.757 250.194H211.287C213.067 250.194 214.826 250.586 216.438 251.343C218.049 252.1 219.474 253.203 220.611 254.574L235.609 272.657C236.746 274.028 238.171 275.131 239.782 275.888C241.394 276.645 243.153 277.037 244.933 277.037H338.438C340.029 277.037 341.605 277.35 343.074 277.959C344.544 278.567 345.88 279.46 347.004 280.585C348.129 281.71 349.021 283.046 349.629 284.516C350.237 285.986 350.55 287.561 350.549 289.152Z" fill="#4863C9"/>
<path d="M335.85 221.748L360.086 229.953C368.527 270.458 351.011 269.57 351.011 269.57L350.858 275.815C350.964 277.687 350.669 279.559 349.99 281.306C349.312 283.054 348.267 284.635 346.926 285.944C345.584 287.254 343.978 288.26 342.215 288.896C340.452 289.532 338.573 289.782 336.704 289.63C334.988 289.49 333.316 289.014 331.784 288.229C330.252 287.443 328.89 286.363 327.775 285.051C326.66 283.739 325.814 282.22 325.287 280.581C324.759 278.942 324.559 277.215 324.699 275.499L327.395 248.61L322.703 248.228C320.816 248.075 319.067 247.178 317.841 245.735C316.616 244.292 316.013 242.421 316.166 240.534C316.188 240.276 316.22 240.019 316.265 239.764C316.457 238.661 316.864 237.606 317.463 236.66C318.063 235.714 318.843 234.896 319.759 234.251C320.675 233.607 321.708 233.149 322.801 232.904C323.894 232.659 325.024 232.632 326.128 232.824L328.579 233.249L335.85 221.748Z" fill="#FFC1C2"/>
<path d="M367.9 221.318C367.572 218.532 365.177 216.142 361.959 215.017C362.21 214.21 364.854 205.239 359.562 199.487C356.635 196.304 352.743 195.697 350.797 195.393C338.588 193.488 327.905 203.78 325.772 205.833C322.944 208.557 323.693 208.702 316.84 216.467C315.27 218.146 313.958 220.049 312.946 222.113C312.026 224.154 311.38 226.308 311.023 228.518C310.24 233.727 315.166 245.833 326.204 258.48L327.035 248.262L322.502 247.894H322.495C320.898 247.781 319.391 247.109 318.24 245.996C317.089 244.884 316.366 243.401 316.199 241.809C316.14 241.111 316.171 240.41 316.292 239.721C316.477 238.655 316.871 237.637 317.45 236.724C318.028 235.811 318.782 235.021 319.666 234.399C320.55 233.777 321.549 233.336 322.604 233.1C323.659 232.864 324.75 232.838 325.815 233.024C326.485 233.14 327.095 233.482 327.543 233.992C327.992 234.503 328.253 235.151 328.282 235.83L328.453 239.784C328.461 239.961 328.53 240.129 328.647 240.261C328.765 240.393 328.924 240.48 329.098 240.509C329.267 240.531 329.439 240.498 329.588 240.416C329.737 240.333 329.856 240.205 329.927 240.051L334.447 230.843C334.471 230.792 334.498 230.745 334.524 230.698C334.672 230.444 334.868 230.222 335.101 230.044C335.334 229.866 335.601 229.735 335.884 229.66C336.168 229.585 336.464 229.567 336.755 229.606C337.046 229.646 337.326 229.742 337.58 229.89C341.34 232.076 352.094 234.262 358.966 232.052C361.515 231.19 363.76 229.608 365.431 227.499C366.514 226.139 368.216 223.998 367.9 221.318Z" fill="#32477B"/>
<path d="M378.478 243.473C378.472 244.764 378.897 246.02 379.687 247.04C380.477 248.061 381.586 248.788 382.837 249.106L426.013 260.193C427.429 260.555 428.885 260.739 430.346 260.741H430.486C432.927 260.715 435.335 260.172 437.551 259.146C439.767 258.121 441.74 256.638 443.34 254.794C444.94 252.95 446.131 250.787 446.833 248.449C447.536 246.111 447.734 243.65 447.416 241.23C447.097 238.809 446.269 236.484 444.985 234.407C443.701 232.33 441.991 230.55 439.968 229.183C437.946 227.816 435.656 226.893 433.25 226.476C430.845 226.06 428.378 226.158 426.013 226.765L382.837 237.853C381.591 238.176 380.488 238.903 379.7 239.92C378.911 240.936 378.481 242.186 378.478 243.472V243.473Z" fill="#77BBCB"/>
<path d="M379.408 246.647C380.206 247.865 381.428 248.741 382.837 249.106L426.013 260.193C427.429 260.555 428.885 260.739 430.346 260.741H430.486L439.649 245.18L379.421 246.62L379.408 246.647Z" fill="#589FAD"/>
<path d="M430.176 260.749C439.65 260.749 447.329 253.069 447.329 243.596C447.329 234.123 439.65 226.443 430.176 226.443C420.703 226.443 413.024 234.123 413.024 243.596C413.024 253.069 420.703 260.749 430.176 260.749Z" fill="#9BCFDC"/>
<path d="M430.176 257.677C437.953 257.677 444.257 251.373 444.257 243.596C444.257 235.819 437.953 229.515 430.176 229.515C422.4 229.515 416.095 235.819 416.095 243.596C416.095 251.373 422.4 257.677 430.176 257.677Z" fill="#32477B"/>
<path d="M439.512 249.623C439.686 249.623 439.858 249.575 440.007 249.484C440.156 249.394 440.278 249.264 440.359 249.109C441.729 246.493 442.059 243.455 441.283 240.605C440.507 237.755 438.682 235.304 436.174 233.743C436.068 233.675 435.949 233.628 435.824 233.605C435.7 233.583 435.572 233.586 435.448 233.613C435.325 233.641 435.208 233.693 435.104 233.766C435.001 233.839 434.913 233.932 434.846 234.04C434.779 234.147 434.734 234.267 434.714 234.392C434.693 234.517 434.698 234.645 434.728 234.768C434.757 234.891 434.811 235.007 434.886 235.11C434.961 235.212 435.055 235.298 435.164 235.363C437.263 236.669 438.791 238.721 439.441 241.107C440.09 243.492 439.813 246.036 438.666 248.226C438.59 248.371 438.553 248.534 438.558 248.698C438.563 248.862 438.611 249.022 438.696 249.162C438.781 249.302 438.9 249.419 439.043 249.499C439.186 249.58 439.348 249.622 439.512 249.623ZM433.23 254.81C433.254 254.81 433.281 254.81 433.303 254.81C434.264 254.725 435.197 254.437 436.038 253.965C436.88 253.494 437.612 252.849 438.186 252.073C438.257 251.97 438.306 251.853 438.332 251.73C438.357 251.607 438.358 251.481 438.335 251.358C438.312 251.234 438.264 251.117 438.195 251.012C438.127 250.907 438.038 250.817 437.934 250.746C437.831 250.676 437.714 250.626 437.591 250.601C437.468 250.575 437.342 250.574 437.219 250.597C437.095 250.621 436.978 250.668 436.873 250.737C436.768 250.806 436.678 250.894 436.607 250.998C436.197 251.539 435.679 251.988 435.085 252.316C434.491 252.645 433.836 252.846 433.16 252.906C432.914 252.926 432.686 253.04 432.522 253.223C432.359 253.407 432.272 253.647 432.282 253.893C432.291 254.139 432.394 254.372 432.571 254.544C432.748 254.715 432.984 254.811 433.23 254.813L433.23 254.81Z" fill="white"/>
<path d="M335.149 243.473C335.142 244.764 335.568 246.02 336.358 247.04C337.148 248.061 338.256 248.788 339.507 249.106L382.684 260.193C384.1 260.555 385.555 260.739 387.017 260.741H387.157C389.598 260.715 392.006 260.172 394.222 259.146C396.438 258.121 398.411 256.638 400.011 254.794C401.611 252.95 402.802 250.787 403.504 248.449C404.207 246.111 404.405 243.65 404.087 241.23C403.768 238.809 402.939 236.484 401.656 234.407C400.372 232.33 398.662 230.55 396.639 229.183C394.616 227.816 392.327 226.893 389.921 226.476C387.515 226.06 385.049 226.158 382.684 226.765L339.507 237.853C338.262 238.176 337.159 238.903 336.37 239.92C335.582 240.936 335.152 242.186 335.149 243.472V243.473Z" fill="#77BBCB"/>
<path d="M336.079 246.647C336.876 247.865 338.099 248.741 339.507 249.106L382.684 260.193C384.1 260.555 385.555 260.739 387.017 260.741H387.157L396.32 245.18L336.092 246.62L336.079 246.647Z" fill="#589FAD"/>
<path d="M386.847 260.749C396.32 260.749 404 253.069 404 243.596C404 234.123 396.32 226.443 386.847 226.443C377.374 226.443 369.694 234.123 369.694 243.596C369.694 253.069 377.374 260.749 386.847 260.749Z" fill="#9BCFDC"/>
<path d="M386.847 257.677C394.624 257.677 400.928 251.373 400.928 243.596C400.928 235.819 394.624 229.515 386.847 229.515C379.07 229.515 372.766 235.819 372.766 243.596C372.766 251.373 379.07 257.677 386.847 257.677Z" fill="#32477B"/>
<path d="M396.182 249.623C396.357 249.623 396.528 249.575 396.678 249.484C396.827 249.394 396.948 249.264 397.029 249.109C398.399 246.493 398.729 243.455 397.953 240.605C397.177 237.755 395.353 235.304 392.845 233.743C392.739 233.675 392.62 233.628 392.495 233.605C392.37 233.583 392.242 233.586 392.119 233.613C391.995 233.641 391.878 233.693 391.775 233.766C391.672 233.839 391.584 233.932 391.517 234.04C391.45 234.147 391.405 234.267 391.384 234.392C391.364 234.517 391.369 234.645 391.398 234.768C391.428 234.891 391.482 235.007 391.556 235.11C391.631 235.212 391.726 235.298 391.834 235.363C393.934 236.669 395.462 238.721 396.111 241.107C396.761 243.492 396.484 246.036 395.336 248.226C395.261 248.371 395.223 248.534 395.229 248.698C395.234 248.862 395.281 249.022 395.366 249.162C395.451 249.302 395.571 249.419 395.714 249.499C395.857 249.58 396.018 249.622 396.182 249.623ZM389.901 254.81C389.925 254.81 389.952 254.81 389.974 254.81C390.935 254.725 391.867 254.437 392.709 253.965C393.551 253.494 394.283 252.849 394.857 252.073C394.999 251.864 395.053 251.606 395.006 251.358C394.958 251.109 394.814 250.889 394.605 250.746C394.396 250.604 394.138 250.55 393.889 250.597C393.64 250.645 393.421 250.789 393.278 250.998C392.868 251.539 392.349 251.988 391.756 252.316C391.162 252.645 390.506 252.846 389.83 252.906C389.585 252.926 389.357 253.04 389.193 253.223C389.029 253.407 388.943 253.647 388.952 253.893C388.961 254.139 389.065 254.372 389.242 254.544C389.418 254.715 389.654 254.811 389.901 254.813L389.901 254.81Z" fill="white"/>
<path d="M343.633 250.581L336.828 265.489L315.293 264.962C315.293 264.962 329.175 230.71 351.374 234.809C351.374 234.809 340.47 240.08 343.633 250.581Z" fill="#FFC1C2"/>
<path d="M343.633 250.581L336.828 265.489L315.293 264.962L329.324 262.969C331.4 262.674 333.369 261.867 335.055 260.621C336.74 259.375 338.089 257.729 338.98 255.831C340.31 252.93 341.137 249.823 341.424 246.644C342.413 236.705 351.373 234.809 351.373 234.809C351.373 234.809 340.47 240.08 343.633 250.581ZM320.091 241.626C320.084 241.602 319.496 239.176 320.745 237.813C321.575 236.909 323.074 236.624 325.204 236.964L325.414 235.653C322.812 235.238 320.91 235.664 319.761 236.922C318.03 238.819 318.771 241.825 318.804 241.952L320.091 241.626ZM350.862 275.896C345.742 275.046 341.585 272.44 338.176 268.526C342.063 270.183 351.009 269.57 351.009 269.57L350.862 275.896ZM352.402 260.322L352.734 259.173C349.791 258.32 346.761 257.8 343.702 257.621L343.632 258.815C346.602 258.988 349.544 259.493 352.402 260.322Z" fill="#ED9C9C"/>
<path d="M325.462 248.801L324.455 248.022C332.796 237.241 342.144 232.454 351.49 234.183L351.258 235.435C340.079 233.37 331.062 241.564 325.462 248.801Z" fill="#ED9C9C"/>
<path d="M355.641 289.152V418.056C353.95 418.616 352.253 419.161 350.549 419.691C340.057 422.954 329.394 425.636 318.608 427.727C304.885 430.415 290.975 432.04 277.001 432.585C265.881 432.967 254.747 432.681 243.66 431.73C227.866 430.412 212.198 427.878 196.793 424.152C190.122 422.527 183.501 420.663 176.988 418.56C176.642 418.443 176.29 418.331 175.939 418.214C169.344 416.05 162.861 413.631 156.577 410.947C156.205 410.789 155.838 410.631 155.467 410.468C153.74 409.725 152.031 408.959 150.338 408.171C149.804 407.922 149.269 407.672 148.739 407.413V262.304C148.74 259.093 150.016 256.013 152.287 253.742C154.558 251.471 157.638 250.195 160.85 250.194H216.379C218.16 250.194 219.919 250.586 221.53 251.343C223.142 252.1 224.567 253.203 225.704 254.574L240.701 272.657C241.838 274.028 243.263 275.131 244.875 275.888C246.487 276.645 248.245 277.037 250.026 277.037H343.531C346.743 277.04 349.822 278.317 352.093 280.589C354.364 282.86 355.64 285.94 355.641 289.152Z" fill="#687ED4"/>
<path d="M329.125 294.716H266.922C263.667 294.716 261.029 297.354 261.029 300.609V306.174C261.029 309.429 263.667 312.067 266.922 312.067H329.125C332.379 312.067 335.017 309.429 335.017 306.174V300.609C335.017 297.354 332.379 294.716 329.125 294.716Z" fill="#4863C9"/>
<path d="M237.294 397.35H175.091C171.837 397.35 169.199 399.988 169.199 403.243V408.808C169.199 412.063 171.837 414.701 175.091 414.701H237.294C240.549 414.701 243.187 412.063 243.187 408.808V403.243C243.187 399.988 240.549 397.35 237.294 397.35Z" fill="#4863C9"/>
<path d="M158.122 269.835H223.926" stroke="white" stroke-width="5.09259" stroke-linecap="round" stroke-linejoin="round"/>
<path d="M252.19 277.038L317.748 256.175L339.284 265.954L321.075 277.038H252.19Z" fill="#77BBCB"/>
<path d="M350.424 312.165C350.424 312.165 315.803 323.005 350.459 322.495C350.459 322.495 315.019 328.395 350.486 330.513C350.486 330.513 316.232 335.941 350.513 338.601C350.513 338.601 316.729 344.509 350.539 346.009L352.067 345.976C353.601 345.944 355.092 345.463 356.354 344.591C357.617 343.72 358.596 342.496 359.17 341.073C362.284 333.452 362.463 324.947 359.673 317.201C359.096 315.618 358.024 314.265 356.615 313.342C355.206 312.419 353.536 311.977 351.855 312.081L350.424 312.165Z" fill="#FFC1C2"/>
<path d="M339.284 265.954L252.19 277.038H321.075L339.284 265.954Z" fill="#589FAD"/>
<path d="M335.178 320.503L350.459 322.495C350.459 322.495 336.315 325.093 335.178 320.503ZM334.736 327.357L350.487 330.514C350.487 330.514 335.427 333.889 334.736 327.357ZM335.281 335.226L350.513 338.601C350.513 338.601 334.38 340.564 335.281 335.226ZM335.507 343.422L355.278 345.212C355.278 345.212 336.807 350.714 335.507 343.422Z" fill="#ED9C9C"/>
</g>
<defs>
<clipPath id="clip0_11_70">
<rect width="550" height="550" fill="white"/>
</clipPath>
</defs>
</svg>
