<svg width="24" height="24" viewBox="0 0 24 24" fill="none" xmlns="http://www.w3.org/2000/svg">
<path d="M6.1001 1.4L17.7001 8.1L14.4001 11.4L4.0001 1.1C4.2001 1.1 4.5001 1 4.7001 1C5.2001 1 5.7001 1.1 6.1001 1.4ZM2.1001 20.4V3.6C2.1001 2.8 2.5001 2.1 3.1001 1.6L13.6001 12.1L3.2001 22.5C2.5001 22 2.1001 21.2 2.1001 20.4ZM6.1001 22.7C5.5001 23 4.8001 23.1 4.2001 23L14.4001 12.9L17.6001 16.1L6.1001 22.7ZM20.6001 14.3L18.5001 15.5L15.0001 12.1L18.5001 8.6L20.5001 9.8C21.3001 10.3 21.8001 11.1 21.8001 12.1C21.9001 12.9 21.4001 13.8 20.6001 14.3Z" fill="#6A5ACD"/>
</svg>
