<svg width="24" height="24" viewBox="0 0 24 24" fill="none" xmlns="http://www.w3.org/2000/svg">
<g clip-path="url(#clip0_475_236)">
<mask id="mask0_475_236" style="mask-type:luminance" maskUnits="userSpaceOnUse" x="0" y="0" width="24" height="24">
<path d="M0 0H24V24H0V0Z" fill="white"/>
</mask>
<g mask="url(#mask0_475_236)">
<path d="M21.4738 23.3684H3.15796C5.68428 23.3684 5.0527 17.6842 5.0527 17.6842C5.0527 16.289 6.18385 8.21052 7.57901 8.21052H20.8422C20.8422 8.21052 23.3685 8.21052 23.3685 10.7368V21.4737C23.3685 21.4737 23.3685 23.3684 21.4738 23.3684Z" fill="#53616E"/>
<path d="M19.579 21.4737C19.579 23.3684 21.4737 23.3684 21.4737 23.3684H2.52633C2.52633 23.3684 0.631592 23.3684 0.631592 20.8421V3.15788C0.631592 2.48786 0.897757 1.84528 1.37153 1.37151C1.84531 0.89773 2.48789 0.631565 3.15791 0.631565H17.0526C17.7227 0.631565 18.3652 0.89773 18.839 1.37151C19.3128 1.84528 19.579 2.48786 19.579 3.15788V21.4737Z" fill="#CFDADD"/>
<path d="M17.6842 13.2632C17.6842 13.4307 17.6177 13.5913 17.4992 13.7098C17.3808 13.8282 17.2201 13.8948 17.0526 13.8948H12C11.8325 13.8948 11.6718 13.8282 11.5534 13.7098C11.4349 13.5913 11.3684 13.4307 11.3684 13.2632C11.3684 13.0957 11.4349 12.935 11.5534 12.8166C11.6718 12.6982 11.8325 12.6316 12 12.6316H17.0526C17.2201 12.6316 17.3808 12.6982 17.4992 12.8166C17.6177 12.935 17.6842 13.0957 17.6842 13.2632Z" fill="#53616E"/>
<path d="M17.6842 10.7368C17.6842 10.9043 17.6177 11.065 17.4992 11.1834C17.3808 11.3019 17.2201 11.3684 17.0526 11.3684H12C11.8325 11.3684 11.6718 11.3019 11.5534 11.1834C11.4349 11.065 11.3684 10.9043 11.3684 10.7368C11.3684 10.5693 11.4349 10.4087 11.5534 10.2902C11.6718 10.1718 11.8325 10.1053 12 10.1053H17.0526C17.2201 10.1053 17.3808 10.1718 17.4992 10.2902C17.6177 10.4087 17.6842 10.5693 17.6842 10.7368Z" fill="#53616E"/>
<path d="M17.6842 8.21046C17.6842 8.37797 17.6177 8.53861 17.4992 8.65706C17.3808 8.7755 17.2201 8.84204 17.0526 8.84204H12C11.8325 8.84204 11.6718 8.7755 11.5534 8.65706C11.4349 8.53861 11.3684 8.37797 11.3684 8.21046C11.3684 8.04296 11.4349 7.88231 11.5534 7.76387C11.6718 7.64542 11.8325 7.57888 12 7.57888H17.0526C17.2201 7.57888 17.3808 7.64542 17.4992 7.76387C17.6177 7.88231 17.6842 8.04296 17.6842 8.21046Z" fill="#53616E"/>
<path d="M17.6843 15.7894C17.6843 15.9569 17.6177 16.1176 17.4993 16.236C17.3808 16.3545 17.2202 16.421 17.0527 16.421H3.15795C2.99044 16.421 2.8298 16.3545 2.71135 16.236C2.59291 16.1176 2.52637 15.9569 2.52637 15.7894C2.52637 15.6219 2.59291 15.4613 2.71135 15.3428C2.8298 15.2244 2.99044 15.1579 3.15795 15.1579H17.0527C17.2202 15.1579 17.3808 15.2244 17.4993 15.3428C17.6177 15.4613 17.6843 15.6219 17.6843 15.7894Z" fill="#53616E"/>
<path d="M17.6843 18.3158C17.6843 18.4833 17.6177 18.644 17.4993 18.7624C17.3808 18.8808 17.2202 18.9474 17.0527 18.9474H3.15795C2.99044 18.9474 2.8298 18.8808 2.71135 18.7624C2.59291 18.644 2.52637 18.4833 2.52637 18.3158C2.52637 18.1483 2.59291 17.9877 2.71135 17.8692C2.8298 17.7508 2.99044 17.6842 3.15795 17.6842H17.0527C17.2202 17.6842 17.3808 17.7508 17.4993 17.8692C17.6177 17.9877 17.6843 18.1483 17.6843 18.3158Z" fill="#53616E"/>
<path d="M17.6843 20.8421C17.6843 21.0096 17.6177 21.1702 17.4993 21.2886C17.3808 21.4071 17.2202 21.4736 17.0527 21.4736H3.15795C2.99044 21.4736 2.8298 21.4071 2.71135 21.2886C2.59291 21.1702 2.52637 21.0096 2.52637 20.8421C2.52637 20.6745 2.59291 20.5139 2.71135 20.3955C2.8298 20.277 2.99044 20.2105 3.15795 20.2105H17.0527C17.2202 20.2105 17.3808 20.277 17.4993 20.3955C17.6177 20.5139 17.6843 20.6745 17.6843 20.8421Z" fill="#53616E"/>
<path d="M16.4211 6.3158C16.4211 6.3158 17.6843 6.3158 17.6843 5.05264V3.78948C17.6843 3.78948 17.6843 2.52632 16.4211 2.52632H3.78952C3.78952 2.52632 2.52637 2.52632 2.52637 3.78948V5.05264C2.52637 5.05264 2.52637 6.3158 3.78952 6.3158H16.4211Z" fill="#53616E"/>
<path d="M8.84216 13.8948C8.84216 13.8948 10.1053 13.8948 10.1053 12.6316V8.84214C10.1053 8.84214 10.1053 7.57899 8.84216 7.57899H3.78952C3.78952 7.57899 2.52637 7.57899 2.52637 8.84214V12.6316C2.52637 12.6316 2.52637 13.8948 3.78952 13.8948H8.84216Z" fill="#53616E"/>
</g>
</g>
<defs>
<clipPath id="clip0_475_236">
<rect width="24" height="24" fill="white"/>
</clipPath>
</defs>
</svg>
