<svg width="24" height="24" viewBox="0 0 24 24" fill="none" xmlns="http://www.w3.org/2000/svg">
<g clip-path="url(#clip0_15_390)">
<path d="M7.55247 16.9983C7.14513 16.5909 7.35747 16.7058 6.37497 16.4428C5.92919 16.3233 5.53731 16.0936 5.18294 15.8184L3.05622 21.0328C2.85044 21.5376 3.23481 22.0861 3.7795 22.0654L6.24935 21.9712L7.9481 23.7656C8.3231 24.1612 8.98122 24.0379 9.187 23.5331L11.6268 17.5509C11.1187 17.834 10.5548 18 9.97169 18C9.05763 18 8.19888 17.6442 7.55247 16.9983ZM20.9437 21.0328L18.817 15.8184C18.4626 16.094 18.0708 16.3233 17.625 16.4428C16.6373 16.7072 16.8539 16.5919 16.4475 16.9983C15.8011 17.6442 14.9418 18 14.0278 18C13.4447 18 12.8808 17.8336 12.3726 17.5509L14.8125 23.5331C15.0183 24.0379 15.6768 24.1612 16.0514 23.7656L17.7506 21.9712L20.2204 22.0654C20.7651 22.0861 21.1495 21.5372 20.9437 21.0328ZM15.3281 15.9375C16.0443 15.2086 16.1264 15.2714 17.1464 14.9934C17.7975 14.8158 18.3065 14.2978 18.4809 13.635C18.8315 12.3037 18.7406 12.4645 19.6973 11.4904C20.174 11.0053 20.3601 10.2979 20.1858 9.63514C19.8356 8.30482 19.8351 8.49045 20.1858 7.15873C20.3601 6.49592 20.174 5.78857 19.6973 5.30342C18.7406 4.32936 18.8315 4.48967 18.4809 3.15889C18.3065 2.49607 17.7975 1.97811 17.1464 1.80045C15.8395 1.44373 15.997 1.53701 15.0393 0.562481C14.5626 0.077325 13.8675 -0.112519 13.2164 0.0651375C11.91 0.421387 12.0923 0.421856 10.7836 0.0651375C10.1325 -0.112519 9.43731 0.0768562 8.9606 0.562481C8.00388 1.53654 8.16138 1.44373 6.85403 1.80045C6.20294 1.97811 5.69388 2.49607 5.5195 3.15889C5.16935 4.48967 5.25981 4.32936 4.3031 5.30342C3.82638 5.78857 3.63981 6.49592 3.81466 7.15873C4.16481 8.4881 4.16528 8.30248 3.81466 9.63467C3.64028 10.2975 3.82638 11.0048 4.3031 11.4904C5.25981 12.4645 5.16888 12.3037 5.5195 13.635C5.69388 14.2978 6.20294 14.8158 6.85403 14.9934C7.9031 15.2794 7.98138 15.2344 8.67185 15.9375C9.292 16.5689 10.2581 16.6819 11.0034 16.2103C11.3014 16.0211 11.6472 15.9206 12.0002 15.9206C12.3532 15.9206 12.699 16.0211 12.997 16.2103C13.7418 16.6819 14.7079 16.5689 15.3281 15.9375ZM7.57778 8.24811C7.57778 5.76232 9.55778 3.74717 12 3.74717C14.4422 3.74717 16.4222 5.76232 16.4222 8.24811C16.4222 10.7339 14.4422 12.749 12 12.749C9.55778 12.749 7.57778 10.7339 7.57778 8.24811Z" fill="#53616E"/>
<path d="M12.06 11.82C14.0482 11.82 15.66 10.2082 15.66 8.22C15.66 6.23177 14.0482 4.62 12.06 4.62C10.0718 4.62 8.45999 6.23177 8.45999 8.22C8.45999 10.2082 10.0718 11.82 12.06 11.82Z" fill="#CFDADD"/>
</g>
<defs>
<clipPath id="clip0_15_390">
<rect width="24" height="24" fill="white"/>
</clipPath>
</defs>
</svg>
