<svg width="24" height="24" viewBox="0 0 24 24" fill="none" xmlns="http://www.w3.org/2000/svg">
<path d="M22.9536 0.818784C15.6066 -0.272928 8.13851 -0.272928 0.791485 0.818784C-0.263828 8.16845 -0.263828 15.6312 0.791485 22.9809C4.46355 23.5761 8.17242 23.9167 11.8915 24C15.5989 23.9151 19.2959 23.5745 22.9565 22.9809C24.0108 15.631 24.0099 8.16831 22.9536 0.818784ZM11.4896 19.1634C9.71291 19.1369 7.96281 18.7272 6.35895 17.9623L7.15973 14.8321C8.46733 15.6994 9.99372 16.179 11.5624 16.2152C12.9456 16.2152 13.7827 15.7784 13.7827 14.9048C13.7827 14.2861 13.346 13.9221 12.2176 13.6309L9.9609 13.0121C7.55863 12.357 6.4303 11.1194 6.4303 9.1554C6.4303 6.78953 8.25022 4.89828 11.9978 4.89828C13.73 4.90288 15.4415 5.27506 17.0193 5.99023L16.0729 8.97487C14.7865 8.27435 13.3527 7.88773 11.8886 7.84653C10.5418 7.84653 9.95944 8.28331 9.95944 8.93847C9.95944 9.55724 10.3598 9.81203 11.2334 10.0304L13.7085 10.7584C16.2563 11.4863 17.3847 12.7239 17.3847 14.6515C17.3119 17.3406 14.9839 19.1605 11.4896 19.1605V19.1634Z" fill="#00B140"/>
</svg>
