<svg width="24" height="24" viewBox="0 0 24 24" fill="none" xmlns="http://www.w3.org/2000/svg">
<g clip-path="url(#clip0_422_249)">
<path d="M19.9264 4.6815C19.9088 4.57538 19.8222 4.494 19.7149 4.48387C19.6306 4.47 17.7762 4.34288 17.7762 4.34288L16.3624 2.92912C16.2349 2.78813 15.9529 2.82938 15.8464 2.85862C15.8326 2.85862 15.5644 2.943 15.1257 3.0855C14.6993 1.85175 13.9444 0.72075 12.6147 0.72075H12.5011C12.1201 0.226875 11.6536 0 11.2598 0C8.16381 0.013875 6.68856 3.87487 6.22206 5.84775L4.05831 6.5115C3.39456 6.723 3.37019 6.73837 3.28094 7.37138L1.45581 21.4406L15.1313 24L22.5424 22.4025C22.5424 22.3886 19.9399 4.81575 19.9264 4.6815ZM14.3674 3.3225C14.0236 3.43612 13.6313 3.54938 13.2087 3.67688V3.42188C13.2212 2.78556 13.1259 2.15172 12.9267 1.54725C13.6197 1.65375 14.0854 2.43113 14.3678 3.32212L14.3674 3.3225ZM12.0919 1.71075C12.3181 2.3775 12.4231 3.0795 12.4017 3.78337V3.91087L10.0111 4.647C10.4791 2.8995 11.3419 2.03625 12.0919 1.71075ZM11.1732 0.850875C11.3146 0.853884 11.4521 0.898062 11.5688 0.978C10.5713 1.44225 9.51681 2.61525 9.06456 4.96312L7.17269 5.54288C7.70631 3.76125 8.95131 0.8475 11.1721 0.8475L11.1732 0.850875Z" fill="#95BF47"/>
<path d="M19.7149 4.48385C19.6306 4.46998 17.7762 4.34285 17.7762 4.34285L16.3624 2.9291C16.3099 2.87585 16.2387 2.84548 16.1648 2.84473L15.1328 24L22.5439 22.4025L19.9264 4.69573C19.918 4.64269 19.8929 4.59369 19.855 4.55571C19.817 4.51773 19.768 4.49271 19.7149 4.48423V4.48385Z" fill="#5E8E3E"/>
<path d="M12.6149 8.5838L11.6947 11.2996C11.1385 11.0303 10.5307 10.8856 9.91267 10.8747C8.46967 10.8747 8.39917 11.7792 8.39917 12.0064C8.39917 13.2432 11.6377 13.7179 11.6377 16.6313C11.6377 18.9226 10.1808 20.3926 8.22517 20.3926C5.87767 20.3926 4.67505 18.9357 4.67505 18.9357L5.29942 16.8544C5.29942 16.8544 6.52942 17.9157 7.5768 17.9157C7.702 17.9205 7.82687 17.8998 7.94386 17.8549C8.06084 17.81 8.1675 17.7419 8.25738 17.6546C8.34727 17.5673 8.41851 17.4627 8.46679 17.347C8.51508 17.2314 8.5394 17.1072 8.5383 16.9819C8.5383 15.3544 5.87955 15.2843 5.87955 12.6252C5.87955 10.3894 7.4913 8.21143 10.7298 8.21143C12.0025 8.23018 12.6115 8.58268 12.6115 8.58268L12.6149 8.5838Z" fill="white"/>
</g>
<defs>
<clipPath id="clip0_422_249">
<rect width="24" height="24" fill="white"/>
</clipPath>
</defs>
</svg>
