<svg width="607" height="406" viewBox="0 0 607 406" fill="none" xmlns="http://www.w3.org/2000/svg">
<rect width="607" height="406" rx="20" fill="white"/>
<path d="M65.06 67.44H60.58V79H57.8V67.44H53.32V64.82H65.06V67.44ZM71.5303 69.12V71.8C71.2636 71.7467 70.9969 71.72 70.7303 71.72C69.9703 71.72 69.3569 71.94 68.8903 72.38C68.4236 72.8067 68.1903 73.5133 68.1903 74.5V79H65.5303V69.16H68.1103V70.62C68.5903 69.5933 69.5236 69.08 70.9103 69.08C71.0569 69.08 71.2636 69.0933 71.5303 69.12ZM73.0327 76.32C73.0327 75.48 73.306 74.8067 73.8527 74.3C74.3994 73.7933 75.106 73.4733 75.9727 73.34L78.3927 72.98C78.886 72.9133 79.1327 72.68 79.1327 72.28C79.1327 71.9067 78.986 71.6 78.6927 71.36C78.4127 71.12 78.006 71 77.4727 71C76.9127 71 76.466 71.1533 76.1327 71.46C75.8127 71.7667 75.6327 72.1467 75.5927 72.6L73.2327 72.1C73.326 71.2467 73.746 70.4933 74.4927 69.84C75.2394 69.1867 76.226 68.86 77.4527 68.86C78.9194 68.86 79.9994 69.2133 80.6927 69.92C81.386 70.6133 81.7327 71.5067 81.7327 72.6V77.44C81.7327 78.0267 81.7727 78.5467 81.8527 79H79.4127C79.346 78.7067 79.3127 78.3133 79.3127 77.82C78.686 78.7933 77.7194 79.28 76.4127 79.28C75.3994 79.28 74.5794 78.9867 73.9527 78.4C73.3394 77.8133 73.0327 77.12 73.0327 76.32ZM76.9727 77.3C77.5994 77.3 78.1127 77.1267 78.5127 76.78C78.926 76.42 79.1327 75.8333 79.1327 75.02V74.58L76.9127 74.92C76.0994 75.04 75.6927 75.4533 75.6927 76.16C75.6927 76.48 75.806 76.7533 76.0327 76.98C76.2594 77.1933 76.5727 77.3 76.9727 77.3ZM87.2467 73.34V79H84.5867V69.16H87.1667V70.38C87.4467 69.9 87.8467 69.5333 88.3667 69.28C88.8867 69.0267 89.4334 68.9 90.0067 68.9C91.1667 68.9 92.0467 69.2667 92.6467 70C93.2601 70.72 93.5667 71.6533 93.5667 72.8V79H90.9067V73.26C90.9067 72.6733 90.7534 72.2 90.4467 71.84C90.1534 71.48 89.7001 71.3 89.0867 71.3C88.5267 71.3 88.0801 71.4933 87.7467 71.88C87.4134 72.2667 87.2467 72.7533 87.2467 73.34ZM95.5992 76.26L97.8792 75.76C97.9058 76.1867 98.0725 76.5467 98.3792 76.84C98.6992 77.12 99.1325 77.26 99.6792 77.26C100.093 77.26 100.413 77.1667 100.639 76.98C100.866 76.7933 100.979 76.56 100.979 76.28C100.979 75.7867 100.626 75.4667 99.9192 75.32L98.6192 75.02C97.6992 74.82 97.0058 74.46 96.5392 73.94C96.0858 73.42 95.8592 72.8 95.8592 72.08C95.8592 71.1867 96.2058 70.4267 96.8992 69.8C97.6058 69.1733 98.4858 68.86 99.5392 68.86C100.206 68.86 100.793 68.96 101.299 69.16C101.806 69.3467 102.199 69.5933 102.479 69.9C102.759 70.1933 102.973 70.4933 103.119 70.8C103.266 71.1067 103.359 71.4067 103.399 71.7L101.179 72.2C101.126 71.8533 100.966 71.5467 100.699 71.28C100.446 71.0133 100.066 70.88 99.5592 70.88C99.2125 70.88 98.9125 70.9733 98.6592 71.16C98.4192 71.3467 98.2992 71.58 98.2992 71.86C98.2992 72.34 98.5992 72.6333 99.1992 72.74L100.599 73.04C101.546 73.24 102.266 73.6067 102.759 74.14C103.266 74.6733 103.519 75.3133 103.519 76.06C103.519 76.94 103.186 77.7 102.519 78.34C101.853 78.98 100.913 79.3 99.6992 79.3C99.0058 79.3 98.3858 79.2 97.8392 79C97.2925 78.7867 96.8658 78.52 96.5592 78.2C96.2658 77.8667 96.0392 77.54 95.8792 77.22C95.7325 76.8867 95.6392 76.5667 95.5992 76.26ZM105.153 76.32C105.153 75.48 105.426 74.8067 105.973 74.3C106.519 73.7933 107.226 73.4733 108.093 73.34L110.513 72.98C111.006 72.9133 111.253 72.68 111.253 72.28C111.253 71.9067 111.106 71.6 110.813 71.36C110.533 71.12 110.126 71 109.593 71C109.033 71 108.586 71.1533 108.253 71.46C107.933 71.7667 107.753 72.1467 107.713 72.6L105.353 72.1C105.446 71.2467 105.866 70.4933 106.613 69.84C107.359 69.1867 108.346 68.86 109.573 68.86C111.039 68.86 112.119 69.2133 112.813 69.92C113.506 70.6133 113.853 71.5067 113.853 72.6V77.44C113.853 78.0267 113.893 78.5467 113.973 79H111.533C111.466 78.7067 111.433 78.3133 111.433 77.82C110.806 78.7933 109.839 79.28 108.533 79.28C107.519 79.28 106.699 78.9867 106.073 78.4C105.459 77.8133 105.153 77.12 105.153 76.32ZM109.093 77.3C109.719 77.3 110.233 77.1267 110.633 76.78C111.046 76.42 111.253 75.8333 111.253 75.02V74.58L109.033 74.92C108.219 75.04 107.813 75.4533 107.813 76.16C107.813 76.48 107.926 76.7533 108.153 76.98C108.379 77.1933 108.693 77.3 109.093 77.3ZM121.088 71.32C120.381 71.32 119.788 71.5667 119.308 72.06C118.828 72.5533 118.588 73.2267 118.588 74.08C118.588 74.9333 118.828 75.6133 119.308 76.12C119.801 76.6133 120.401 76.86 121.108 76.86C121.734 76.86 122.234 76.7 122.608 76.38C122.981 76.0467 123.234 75.6533 123.368 75.2L125.708 75.98C125.468 76.8867 124.948 77.6667 124.148 78.32C123.348 78.9733 122.334 79.3 121.108 79.3C119.641 79.3 118.408 78.8067 117.408 77.82C116.421 76.82 115.928 75.5733 115.928 74.08C115.928 72.5733 116.414 71.3267 117.388 70.34C118.374 69.3533 119.588 68.86 121.028 68.86C122.281 68.86 123.308 69.1867 124.108 69.84C124.908 70.48 125.421 71.26 125.648 72.18L123.268 72.98C122.948 71.8733 122.221 71.32 121.088 71.32ZM131.116 66.22V69.16H133.096V71.52H131.116V75.64C131.116 76.0533 131.21 76.3467 131.396 76.52C131.583 76.6933 131.876 76.78 132.276 76.78C132.636 76.78 132.91 76.7533 133.096 76.7V78.9C132.71 79.06 132.21 79.14 131.596 79.14C130.636 79.14 129.876 78.8733 129.316 78.34C128.756 77.7933 128.476 77.0467 128.476 76.1V71.52H126.696V69.16H127.196C127.69 69.16 128.063 69.02 128.316 68.74C128.583 68.4467 128.716 68.0667 128.716 67.6V66.22H131.116ZM138.189 79H135.529V69.16H138.189V79ZM135.209 65.94C135.209 65.4867 135.369 65.1 135.689 64.78C136.009 64.4467 136.395 64.28 136.849 64.28C137.302 64.28 137.689 64.44 138.009 64.76C138.329 65.08 138.489 65.4733 138.489 65.94C138.489 66.38 138.329 66.76 138.009 67.08C137.689 67.4 137.302 67.56 136.849 67.56C136.395 67.56 136.009 67.4 135.689 67.08C135.369 66.76 135.209 66.38 135.209 65.94ZM143.849 76.14C144.343 76.6333 144.936 76.88 145.629 76.88C146.323 76.88 146.909 76.6333 147.389 76.14C147.883 75.6467 148.129 74.96 148.129 74.08C148.129 73.2 147.883 72.5133 147.389 72.02C146.909 71.5267 146.323 71.28 145.629 71.28C144.936 71.28 144.343 71.5267 143.849 72.02C143.369 72.5133 143.129 73.2 143.129 74.08C143.129 74.96 143.369 75.6467 143.849 76.14ZM141.929 70.34C142.916 69.3533 144.149 68.86 145.629 68.86C147.109 68.86 148.336 69.3533 149.309 70.34C150.296 71.3267 150.789 72.5733 150.789 74.08C150.789 75.5867 150.296 76.8333 149.309 77.82C148.336 78.8067 147.109 79.3 145.629 79.3C144.149 79.3 142.916 78.8067 141.929 77.82C140.956 76.8333 140.469 75.5867 140.469 74.08C140.469 72.5733 140.956 71.3267 141.929 70.34ZM155.722 73.34V79H153.062V69.16H155.642V70.38C155.922 69.9 156.322 69.5333 156.842 69.28C157.362 69.0267 157.908 68.9 158.482 68.9C159.642 68.9 160.522 69.2667 161.122 70C161.735 70.72 162.042 71.6533 162.042 72.8V79H159.382V73.26C159.382 72.6733 159.228 72.2 158.922 71.84C158.628 71.48 158.175 71.3 157.562 71.3C157.002 71.3 156.555 71.4933 156.222 71.88C155.888 72.2667 155.722 72.7533 155.722 73.34ZM179.768 68.2L177.288 68.96C177.195 68.4533 176.942 67.9933 176.528 67.58C176.115 67.1667 175.508 66.96 174.708 66.96C174.055 66.96 173.522 67.14 173.108 67.5C172.695 67.8467 172.488 68.2667 172.488 68.76C172.488 69.6267 173.002 70.16 174.028 70.36L176.008 70.74C177.262 70.98 178.235 71.48 178.928 72.24C179.622 73 179.968 73.8933 179.968 74.92C179.968 76.0933 179.502 77.12 178.568 78C177.648 78.8667 176.408 79.3 174.848 79.3C173.955 79.3 173.148 79.1667 172.428 78.9C171.708 78.6333 171.128 78.28 170.688 77.84C170.248 77.3867 169.902 76.9133 169.648 76.42C169.408 75.9133 169.262 75.3933 169.208 74.86L171.768 74.18C171.835 74.94 172.128 75.5733 172.648 76.08C173.182 76.5867 173.922 76.84 174.868 76.84C175.588 76.84 176.148 76.68 176.548 76.36C176.962 76.04 177.168 75.62 177.168 75.1C177.168 74.6867 177.015 74.3333 176.708 74.04C176.415 73.7333 175.995 73.5267 175.448 73.42L173.468 73.02C172.322 72.78 171.415 72.3067 170.748 71.6C170.082 70.8933 169.748 70.0133 169.748 68.96C169.748 67.7067 170.228 66.6533 171.188 65.8C172.162 64.9467 173.328 64.52 174.688 64.52C175.502 64.52 176.228 64.6333 176.868 64.86C177.508 65.0867 178.022 65.3933 178.408 65.78C178.795 66.1533 179.095 66.54 179.308 66.94C179.522 67.34 179.675 67.76 179.768 68.2ZM185.649 66.22V69.16H187.629V71.52H185.649V75.64C185.649 76.0533 185.742 76.3467 185.929 76.52C186.116 76.6933 186.409 76.78 186.809 76.78C187.169 76.78 187.442 76.7533 187.629 76.7V78.9C187.242 79.06 186.742 79.14 186.129 79.14C185.169 79.14 184.409 78.8733 183.849 78.34C183.289 77.7933 183.009 77.0467 183.009 76.1V71.52H181.229V69.16H181.729C182.222 69.16 182.596 69.02 182.849 68.74C183.116 68.4467 183.249 68.0667 183.249 67.6V66.22H185.649ZM189.52 76.32C189.52 75.48 189.793 74.8067 190.34 74.3C190.887 73.7933 191.593 73.4733 192.46 73.34L194.88 72.98C195.373 72.9133 195.62 72.68 195.62 72.28C195.62 71.9067 195.473 71.6 195.18 71.36C194.9 71.12 194.493 71 193.96 71C193.4 71 192.953 71.1533 192.62 71.46C192.3 71.7667 192.12 72.1467 192.08 72.6L189.72 72.1C189.813 71.2467 190.233 70.4933 190.98 69.84C191.727 69.1867 192.713 68.86 193.94 68.86C195.407 68.86 196.487 69.2133 197.18 69.92C197.873 70.6133 198.22 71.5067 198.22 72.6V77.44C198.22 78.0267 198.26 78.5467 198.34 79H195.9C195.833 78.7067 195.8 78.3133 195.8 77.82C195.173 78.7933 194.207 79.28 192.9 79.28C191.887 79.28 191.067 78.9867 190.44 78.4C189.827 77.8133 189.52 77.12 189.52 76.32ZM193.46 77.3C194.087 77.3 194.6 77.1267 195 76.78C195.413 76.42 195.62 75.8333 195.62 75.02V74.58L193.4 74.92C192.587 75.04 192.18 75.4533 192.18 76.16C192.18 76.48 192.293 76.7533 192.52 76.98C192.747 77.1933 193.06 77.3 193.46 77.3ZM204.295 66.22V69.16H206.275V71.52H204.295V75.64C204.295 76.0533 204.389 76.3467 204.575 76.52C204.762 76.6933 205.055 76.78 205.455 76.78C205.815 76.78 206.089 76.7533 206.275 76.7V78.9C205.889 79.06 205.389 79.14 204.775 79.14C203.815 79.14 203.055 78.8733 202.495 78.34C201.935 77.7933 201.655 77.0467 201.655 76.1V71.52H199.875V69.16H200.375C200.869 69.16 201.242 69.02 201.495 68.74C201.762 68.4467 201.895 68.0667 201.895 67.6V66.22H204.295ZM208.082 76.26L210.362 75.76C210.389 76.1867 210.556 76.5467 210.862 76.84C211.182 77.12 211.616 77.26 212.162 77.26C212.576 77.26 212.896 77.1667 213.122 76.98C213.349 76.7933 213.462 76.56 213.462 76.28C213.462 75.7867 213.109 75.4667 212.402 75.32L211.102 75.02C210.182 74.82 209.489 74.46 209.022 73.94C208.569 73.42 208.342 72.8 208.342 72.08C208.342 71.1867 208.689 70.4267 209.382 69.8C210.089 69.1733 210.969 68.86 212.022 68.86C212.689 68.86 213.276 68.96 213.782 69.16C214.289 69.3467 214.682 69.5933 214.962 69.9C215.242 70.1933 215.456 70.4933 215.602 70.8C215.749 71.1067 215.842 71.4067 215.882 71.7L213.662 72.2C213.609 71.8533 213.449 71.5467 213.182 71.28C212.929 71.0133 212.549 70.88 212.042 70.88C211.696 70.88 211.396 70.9733 211.142 71.16C210.902 71.3467 210.782 71.58 210.782 71.86C210.782 72.34 211.082 72.6333 211.682 72.74L213.082 73.04C214.029 73.24 214.749 73.6067 215.242 74.14C215.749 74.6733 216.002 75.3133 216.002 76.06C216.002 76.94 215.669 77.7 215.002 78.34C214.336 78.98 213.396 79.3 212.182 79.3C211.489 79.3 210.869 79.2 210.322 79C209.776 78.7867 209.349 78.52 209.042 78.2C208.749 77.8667 208.522 77.54 208.362 77.22C208.216 76.8867 208.122 76.5667 208.082 76.26Z" fill="#53616E"/>
<rect x="453" y="54" width="100" height="30" rx="6" fill="#F3F5F8"/>
<path d="M531 66.8034C530.999 66.6982 531.02 66.594 531.059 66.4967C531.099 66.3994 531.158 66.3109 531.232 66.2363C531.306 66.1614 531.394 66.102 531.492 66.0614C531.589 66.0209 531.693 66 531.799 66C531.904 66 532.009 66.0209 532.106 66.0614C532.203 66.102 532.292 66.1614 532.366 66.2363L534.994 68.8801L537.638 66.3401C537.787 66.1913 537.99 66.1078 538.201 66.1078C538.412 66.1078 538.614 66.1913 538.764 66.3401C538.839 66.4144 538.898 66.5027 538.939 66.6C538.979 66.6974 539 66.8018 539 66.9072C539 67.0126 538.979 67.117 538.939 67.2144C538.898 67.3117 538.839 67.4001 538.764 67.4743L535.569 70.5574C535.419 70.7038 535.219 70.7858 535.01 70.7858C534.801 70.7858 534.6 70.7038 534.451 70.5574L531.256 67.3625C531.178 67.2908 531.116 67.2045 531.072 67.1085C531.028 67.0125 531.004 66.9088 531 66.8034Z" fill="#53616E"/>
<path d="M472.35 72H467.81V64.91H469.19V70.68H472.35V72ZM473.064 70.66C473.064 70.24 473.201 69.9033 473.474 69.65C473.748 69.3967 474.101 69.2367 474.534 69.17L475.744 68.99C475.991 68.9567 476.114 68.84 476.114 68.64C476.114 68.4533 476.041 68.3 475.894 68.18C475.754 68.06 475.551 68 475.284 68C475.004 68 474.781 68.0767 474.614 68.23C474.454 68.3833 474.364 68.5733 474.344 68.8L473.164 68.55C473.211 68.1233 473.421 67.7467 473.794 67.42C474.168 67.0933 474.661 66.93 475.274 66.93C476.008 66.93 476.548 67.1067 476.894 67.46C477.241 67.8067 477.414 68.2533 477.414 68.8V71.22C477.414 71.5133 477.434 71.7733 477.474 72H476.254C476.221 71.8533 476.204 71.6567 476.204 71.41C475.891 71.8967 475.408 72.14 474.754 72.14C474.248 72.14 473.838 71.9933 473.524 71.7C473.218 71.4067 473.064 71.06 473.064 70.66ZM475.034 71.15C475.348 71.15 475.604 71.0633 475.804 70.89C476.011 70.71 476.114 70.4167 476.114 70.01V69.79L475.004 69.96C474.598 70.02 474.394 70.2267 474.394 70.58C474.394 70.74 474.451 70.8767 474.564 70.99C474.678 71.0967 474.834 71.15 475.034 71.15ZM478.335 70.63L479.475 70.38C479.488 70.5933 479.572 70.7733 479.725 70.92C479.885 71.06 480.102 71.13 480.375 71.13C480.582 71.13 480.742 71.0833 480.855 70.99C480.968 70.8967 481.025 70.78 481.025 70.64C481.025 70.3933 480.848 70.2333 480.495 70.16L479.845 70.01C479.385 69.91 479.038 69.73 478.805 69.47C478.578 69.21 478.465 68.9 478.465 68.54C478.465 68.0933 478.638 67.7133 478.985 67.4C479.338 67.0867 479.778 66.93 480.305 66.93C480.638 66.93 480.932 66.98 481.185 67.08C481.438 67.1733 481.635 67.2967 481.775 67.45C481.915 67.5967 482.022 67.7467 482.095 67.9C482.168 68.0533 482.215 68.2033 482.235 68.35L481.125 68.6C481.098 68.4267 481.018 68.2733 480.885 68.14C480.758 68.0067 480.568 67.94 480.315 67.94C480.142 67.94 479.992 67.9867 479.865 68.08C479.745 68.1733 479.685 68.29 479.685 68.43C479.685 68.67 479.835 68.8167 480.135 68.87L480.835 69.02C481.308 69.12 481.668 69.3033 481.915 69.57C482.168 69.8367 482.295 70.1567 482.295 70.53C482.295 70.97 482.128 71.35 481.795 71.67C481.462 71.99 480.992 72.15 480.385 72.15C480.038 72.15 479.728 72.1 479.455 72C479.182 71.8933 478.968 71.76 478.815 71.6C478.668 71.4333 478.555 71.27 478.475 71.11C478.402 70.9433 478.355 70.7833 478.335 70.63ZM485.004 65.61V67.08H485.994V68.26H485.004V70.32C485.004 70.5267 485.051 70.6733 485.144 70.76C485.238 70.8467 485.384 70.89 485.584 70.89C485.764 70.89 485.901 70.8767 485.994 70.85V71.95C485.801 72.03 485.551 72.07 485.244 72.07C484.764 72.07 484.384 71.9367 484.104 71.67C483.824 71.3967 483.684 71.0233 483.684 70.55V68.26H482.794V67.08H483.044C483.291 67.08 483.478 67.01 483.604 66.87C483.738 66.7233 483.804 66.5333 483.804 66.3V65.61H485.004ZM490.995 69.12L490.385 68.16L492.085 66.7H489.245V65.51H493.835V66.62L492.155 68.02C492.669 68.04 493.109 68.2333 493.475 68.6C493.849 68.96 494.035 69.4267 494.035 70C494.035 70.5867 493.809 71.0933 493.355 71.52C492.902 71.94 492.299 72.15 491.545 72.15C490.819 72.15 490.229 71.95 489.775 71.55C489.322 71.1433 489.075 70.6533 489.035 70.08L490.365 69.82C490.379 70.1533 490.492 70.4267 490.705 70.64C490.925 70.8533 491.205 70.96 491.545 70.96C491.879 70.96 492.145 70.8667 492.345 70.68C492.545 70.4933 492.645 70.26 492.645 69.98C492.645 69.68 492.545 69.4467 492.345 69.28C492.152 69.1067 491.899 69.02 491.585 69.02C491.379 69.02 491.182 69.0533 490.995 69.12ZM496.454 67.11C496.221 67.4767 496.104 68.0267 496.104 68.76C496.104 69.4933 496.221 70.0433 496.454 70.41C496.674 70.7633 497.001 70.94 497.434 70.94C497.861 70.94 498.184 70.7633 498.404 70.41C498.644 70.05 498.764 69.5 498.764 68.76C498.764 68.02 498.644 67.47 498.404 67.11C498.184 66.7567 497.861 66.58 497.434 66.58C497.001 66.58 496.674 66.7567 496.454 67.11ZM495.294 71.07C494.914 70.49 494.724 69.72 494.724 68.76C494.724 67.8 494.914 67.03 495.294 66.45C495.781 65.7233 496.494 65.36 497.434 65.36C498.374 65.36 499.084 65.7233 499.564 66.45C499.951 67.0367 500.144 67.8067 500.144 68.76C500.144 69.7133 499.951 70.4833 499.564 71.07C499.084 71.7967 498.374 72.16 497.434 72.16C496.494 72.16 495.781 71.7967 495.294 71.07ZM505.215 70.72H506.315C506.935 70.72 507.445 70.5267 507.845 70.14C508.245 69.7533 508.445 69.1933 508.445 68.46C508.445 67.7267 508.245 67.1667 507.845 66.78C507.445 66.3867 506.939 66.19 506.325 66.19H505.215V70.72ZM506.365 72H503.835V64.91H506.375C507.409 64.91 508.249 65.2267 508.895 65.86C509.549 66.4933 509.875 67.36 509.875 68.46C509.875 69.5533 509.549 70.4167 508.895 71.05C508.242 71.6833 507.399 72 506.365 72ZM510.672 70.66C510.672 70.24 510.808 69.9033 511.082 69.65C511.355 69.3967 511.708 69.2367 512.142 69.17L513.352 68.99C513.598 68.9567 513.722 68.84 513.722 68.64C513.722 68.4533 513.648 68.3 513.502 68.18C513.362 68.06 513.158 68 512.892 68C512.612 68 512.388 68.0767 512.222 68.23C512.062 68.3833 511.972 68.5733 511.952 68.8L510.772 68.55C510.818 68.1233 511.028 67.7467 511.402 67.42C511.775 67.0933 512.268 66.93 512.882 66.93C513.615 66.93 514.155 67.1067 514.502 67.46C514.848 67.8067 515.022 68.2533 515.022 68.8V71.22C515.022 71.5133 515.042 71.7733 515.082 72H513.862C513.828 71.8533 513.812 71.6567 513.812 71.41C513.498 71.8967 513.015 72.14 512.362 72.14C511.855 72.14 511.445 71.9933 511.132 71.7C510.825 71.4067 510.672 71.06 510.672 70.66ZM512.642 71.15C512.955 71.15 513.212 71.0633 513.412 70.89C513.618 70.71 513.722 70.4167 513.722 70.01V69.79L512.612 69.96C512.205 70.02 512.002 70.2267 512.002 70.58C512.002 70.74 512.058 70.8767 512.172 70.99C512.285 71.0967 512.442 71.15 512.642 71.15ZM517.935 73.94H516.525L517.685 71.38L515.595 67.08H517.085L518.395 69.96L519.605 67.08H521.025L517.935 73.94ZM521.343 70.63L522.483 70.38C522.496 70.5933 522.579 70.7733 522.733 70.92C522.893 71.06 523.109 71.13 523.383 71.13C523.589 71.13 523.749 71.0833 523.863 70.99C523.976 70.8967 524.033 70.78 524.033 70.64C524.033 70.3933 523.856 70.2333 523.503 70.16L522.853 70.01C522.393 69.91 522.046 69.73 521.813 69.47C521.586 69.21 521.473 68.9 521.473 68.54C521.473 68.0933 521.646 67.7133 521.993 67.4C522.346 67.0867 522.786 66.93 523.313 66.93C523.646 66.93 523.939 66.98 524.193 67.08C524.446 67.1733 524.643 67.2967 524.783 67.45C524.923 67.5967 525.029 67.7467 525.103 67.9C525.176 68.0533 525.223 68.2033 525.243 68.35L524.133 68.6C524.106 68.4267 524.026 68.2733 523.893 68.14C523.766 68.0067 523.576 67.94 523.323 67.94C523.149 67.94 522.999 67.9867 522.873 68.08C522.753 68.1733 522.693 68.29 522.693 68.43C522.693 68.67 522.843 68.8167 523.143 68.87L523.843 69.02C524.316 69.12 524.676 69.3033 524.923 69.57C525.176 69.8367 525.303 70.1567 525.303 70.53C525.303 70.97 525.136 71.35 524.803 71.67C524.469 71.99 523.999 72.15 523.393 72.15C523.046 72.15 522.736 72.1 522.463 72C522.189 71.8933 521.976 71.76 521.823 71.6C521.676 71.4333 521.563 71.27 521.483 71.11C521.409 70.9433 521.363 70.7833 521.343 70.63Z" fill="#53616E"/>
<rect x="53" y="136" width="216" height="216" fill="white"/>
<g clip-path="url(#clip0_159_374)">
<path fill-rule="evenodd" clip-rule="evenodd" d="M161 357C98.5918 357 48 306.408 48 244C48 181.592 98.5918 131 161 131C223.408 131 274 181.592 274 244C274 306.408 223.408 357 161 357ZM161 347C217.885 347 264 300.885 264 244C264 187.115 217.885 141 161 141C104.115 141 58 187.115 58 244C58 300.885 104.115 347 161 347Z" fill="#F5F5F7"/>
<path fill-rule="evenodd" clip-rule="evenodd" d="M161 131C158.239 131 156 133.239 156 136C156 138.761 158.239 141 161 141C217.886 141 264 187.115 264 244C264 300.885 217.886 347 161 347C107.197 347 62.5668 305.587 58.3283 252.283C58.1094 249.53 55.7004 247.476 52.9477 247.695C50.1949 247.914 48.1409 250.323 48.3597 253.075C53.0109 311.568 101.972 357 161 357C223.409 357 274 306.408 274 244C274 181.592 223.409 131 161 131Z" fill="#6A5ACD"/>
<path fill-rule="evenodd" clip-rule="evenodd" d="M161 341C107.428 341 64 297.572 64 244C64 190.428 107.428 147 161 147C214.572 147 258 190.428 258 244C258 297.572 214.572 341 161 341ZM161 331C209.049 331 248 292.049 248 244C248 195.951 209.049 157 161 157C112.951 157 74 195.951 74 244C74 292.049 112.951 331 161 331Z" fill="#F5F5F7"/>
<path fill-rule="evenodd" clip-rule="evenodd" d="M161 147C158.239 147 156 149.239 156 152C156 154.761 158.239 157 161 157C209.049 157 248 195.951 248 244C248 292.049 209.049 331 161 331C112.951 331 74 292.049 74 244C74 225.574 79.7359 208.024 90.2407 193.371C91.8495 191.126 91.3344 188.003 89.0901 186.394C86.8458 184.785 83.7221 185.3 82.1132 187.544C70.4006 203.883 64 223.467 64 244C64 297.572 107.428 341 161 341C214.572 341 258 297.572 258 244C258 190.428 214.572 147 161 147Z" fill="#0BB5FA"/>
<path fill-rule="evenodd" clip-rule="evenodd" d="M161 326C115.713 326 79 289.287 79 244C79 198.713 115.713 162 161 162C206.287 162 243 198.713 243 244C243 289.287 206.287 326 161 326ZM161 316C200.765 316 233 283.765 233 244C233 204.235 200.765 172 161 172C121.235 172 89 204.235 89 244C89 283.765 121.235 316 161 316Z" fill="#F5F5F7"/>
<path fill-rule="evenodd" clip-rule="evenodd" d="M161 162C158.239 162 156 164.239 156 167C156 169.761 158.239 172 161 172C200.765 172 233 204.235 233 244C233 283.765 200.765 316 161 316C121.235 316 89 283.765 89 244C89 218.965 101.874 196.145 122.668 183.04C125.005 181.568 125.705 178.48 124.233 176.144C122.76 173.808 119.673 173.107 117.337 174.58C93.6663 189.497 79 215.494 79 244C79 289.287 115.713 326 161 326C206.287 326 243 289.287 243 244C243 198.713 206.287 162 161 162Z" fill="#1AC6FF"/>
<g clip-path="url(#clip1_159_374)">
<path d="M130.757 241.34H128.717V239.2C127.424 239.027 126.41 238.54 125.677 237.74C124.957 236.94 124.544 236.06 124.437 235.1L126.917 234.5C126.984 235.193 127.25 235.773 127.717 236.24C128.184 236.693 128.85 236.92 129.717 236.92C130.357 236.92 130.857 236.787 131.217 236.52C131.59 236.24 131.777 235.873 131.777 235.42C131.777 234.687 131.277 234.213 130.277 234L128.437 233.6C127.344 233.36 126.484 232.913 125.857 232.26C125.244 231.593 124.937 230.787 124.937 229.84C124.937 228.8 125.29 227.913 125.997 227.18C126.717 226.447 127.624 225.993 128.717 225.82V223.68H130.757V225.88C131.81 226.067 132.63 226.48 133.217 227.12C133.804 227.747 134.177 228.453 134.337 229.24L131.877 229.94C131.797 229.473 131.577 229.047 131.217 228.66C130.87 228.273 130.33 228.08 129.597 228.08C128.984 228.08 128.497 228.233 128.137 228.54C127.79 228.847 127.617 229.213 127.617 229.64C127.617 230.333 128.077 230.78 128.997 230.98L130.817 231.4C132.03 231.667 132.944 232.147 133.557 232.84C134.17 233.52 134.477 234.327 134.477 235.26C134.477 236.22 134.144 237.067 133.477 237.8C132.824 238.533 131.917 238.993 130.757 239.18V241.34ZM135.973 235.36L138.553 234.78C138.58 235.393 138.806 235.913 139.233 236.34C139.673 236.753 140.233 236.96 140.913 236.96C141.553 236.96 142.086 236.767 142.513 236.38C142.94 235.993 143.153 235.48 143.153 234.84C143.153 234.133 142.926 233.593 142.473 233.22C142.033 232.847 141.493 232.66 140.853 232.66C140.04 232.66 139.373 232.953 138.853 233.54C137.906 233.18 137.066 232.893 136.333 232.68L137.873 226.02H145.193V228.4H139.753L139.113 231.26C139.686 230.727 140.466 230.46 141.453 230.46C142.786 230.46 143.86 230.847 144.673 231.62C145.486 232.38 145.893 233.44 145.893 234.8C145.893 236.053 145.44 237.12 144.533 238C143.626 238.88 142.42 239.32 140.913 239.32C139.553 239.32 138.406 238.927 137.473 238.14C136.553 237.353 136.053 236.427 135.973 235.36ZM147.527 238.58L148.207 236.36C148.874 236.733 149.64 236.92 150.507 236.92C151.707 236.92 152.667 236.6 153.387 235.96C154.12 235.32 154.534 234.413 154.627 233.24C154.347 233.667 153.94 234.007 153.407 234.26C152.887 234.513 152.294 234.64 151.627 234.64C150.374 234.64 149.314 234.24 148.447 233.44C147.58 232.64 147.147 231.587 147.147 230.28C147.147 228.947 147.614 227.853 148.547 227C149.494 226.147 150.687 225.72 152.127 225.72C153.62 225.72 154.854 226.253 155.827 227.32C156.814 228.373 157.307 229.887 157.307 231.86C157.307 234.22 156.727 236.053 155.567 237.36C154.407 238.653 152.727 239.3 150.527 239.3C149.3 239.3 148.3 239.06 147.527 238.58ZM153.607 231.74C154.047 231.34 154.267 230.827 154.267 230.2C154.267 229.573 154.047 229.06 153.607 228.66C153.18 228.26 152.654 228.06 152.027 228.06C151.414 228.06 150.887 228.26 150.447 228.66C150.02 229.06 149.807 229.573 149.807 230.2C149.807 230.84 150.02 231.36 150.447 231.76C150.874 232.147 151.4 232.34 152.027 232.34C152.654 232.34 153.18 232.14 153.607 231.74ZM159.006 238.6C158.7 238.28 158.546 237.88 158.546 237.4C158.546 236.92 158.72 236.52 159.066 236.2C159.413 235.88 159.846 235.72 160.366 235.72C160.966 235.72 161.446 235.94 161.806 236.38C162.166 236.807 162.346 237.353 162.346 238.02C162.346 239.353 161.98 240.387 161.246 241.12C160.526 241.853 159.72 242.273 158.826 242.38V241.1C159.306 240.993 159.74 240.733 160.126 240.32C160.513 239.92 160.713 239.46 160.726 238.94C160.62 239.02 160.446 239.06 160.206 239.06C159.713 239.06 159.313 238.907 159.006 238.6ZM163.552 236.22V233.34L169.012 226.02H172.412V233.86H174.552V236.22H172.412V239H169.692V236.22H163.552ZM169.692 233.86V228.9L165.992 233.86H169.692ZM180.526 231.34C181.113 231.327 181.579 231.16 181.926 230.84C182.273 230.52 182.446 230.12 182.446 229.64C182.446 229.187 182.273 228.8 181.926 228.48C181.579 228.16 181.113 228 180.526 228C179.953 228 179.493 228.16 179.146 228.48C178.799 228.8 178.626 229.187 178.626 229.64C178.626 230.12 178.793 230.52 179.126 230.84C179.473 231.16 179.939 231.327 180.526 231.34ZM178.926 236.5C179.313 236.847 179.846 237.02 180.526 237.02C181.206 237.02 181.739 236.847 182.126 236.5C182.526 236.14 182.726 235.713 182.726 235.22C182.726 234.713 182.533 234.28 182.146 233.92C181.759 233.56 181.219 233.38 180.526 233.38C179.833 233.38 179.293 233.56 178.906 233.92C178.533 234.28 178.346 234.713 178.346 235.22C178.346 235.713 178.539 236.14 178.926 236.5ZM184.066 238.24C183.173 238.947 181.993 239.3 180.526 239.3C179.059 239.3 177.873 238.947 176.966 238.24C176.073 237.533 175.626 236.62 175.626 235.5C175.626 234.807 175.833 234.173 176.246 233.6C176.673 233.027 177.233 232.607 177.926 232.34C177.299 232.113 176.799 231.727 176.426 231.18C176.066 230.62 175.886 230.04 175.886 229.44C175.886 228.347 176.319 227.453 177.186 226.76C178.066 226.067 179.179 225.72 180.526 225.72C181.873 225.72 182.979 226.067 183.846 226.76C184.726 227.453 185.166 228.347 185.166 229.44C185.166 230.04 184.986 230.62 184.626 231.18C184.266 231.727 183.773 232.113 183.146 232.34C183.826 232.593 184.373 233.013 184.786 233.6C185.213 234.173 185.426 234.807 185.426 235.5C185.426 236.62 184.973 237.533 184.066 238.24ZM186.735 235.36L189.315 234.78C189.341 235.393 189.568 235.913 189.995 236.34C190.435 236.753 190.995 236.96 191.675 236.96C192.315 236.96 192.848 236.767 193.275 236.38C193.701 235.993 193.915 235.48 193.915 234.84C193.915 234.133 193.688 233.593 193.235 233.22C192.795 232.847 192.255 232.66 191.615 232.66C190.801 232.66 190.135 232.953 189.615 233.54C188.668 233.18 187.828 232.893 187.095 232.68L188.635 226.02H195.955V228.4H190.515L189.875 231.26C190.448 230.727 191.228 230.46 192.215 230.46C193.548 230.46 194.621 230.847 195.435 231.62C196.248 232.38 196.655 233.44 196.655 234.8C196.655 236.053 196.201 237.12 195.295 238C194.388 238.88 193.181 239.32 191.675 239.32C190.315 239.32 189.168 238.927 188.235 238.14C187.315 237.353 186.815 236.427 186.735 235.36Z" fill="#53616E"/>
<path d="M129.924 256.348H126.606V265H125.234V256.348H121.916V255.074H129.924V256.348ZM134.086 258.196V259.596C133.89 259.568 133.698 259.554 133.512 259.554C132.28 259.554 131.664 260.245 131.664 261.626V265H130.348V258.266H131.636V259.442C132.046 258.583 132.718 258.154 133.652 258.154C133.801 258.154 133.946 258.168 134.086 258.196ZM135.068 263.194C135.068 262.615 135.255 262.153 135.628 261.808C136.001 261.453 136.496 261.234 137.112 261.15L138.932 260.884C139.277 260.837 139.45 260.669 139.45 260.38C139.45 260.025 139.329 259.736 139.086 259.512C138.843 259.288 138.479 259.176 137.994 259.176C137.546 259.176 137.191 259.302 136.93 259.554C136.669 259.797 136.515 260.123 136.468 260.534L135.208 260.24C135.273 259.596 135.567 259.073 136.09 258.672C136.613 258.261 137.238 258.056 137.966 258.056C138.918 258.056 139.623 258.289 140.08 258.756C140.537 259.213 140.766 259.801 140.766 260.52V263.894C140.766 264.295 140.794 264.664 140.85 265H139.562C139.515 264.72 139.492 264.417 139.492 264.09C139.305 264.389 139.03 264.65 138.666 264.874C138.311 265.098 137.863 265.21 137.322 265.21C136.659 265.21 136.118 265.014 135.698 264.622C135.278 264.221 135.068 263.745 135.068 263.194ZM137.504 264.104C138.092 264.104 138.563 263.945 138.918 263.628C139.273 263.311 139.45 262.807 139.45 262.116V261.808L137.392 262.116C137.093 262.163 136.855 262.27 136.678 262.438C136.501 262.606 136.412 262.835 136.412 263.124C136.412 263.385 136.51 263.614 136.706 263.81C136.911 264.006 137.177 264.104 137.504 264.104ZM144.132 261.108V265H142.816V258.266H144.104V259.232C144.552 258.457 145.243 258.07 146.176 258.07C146.951 258.07 147.544 258.317 147.954 258.812C148.374 259.307 148.584 259.946 148.584 260.73V265H147.268V260.954C147.268 259.825 146.746 259.26 145.7 259.26C145.206 259.26 144.818 259.437 144.538 259.792C144.268 260.137 144.132 260.576 144.132 261.108ZM150.048 263.25L151.238 262.83C151.284 263.194 151.443 263.497 151.714 263.74C151.984 263.973 152.348 264.09 152.806 264.09C153.16 264.09 153.44 264.006 153.646 263.838C153.851 263.661 153.954 263.446 153.954 263.194C153.954 262.746 153.664 262.457 153.086 262.326L151.938 262.074C151.415 261.962 151.004 261.738 150.706 261.402C150.407 261.066 150.258 260.66 150.258 260.184C150.258 259.605 150.491 259.106 150.958 258.686C151.434 258.266 151.998 258.056 152.652 258.056C153.081 258.056 153.464 258.121 153.8 258.252C154.136 258.373 154.397 258.537 154.584 258.742C154.77 258.947 154.91 259.139 155.004 259.316C155.097 259.493 155.167 259.675 155.214 259.862L154.052 260.296C154.033 260.184 154 260.077 153.954 259.974C153.907 259.862 153.832 259.741 153.73 259.61C153.636 259.479 153.496 259.377 153.31 259.302C153.123 259.218 152.904 259.176 152.652 259.176C152.325 259.176 152.054 259.265 151.84 259.442C151.634 259.619 151.532 259.829 151.532 260.072C151.532 260.501 151.788 260.772 152.302 260.884L153.394 261.122C153.991 261.253 154.448 261.495 154.766 261.85C155.092 262.195 155.256 262.62 155.256 263.124C155.256 263.656 155.036 264.137 154.598 264.566C154.168 264.995 153.566 265.21 152.792 265.21C151.961 265.21 151.312 265.005 150.846 264.594C150.379 264.174 150.113 263.726 150.048 263.25ZM156.451 263.194C156.451 262.615 156.638 262.153 157.011 261.808C157.384 261.453 157.879 261.234 158.495 261.15L160.315 260.884C160.66 260.837 160.833 260.669 160.833 260.38C160.833 260.025 160.712 259.736 160.469 259.512C160.226 259.288 159.862 259.176 159.377 259.176C158.929 259.176 158.574 259.302 158.313 259.554C158.052 259.797 157.898 260.123 157.851 260.534L156.591 260.24C156.656 259.596 156.95 259.073 157.473 258.672C157.996 258.261 158.621 258.056 159.349 258.056C160.301 258.056 161.006 258.289 161.463 258.756C161.92 259.213 162.149 259.801 162.149 260.52V263.894C162.149 264.295 162.177 264.664 162.233 265H160.945C160.898 264.72 160.875 264.417 160.875 264.09C160.688 264.389 160.413 264.65 160.049 264.874C159.694 265.098 159.246 265.21 158.705 265.21C158.042 265.21 157.501 265.014 157.081 264.622C156.661 264.221 156.451 263.745 156.451 263.194ZM158.887 264.104C159.475 264.104 159.946 263.945 160.301 263.628C160.656 263.311 160.833 262.807 160.833 262.116V261.808L158.775 262.116C158.476 262.163 158.238 262.27 158.061 262.438C157.884 262.606 157.795 262.835 157.795 263.124C157.795 263.385 157.893 263.614 158.089 263.81C158.294 264.006 158.56 264.104 158.887 264.104ZM167.027 259.274C166.458 259.274 165.972 259.479 165.571 259.89C165.179 260.301 164.983 260.879 164.983 261.626C164.983 262.363 165.179 262.942 165.571 263.362C165.972 263.782 166.462 263.992 167.041 263.992C167.601 263.992 168.026 263.852 168.315 263.572C168.614 263.292 168.814 262.97 168.917 262.606L170.079 263.11C169.892 263.67 169.538 264.16 169.015 264.58C168.502 265 167.844 265.21 167.041 265.21C166.061 265.21 165.249 264.869 164.605 264.188C163.961 263.507 163.639 262.653 163.639 261.626C163.639 260.581 163.961 259.727 164.605 259.064C165.249 258.392 166.056 258.056 167.027 258.056C167.848 258.056 168.511 258.266 169.015 258.686C169.528 259.106 169.864 259.61 170.023 260.198L168.833 260.702C168.73 260.31 168.534 259.974 168.245 259.694C167.956 259.414 167.55 259.274 167.027 259.274ZM173.387 256.138V258.266H174.843V259.456H173.387V262.956C173.387 263.273 173.457 263.507 173.597 263.656C173.746 263.805 173.989 263.88 174.325 263.88C174.521 263.88 174.694 263.861 174.843 263.824V264.944C174.619 265.028 174.32 265.07 173.947 265.07C173.368 265.07 172.911 264.902 172.575 264.566C172.239 264.23 172.071 263.759 172.071 263.152V259.456H170.783V258.266H171.147C171.492 258.266 171.749 258.173 171.917 257.986C172.094 257.79 172.183 257.538 172.183 257.23V256.138H173.387ZM177.901 265H176.599V258.266H177.901V265ZM176.571 256.39C176.394 256.203 176.305 255.979 176.305 255.718C176.305 255.457 176.394 255.233 176.571 255.046C176.758 254.859 176.982 254.766 177.243 254.766C177.505 254.766 177.729 254.859 177.915 255.046C178.102 255.223 178.195 255.447 178.195 255.718C178.195 255.979 178.102 256.203 177.915 256.39C177.729 256.567 177.505 256.656 177.243 256.656C176.982 256.656 176.758 256.567 176.571 256.39ZM181.527 263.404C181.937 263.824 182.437 264.034 183.025 264.034C183.613 264.034 184.107 263.824 184.509 263.404C184.919 262.975 185.125 262.382 185.125 261.626C185.125 260.879 184.919 260.296 184.509 259.876C184.107 259.447 183.613 259.232 183.025 259.232C182.437 259.232 181.937 259.447 181.527 259.876C181.125 260.296 180.925 260.879 180.925 261.626C180.925 262.382 181.125 262.975 181.527 263.404ZM180.547 259.078C181.2 258.397 182.026 258.056 183.025 258.056C184.023 258.056 184.845 258.397 185.489 259.078C186.142 259.75 186.469 260.599 186.469 261.626C186.469 262.662 186.147 263.521 185.503 264.202C184.859 264.874 184.033 265.21 183.025 265.21C182.017 265.21 181.191 264.874 180.547 264.202C179.903 263.521 179.581 262.662 179.581 261.626C179.581 260.599 179.903 259.75 180.547 259.078ZM189.468 261.108V265H188.152V258.266H189.44V259.232C189.888 258.457 190.579 258.07 191.512 258.07C192.287 258.07 192.88 258.317 193.29 258.812C193.71 259.307 193.92 259.946 193.92 260.73V265H192.604V260.954C192.604 259.825 192.082 259.26 191.036 259.26C190.542 259.26 190.154 259.437 189.874 259.792C189.604 260.137 189.468 260.576 189.468 261.108ZM195.384 263.25L196.574 262.83C196.62 263.194 196.779 263.497 197.05 263.74C197.32 263.973 197.684 264.09 198.142 264.09C198.496 264.09 198.776 264.006 198.982 263.838C199.187 263.661 199.29 263.446 199.29 263.194C199.29 262.746 199 262.457 198.422 262.326L197.274 262.074C196.751 261.962 196.34 261.738 196.042 261.402C195.743 261.066 195.594 260.66 195.594 260.184C195.594 259.605 195.827 259.106 196.294 258.686C196.77 258.266 197.334 258.056 197.988 258.056C198.417 258.056 198.8 258.121 199.136 258.252C199.472 258.373 199.733 258.537 199.92 258.742C200.106 258.947 200.246 259.139 200.34 259.316C200.433 259.493 200.503 259.675 200.55 259.862L199.388 260.296C199.369 260.184 199.336 260.077 199.29 259.974C199.243 259.862 199.168 259.741 199.066 259.61C198.972 259.479 198.832 259.377 198.646 259.302C198.459 259.218 198.24 259.176 197.988 259.176C197.661 259.176 197.39 259.265 197.176 259.442C196.97 259.619 196.868 259.829 196.868 260.072C196.868 260.501 197.124 260.772 197.638 260.884L198.73 261.122C199.327 261.253 199.784 261.495 200.102 261.85C200.428 262.195 200.592 262.62 200.592 263.124C200.592 263.656 200.372 264.137 199.934 264.566C199.504 264.995 198.902 265.21 198.128 265.21C197.297 265.21 196.648 265.005 196.182 264.594C195.715 264.174 195.449 263.726 195.384 263.25Z" fill="#53616E"/>
</g>
</g>
<path d="M531.345 171.224L529.773 171.176C529.733 170.992 529.713 170.812 529.713 170.636C529.713 169.916 529.969 169.304 530.481 168.8C530.993 168.288 531.685 168.032 532.557 168.032C533.405 168.032 534.085 168.276 534.597 168.764C535.109 169.244 535.365 169.836 535.365 170.54C535.365 171.532 534.861 172.336 533.853 172.952L532.353 173.864C532.001 174.088 531.777 174.324 531.681 174.572H535.413V176H529.653C529.661 175.272 529.801 174.636 530.073 174.092C530.353 173.548 530.825 173.076 531.489 172.676L532.773 171.908C533.389 171.54 533.697 171.092 533.697 170.564C533.697 170.268 533.593 170.016 533.385 169.808C533.185 169.6 532.897 169.496 532.521 169.496C532.121 169.496 531.813 169.616 531.597 169.856C531.389 170.096 531.285 170.408 531.285 170.792C531.285 170.936 531.305 171.08 531.345 171.224ZM536.028 174.332V172.604L539.304 168.212H541.344V172.916H542.628V174.332H541.344V176H539.712V174.332H536.028ZM539.712 172.916V169.94L537.492 172.916H539.712ZM544.486 170.048C544.486 170.296 544.562 170.5 544.714 170.66C544.866 170.812 545.054 170.888 545.278 170.888C545.51 170.888 545.698 170.812 545.842 170.66C545.994 170.5 546.07 170.296 546.07 170.048C546.07 169.8 545.994 169.6 545.842 169.448C545.698 169.296 545.51 169.22 545.278 169.22C545.054 169.22 544.866 169.3 544.714 169.46C544.562 169.612 544.486 169.808 544.486 170.048ZM543.862 171.44C543.478 171.056 543.286 170.592 543.286 170.048C543.286 169.504 543.482 169.04 543.874 168.656C544.266 168.272 544.734 168.08 545.278 168.08C545.822 168.08 546.29 168.272 546.682 168.656C547.082 169.04 547.282 169.504 547.282 170.048C547.282 170.6 547.082 171.064 546.682 171.44C546.29 171.816 545.822 172.004 545.278 172.004C544.726 172.004 544.254 171.816 543.862 171.44ZM549.73 174.176C549.73 174.424 549.806 174.628 549.958 174.788C550.11 174.94 550.298 175.016 550.522 175.016C550.754 175.016 550.942 174.94 551.086 174.788C551.238 174.628 551.314 174.424 551.314 174.176C551.314 173.928 551.238 173.728 551.086 173.576C550.942 173.424 550.754 173.348 550.522 173.348C550.298 173.348 550.11 173.428 549.958 173.588C549.806 173.74 549.73 173.936 549.73 174.176ZM549.106 175.568C548.722 175.184 548.53 174.72 548.53 174.176C548.53 173.632 548.726 173.168 549.118 172.784C549.51 172.4 549.978 172.208 550.522 172.208C551.066 172.208 551.534 172.4 551.926 172.784C552.326 173.168 552.526 173.632 552.526 174.176C552.526 174.728 552.326 175.192 551.926 175.568C551.534 175.944 551.066 176.132 550.522 176.132C549.97 176.132 549.498 175.944 549.106 175.568ZM545.854 176H544.462L549.958 168.212H551.35L545.854 176Z" fill="#53616E"/>
<path d="M381.128 165.848H378.356V173H376.916V165.848H374.156V164.492H381.128V165.848ZM382.456 171.44C382.776 171.768 383.164 171.932 383.62 171.932C384.076 171.932 384.46 171.768 384.772 171.44C385.092 171.112 385.252 170.656 385.252 170.072C385.252 169.496 385.092 169.048 384.772 168.728C384.46 168.4 384.076 168.236 383.62 168.236C383.164 168.236 382.776 168.4 382.456 168.728C382.144 169.048 381.988 169.496 381.988 170.072C381.988 170.648 382.144 171.104 382.456 171.44ZM383.62 166.976C384.5 166.976 385.224 167.268 385.792 167.852C386.368 168.436 386.656 169.176 386.656 170.072C386.656 170.968 386.368 171.712 385.792 172.304C385.224 172.888 384.5 173.18 383.62 173.18C382.748 173.18 382.024 172.888 381.448 172.304C380.88 171.712 380.596 170.968 380.596 170.072C380.596 169.176 380.88 168.436 381.448 167.852C382.024 167.268 382.748 166.976 383.62 166.976ZM389.73 165.368V167.156H390.942V168.392H389.73V171.104C389.73 171.36 389.79 171.548 389.91 171.668C390.03 171.78 390.218 171.836 390.474 171.836C390.634 171.836 390.794 171.82 390.954 171.788V172.94C390.746 173.028 390.462 173.072 390.102 173.072C389.558 173.072 389.13 172.92 388.818 172.616C388.506 172.304 388.35 171.876 388.35 171.332V168.392H387.27V167.156H387.57C387.866 167.156 388.09 167.072 388.242 166.904C388.394 166.736 388.47 166.516 388.47 166.244V165.368H389.73ZM392.024 171.416C392.024 170.92 392.184 170.524 392.504 170.228C392.832 169.924 393.26 169.732 393.788 169.652L395.288 169.424C395.576 169.384 395.72 169.244 395.72 169.004C395.72 168.74 395.628 168.528 395.444 168.368C395.26 168.2 394.984 168.116 394.616 168.116C394.264 168.116 393.984 168.216 393.776 168.416C393.568 168.608 393.448 168.86 393.416 169.172L392.144 168.884C392.2 168.356 392.452 167.908 392.9 167.54C393.348 167.164 393.916 166.976 394.604 166.976C395.452 166.976 396.076 167.18 396.476 167.588C396.884 167.996 397.088 168.52 397.088 169.16V172.064C397.088 172.448 397.112 172.76 397.16 173H395.864C395.824 172.88 395.804 172.632 395.804 172.256C395.42 172.872 394.82 173.18 394.004 173.18C393.412 173.18 392.932 173.008 392.564 172.664C392.204 172.312 392.024 171.896 392.024 171.416ZM394.268 172.088C394.7 172.088 395.048 171.972 395.312 171.74C395.584 171.5 395.72 171.112 395.72 170.576V170.312L394.196 170.54C393.676 170.628 393.416 170.892 393.416 171.332C393.416 171.54 393.492 171.72 393.644 171.872C393.796 172.016 394.004 172.088 394.268 172.088ZM400.163 173H398.771V164.312H400.163V173ZM406.519 173H405.055V164.492H406.519V173ZM409.831 169.628V173H408.439V167.156H409.795V167.936C409.979 167.616 410.223 167.38 410.527 167.228C410.839 167.068 411.171 166.988 411.523 166.988C412.211 166.988 412.735 167.204 413.095 167.636C413.455 168.068 413.635 168.624 413.635 169.304V173H412.243V169.544C412.243 169.152 412.147 168.84 411.955 168.608C411.763 168.368 411.459 168.248 411.043 168.248C410.659 168.248 410.359 168.38 410.143 168.644C409.935 168.9 409.831 169.228 409.831 169.628ZM417.922 165.5C417.698 165.5 417.498 165.568 417.322 165.704C417.146 165.84 417.058 166.068 417.058 166.388V167.156H419.554V164.312H420.934V173H419.554V168.368H417.058V173H415.654V168.368H414.634V167.156H415.654V166.352C415.654 165.704 415.842 165.192 416.218 164.816C416.594 164.44 417.086 164.252 417.694 164.252C418.022 164.252 418.266 164.292 418.426 164.372V165.56C418.29 165.52 418.122 165.5 417.922 165.5ZM424.14 171.44C424.46 171.768 424.848 171.932 425.304 171.932C425.76 171.932 426.144 171.768 426.456 171.44C426.776 171.112 426.936 170.656 426.936 170.072C426.936 169.496 426.776 169.048 426.456 168.728C426.144 168.4 425.76 168.236 425.304 168.236C424.848 168.236 424.46 168.4 424.14 168.728C423.828 169.048 423.672 169.496 423.672 170.072C423.672 170.648 423.828 171.104 424.14 171.44ZM425.304 166.976C426.184 166.976 426.908 167.268 427.476 167.852C428.052 168.436 428.34 169.176 428.34 170.072C428.34 170.968 428.052 171.712 427.476 172.304C426.908 172.888 426.184 173.18 425.304 173.18C424.432 173.18 423.708 172.888 423.132 172.304C422.564 171.712 422.28 170.968 422.28 170.072C422.28 169.176 422.564 168.436 423.132 167.852C423.708 167.268 424.432 166.976 425.304 166.976ZM432.857 167.156H434.297L435.677 171.2L436.841 167.156H438.257L436.385 173H434.993L433.541 168.8L432.125 173H430.697L428.801 167.156H430.289L431.477 171.2L432.857 167.156Z" fill="#53616E"/>
<rect x="356" y="164" width="10" height="10" rx="5" fill="#6A5ACD"/>
<mask id="mask0_159_374" style="mask-type:luminance" maskUnits="userSpaceOnUse" x="356" y="164" width="10" height="10">
<rect x="356" y="164" width="10" height="10" rx="5" fill="white"/>
</mask>
<g mask="url(#mask0_159_374)">
</g>
<circle cx="468" cy="172" r="8" fill="#F5F5F7"/>
<path d="M465.937 171.045C466.026 171.133 466.055 171.222 466.055 171.34L466.055 174.286C466.055 174.522 465.878 174.698 465.643 174.698C465.407 174.698 465.23 174.522 465.23 174.286L465.23 171.34C465.23 171.104 465.407 170.927 465.643 170.927C465.76 170.927 465.849 170.957 465.937 171.045Z" fill="#53616E"/>
<path d="M468.884 173.991C468.972 174.08 469.002 174.168 469.002 174.286C469.002 174.522 468.825 174.698 468.589 174.698L465.643 174.698C465.407 174.698 465.231 174.522 465.231 174.286C465.231 174.05 465.407 173.874 465.643 173.874L468.589 173.874C468.707 173.874 468.796 173.903 468.884 173.991Z" fill="#53616E"/>
<path d="M470.651 169.277C470.828 169.454 470.828 169.69 470.651 169.867L465.937 174.581C465.76 174.757 465.525 174.757 465.348 174.581C465.171 174.404 465.171 174.168 465.348 173.991L470.062 169.277C470.239 169.101 470.474 169.101 470.651 169.277Z" fill="#53616E"/>
<path d="M378.32 204.404H377.096V203.12C376.32 203.016 375.712 202.724 375.272 202.244C374.84 201.764 374.592 201.236 374.528 200.66L376.016 200.3C376.056 200.716 376.216 201.064 376.496 201.344C376.776 201.616 377.176 201.752 377.696 201.752C378.08 201.752 378.38 201.672 378.596 201.512C378.82 201.344 378.932 201.124 378.932 200.852C378.932 200.412 378.632 200.128 378.032 200L376.928 199.76C376.272 199.616 375.756 199.348 375.38 198.956C375.012 198.556 374.828 198.072 374.828 197.504C374.828 196.88 375.04 196.348 375.464 195.908C375.896 195.468 376.44 195.196 377.096 195.092V193.808H378.32V195.128C378.952 195.24 379.444 195.488 379.796 195.872C380.148 196.248 380.372 196.672 380.468 197.144L378.992 197.564C378.944 197.284 378.812 197.028 378.596 196.796C378.388 196.564 378.064 196.448 377.624 196.448C377.256 196.448 376.964 196.54 376.748 196.724C376.54 196.908 376.436 197.128 376.436 197.384C376.436 197.8 376.712 198.068 377.264 198.188L378.356 198.44C379.084 198.6 379.632 198.888 380 199.304C380.368 199.712 380.552 200.196 380.552 200.756C380.552 201.332 380.352 201.84 379.952 202.28C379.56 202.72 379.016 202.996 378.32 203.108V204.404ZM384.966 203H383.322V197.792H381.45V196.676C382.01 196.668 382.478 196.528 382.854 196.256C383.23 195.976 383.458 195.628 383.538 195.212H384.966V203ZM386.22 201.332V199.604L389.496 195.212H391.536V199.916H392.82V201.332H391.536V203H389.904V201.332H386.22ZM389.904 199.916V196.94L387.684 199.916H389.904ZM394.004 202.76C393.82 202.568 393.728 202.328 393.728 202.04C393.728 201.752 393.832 201.512 394.04 201.32C394.248 201.128 394.508 201.032 394.82 201.032C395.18 201.032 395.468 201.164 395.684 201.428C395.9 201.684 396.008 202.012 396.008 202.412C396.008 203.212 395.788 203.832 395.348 204.272C394.916 204.712 394.432 204.964 393.896 205.028V204.26C394.184 204.196 394.444 204.04 394.676 203.792C394.908 203.552 395.028 203.276 395.036 202.964C394.972 203.012 394.868 203.036 394.724 203.036C394.428 203.036 394.188 202.944 394.004 202.76ZM398.81 198.224L397.238 198.176C397.198 197.992 397.178 197.812 397.178 197.636C397.178 196.916 397.434 196.304 397.946 195.8C398.458 195.288 399.15 195.032 400.022 195.032C400.87 195.032 401.55 195.276 402.062 195.764C402.574 196.244 402.83 196.836 402.83 197.54C402.83 198.532 402.326 199.336 401.318 199.952L399.818 200.864C399.466 201.088 399.242 201.324 399.146 201.572H402.878V203H397.118C397.126 202.272 397.266 201.636 397.538 201.092C397.818 200.548 398.29 200.076 398.954 199.676L400.238 198.908C400.854 198.54 401.162 198.092 401.162 197.564C401.162 197.268 401.058 197.016 400.85 196.808C400.65 196.6 400.362 196.496 399.986 196.496C399.586 196.496 399.278 196.616 399.062 196.856C398.854 197.096 398.75 197.408 398.75 197.792C398.75 197.936 398.77 198.08 398.81 198.224ZM409.226 195.212V196.592C409.042 196.744 408.866 196.904 408.698 197.072C408.53 197.24 408.29 197.528 407.978 197.936C407.674 198.336 407.406 198.756 407.174 199.196C406.942 199.636 406.722 200.196 406.514 200.876C406.306 201.556 406.17 202.264 406.106 203H404.39C404.454 202.216 404.594 201.464 404.81 200.744C405.034 200.016 405.282 199.416 405.554 198.944C405.834 198.464 406.106 198.044 406.37 197.684C406.642 197.316 406.866 197.048 407.042 196.88L407.318 196.64H403.31V195.212H409.226ZM415.554 195.392L415.098 196.736C414.666 196.552 414.238 196.46 413.814 196.46C413.134 196.46 412.554 196.656 412.074 197.048C411.602 197.432 411.322 197.98 411.234 198.692C411.394 198.452 411.634 198.248 411.954 198.08C412.282 197.912 412.658 197.828 413.082 197.828C413.89 197.828 414.538 198.064 415.026 198.536C415.522 199.008 415.77 199.644 415.77 200.444C415.77 201.236 415.482 201.892 414.906 202.412C414.338 202.924 413.622 203.18 412.758 203.18C411.862 203.18 411.11 202.868 410.502 202.244C409.902 201.612 409.602 200.732 409.602 199.604C409.602 198.212 409.998 197.104 410.79 196.28C411.582 195.448 412.626 195.032 413.922 195.032C414.602 195.032 415.146 195.152 415.554 195.392ZM411.378 200.48C411.378 200.864 411.51 201.18 411.774 201.428C412.046 201.668 412.37 201.788 412.746 201.788C413.138 201.788 413.466 201.668 413.73 201.428C413.994 201.188 414.126 200.872 414.126 200.48C414.126 200.088 413.994 199.776 413.73 199.544C413.466 199.304 413.138 199.184 412.746 199.184C412.362 199.184 412.038 199.304 411.774 199.544C411.51 199.776 411.378 200.088 411.378 200.48ZM417.127 202.772C416.911 202.556 416.803 202.296 416.803 201.992C416.803 201.688 416.911 201.432 417.127 201.224C417.343 201.008 417.599 200.9 417.895 200.9C418.199 200.9 418.459 201.008 418.675 201.224C418.891 201.432 418.999 201.688 418.999 201.992C418.999 202.296 418.891 202.556 418.675 202.772C418.459 202.98 418.199 203.084 417.895 203.084C417.599 203.084 417.343 202.98 417.127 202.772ZM419.759 201.332V199.604L423.035 195.212H425.075V199.916H426.359V201.332H425.075V203H423.443V201.332H419.759ZM423.443 199.916V196.94L421.223 199.916H423.443ZM426.883 200.816L428.431 200.468C428.447 200.836 428.583 201.148 428.839 201.404C429.103 201.652 429.439 201.776 429.847 201.776C430.231 201.776 430.551 201.66 430.807 201.428C431.063 201.196 431.191 200.888 431.191 200.504C431.191 200.08 431.055 199.756 430.783 199.532C430.519 199.308 430.195 199.196 429.811 199.196C429.323 199.196 428.923 199.372 428.611 199.724C428.043 199.508 427.539 199.336 427.099 199.208L428.023 195.212H432.415V196.64H429.151L428.767 198.356C429.111 198.036 429.579 197.876 430.171 197.876C430.971 197.876 431.615 198.108 432.103 198.572C432.591 199.028 432.835 199.664 432.835 200.48C432.835 201.232 432.563 201.872 432.019 202.4C431.475 202.928 430.751 203.192 429.847 203.192C429.031 203.192 428.343 202.956 427.783 202.484C427.231 202.012 426.931 201.456 426.883 200.816Z" fill="#53616E" fill-opacity="0.5"/>
<circle cx="468" cy="231" r="8" fill="#F5F5F7"/>
<path d="M465.917 231.833C466.042 231.833 466.125 231.875 466.209 231.958L468.292 234.042C468.459 234.208 468.459 234.458 468.292 234.625C468.125 234.792 467.875 234.792 467.709 234.625L465.625 232.542C465.459 232.375 465.459 232.125 465.625 231.958C465.709 231.875 465.792 231.833 465.917 231.833Z" fill="#53616E"/>
<path d="M470.083 231.833C470.208 231.833 470.292 231.875 470.375 231.958C470.542 232.125 470.542 232.375 470.375 232.542L468.292 234.625C468.125 234.792 467.875 234.792 467.708 234.625C467.542 234.458 467.542 234.208 467.708 234.042L469.792 231.958C469.875 231.875 469.958 231.833 470.083 231.833Z" fill="#53616E"/>
<path d="M468 227.25C468.25 227.25 468.417 227.417 468.417 227.667V234.333C468.417 234.583 468.25 234.75 468 234.75C467.75 234.75 467.584 234.583 467.584 234.333V227.667C467.584 227.417 467.75 227.25 468 227.25Z" fill="#53616E"/>
<path d="M382.892 232.756L384.56 226.492H386.048L383.66 235H382.172L380.108 228.568L378.044 235H376.568L374.156 226.492H375.668L377.372 232.708L379.364 226.492H380.864L382.892 232.756ZM388.479 235H387.099V229.156H388.479V235ZM387.147 227.74C386.971 227.564 386.883 227.352 386.883 227.104C386.883 226.856 386.971 226.644 387.147 226.468C387.323 226.284 387.535 226.192 387.783 226.192C388.039 226.192 388.255 226.28 388.431 226.456C388.607 226.632 388.695 226.848 388.695 227.104C388.695 227.352 388.607 227.564 388.431 227.74C388.255 227.916 388.039 228.004 387.783 228.004C387.535 228.004 387.323 227.916 387.147 227.74ZM392.039 227.368V229.156H393.251V230.392H392.039V233.104C392.039 233.36 392.099 233.548 392.219 233.668C392.339 233.78 392.527 233.836 392.783 233.836C392.943 233.836 393.103 233.82 393.263 233.788V234.94C393.055 235.028 392.771 235.072 392.411 235.072C391.867 235.072 391.439 234.92 391.127 234.616C390.815 234.304 390.659 233.876 390.659 233.332V230.392H389.579V229.156H389.879C390.175 229.156 390.399 229.072 390.551 228.904C390.703 228.736 390.779 228.516 390.779 228.244V227.368H392.039ZM395.909 231.568V235H394.517V226.312H395.909V229.72C396.285 229.232 396.841 228.988 397.577 228.988C398.265 228.988 398.793 229.204 399.161 229.636C399.529 230.068 399.713 230.624 399.713 231.304V235H398.321V231.544C398.321 231.152 398.225 230.84 398.033 230.608C397.841 230.368 397.537 230.248 397.121 230.248C396.753 230.248 396.461 230.372 396.245 230.62C396.037 230.868 395.925 231.184 395.909 231.568ZM402.344 232.06C402.344 232.62 402.488 233.072 402.776 233.416C403.064 233.752 403.444 233.92 403.916 233.92C404.372 233.92 404.744 233.748 405.032 233.404C405.32 233.06 405.464 232.608 405.464 232.048C405.464 231.496 405.324 231.056 405.044 230.728C404.764 230.4 404.392 230.236 403.928 230.236C403.464 230.236 403.084 230.404 402.788 230.74C402.492 231.068 402.344 231.508 402.344 232.06ZM406.808 226.312V233.932C406.808 234.324 406.828 234.68 406.868 235H405.536C405.496 234.776 405.476 234.524 405.476 234.244C405.332 234.508 405.108 234.724 404.804 234.892C404.5 235.06 404.152 235.144 403.76 235.144C402.928 235.144 402.252 234.852 401.732 234.268C401.212 233.684 400.952 232.948 400.952 232.06C400.952 231.204 401.212 230.48 401.732 229.888C402.26 229.296 402.928 229 403.736 229C404.2 229 404.572 229.084 404.852 229.252C405.14 229.42 405.34 229.616 405.452 229.84V226.312H406.808ZM412.047 229.12V230.536C411.887 230.512 411.735 230.5 411.591 230.5C410.543 230.5 410.019 231.072 410.019 232.216V235H408.627V229.156H409.983V230.092C410.119 229.78 410.339 229.536 410.643 229.36C410.947 229.176 411.291 229.084 411.675 229.084C411.803 229.084 411.927 229.096 412.047 229.12ZM412.86 233.416C412.86 232.92 413.02 232.524 413.34 232.228C413.668 231.924 414.096 231.732 414.624 231.652L416.124 231.424C416.412 231.384 416.556 231.244 416.556 231.004C416.556 230.74 416.464 230.528 416.28 230.368C416.096 230.2 415.82 230.116 415.452 230.116C415.1 230.116 414.82 230.216 414.612 230.416C414.404 230.608 414.284 230.86 414.252 231.172L412.98 230.884C413.036 230.356 413.288 229.908 413.736 229.54C414.184 229.164 414.752 228.976 415.44 228.976C416.288 228.976 416.912 229.18 417.312 229.588C417.72 229.996 417.924 230.52 417.924 231.16V234.064C417.924 234.448 417.948 234.76 417.996 235H416.7C416.66 234.88 416.64 234.632 416.64 234.256C416.256 234.872 415.656 235.18 414.84 235.18C414.248 235.18 413.768 235.008 413.4 234.664C413.04 234.312 412.86 233.896 412.86 233.416ZM415.104 234.088C415.536 234.088 415.884 233.972 416.148 233.74C416.42 233.5 416.556 233.112 416.556 232.576V232.312L415.032 232.54C414.512 232.628 414.252 232.892 414.252 233.332C414.252 233.54 414.328 233.72 414.48 233.872C414.632 234.016 414.84 234.088 415.104 234.088ZM422.884 229.156H424.324L425.704 233.2L426.868 229.156H428.284L426.412 235H425.02L423.568 230.8L422.152 235H420.724L418.828 229.156H420.316L421.504 233.2L422.884 229.156ZM428.95 233.416C428.95 232.92 429.11 232.524 429.43 232.228C429.758 231.924 430.186 231.732 430.714 231.652L432.214 231.424C432.502 231.384 432.646 231.244 432.646 231.004C432.646 230.74 432.554 230.528 432.37 230.368C432.186 230.2 431.91 230.116 431.542 230.116C431.19 230.116 430.91 230.216 430.702 230.416C430.494 230.608 430.374 230.86 430.342 231.172L429.07 230.884C429.126 230.356 429.378 229.908 429.826 229.54C430.274 229.164 430.842 228.976 431.53 228.976C432.378 228.976 433.002 229.18 433.402 229.588C433.81 229.996 434.014 230.52 434.014 231.16V234.064C434.014 234.448 434.038 234.76 434.086 235H432.79C432.75 234.88 432.73 234.632 432.73 234.256C432.346 234.872 431.746 235.18 430.93 235.18C430.338 235.18 429.858 235.008 429.49 234.664C429.13 234.312 428.95 233.896 428.95 233.416ZM431.194 234.088C431.626 234.088 431.974 233.972 432.238 233.74C432.51 233.5 432.646 233.112 432.646 232.576V232.312L431.122 232.54C430.602 232.628 430.342 232.892 430.342 233.332C430.342 233.54 430.418 233.72 430.57 233.872C430.722 234.016 430.93 234.088 431.194 234.088ZM437.089 235H435.697V226.312H437.089V235ZM438.368 233.416L439.58 233.08C439.604 233.36 439.72 233.596 439.928 233.788C440.136 233.98 440.416 234.076 440.768 234.076C441.04 234.076 441.252 234.012 441.404 233.884C441.564 233.756 441.644 233.596 441.644 233.404C441.644 233.068 441.416 232.852 440.96 232.756L440.096 232.564C439.592 232.452 439.204 232.244 438.932 231.94C438.66 231.636 438.524 231.276 438.524 230.86C438.524 230.348 438.732 229.908 439.148 229.54C439.564 229.164 440.072 228.976 440.672 228.976C441.056 228.976 441.396 229.032 441.692 229.144C441.988 229.256 442.216 229.404 442.376 229.588C442.544 229.764 442.672 229.936 442.76 230.104C442.848 230.272 442.904 230.44 442.928 230.608L441.752 230.944C441.72 230.72 441.616 230.52 441.44 230.344C441.272 230.16 441.016 230.068 440.672 230.068C440.432 230.068 440.232 230.136 440.072 230.272C439.912 230.4 439.832 230.556 439.832 230.74C439.832 231.068 440.028 231.272 440.42 231.352L441.308 231.532C441.852 231.652 442.268 231.868 442.556 232.18C442.844 232.492 442.988 232.868 442.988 233.308C442.988 233.796 442.792 234.232 442.4 234.616C442.016 234.992 441.476 235.18 440.78 235.18C440.38 235.18 440.02 235.12 439.7 235C439.388 234.88 439.14 234.728 438.956 234.544C438.78 234.352 438.64 234.164 438.536 233.98C438.44 233.788 438.384 233.6 438.368 233.416Z" fill="#53616E"/>
<rect x="356" y="226" width="10" height="10" rx="5" fill="#0BB5FA"/>
<mask id="mask1_159_374" style="mask-type:luminance" maskUnits="userSpaceOnUse" x="356" y="226" width="10" height="10">
<rect x="356" y="226" width="10" height="10" rx="5" fill="white"/>
</mask>
<g mask="url(#mask1_159_374)">
</g>
<path d="M532.943 231.544L532.211 230.392L534.251 228.64H530.843V227.212H536.351V228.544L534.335 230.224C534.951 230.248 535.479 230.48 535.919 230.92C536.367 231.352 536.591 231.912 536.591 232.6C536.591 233.304 536.319 233.912 535.775 234.424C535.231 234.928 534.507 235.18 533.603 235.18C532.731 235.18 532.023 234.94 531.479 234.46C530.935 233.972 530.639 233.384 530.591 232.696L532.187 232.384C532.203 232.784 532.339 233.112 532.595 233.368C532.859 233.624 533.195 233.752 533.603 233.752C534.003 233.752 534.323 233.64 534.563 233.416C534.803 233.192 534.923 232.912 534.923 232.576C534.923 232.216 534.803 231.936 534.563 231.736C534.331 231.528 534.027 231.424 533.651 231.424C533.403 231.424 533.167 231.464 532.943 231.544ZM540.369 230.404C540.721 230.396 541.001 230.296 541.209 230.104C541.417 229.912 541.521 229.672 541.521 229.384C541.521 229.112 541.417 228.88 541.209 228.688C541.001 228.496 540.721 228.4 540.369 228.4C540.025 228.4 539.749 228.496 539.541 228.688C539.333 228.88 539.229 229.112 539.229 229.384C539.229 229.672 539.329 229.912 539.529 230.104C539.737 230.296 540.017 230.396 540.369 230.404ZM539.409 233.5C539.641 233.708 539.961 233.812 540.369 233.812C540.777 233.812 541.097 233.708 541.329 233.5C541.569 233.284 541.689 233.028 541.689 232.732C541.689 232.428 541.573 232.168 541.341 231.952C541.109 231.736 540.785 231.628 540.369 231.628C539.953 231.628 539.629 231.736 539.397 231.952C539.173 232.168 539.061 232.428 539.061 232.732C539.061 233.028 539.177 233.284 539.409 233.5ZM542.493 234.544C541.957 234.968 541.249 235.18 540.369 235.18C539.489 235.18 538.777 234.968 538.233 234.544C537.697 234.12 537.429 233.572 537.429 232.9C537.429 232.484 537.553 232.104 537.801 231.76C538.057 231.416 538.393 231.164 538.809 231.004C538.433 230.868 538.133 230.636 537.909 230.308C537.693 229.972 537.585 229.624 537.585 229.264C537.585 228.608 537.845 228.072 538.365 227.656C538.893 227.24 539.561 227.032 540.369 227.032C541.177 227.032 541.841 227.24 542.361 227.656C542.889 228.072 543.153 228.608 543.153 229.264C543.153 229.624 543.045 229.972 542.829 230.308C542.613 230.636 542.317 230.868 541.941 231.004C542.349 231.156 542.677 231.408 542.925 231.76C543.181 232.104 543.309 232.484 543.309 232.9C543.309 233.572 543.037 234.12 542.493 234.544ZM545.486 229.048C545.486 229.296 545.562 229.5 545.714 229.66C545.866 229.812 546.054 229.888 546.278 229.888C546.51 229.888 546.698 229.812 546.842 229.66C546.994 229.5 547.07 229.296 547.07 229.048C547.07 228.8 546.994 228.6 546.842 228.448C546.698 228.296 546.51 228.22 546.278 228.22C546.054 228.22 545.866 228.3 545.714 228.46C545.562 228.612 545.486 228.808 545.486 229.048ZM544.862 230.44C544.478 230.056 544.286 229.592 544.286 229.048C544.286 228.504 544.482 228.04 544.874 227.656C545.266 227.272 545.734 227.08 546.278 227.08C546.822 227.08 547.29 227.272 547.682 227.656C548.082 228.04 548.282 228.504 548.282 229.048C548.282 229.6 548.082 230.064 547.682 230.44C547.29 230.816 546.822 231.004 546.278 231.004C545.726 231.004 545.254 230.816 544.862 230.44ZM550.73 233.176C550.73 233.424 550.806 233.628 550.958 233.788C551.11 233.94 551.298 234.016 551.522 234.016C551.754 234.016 551.942 233.94 552.086 233.788C552.238 233.628 552.314 233.424 552.314 233.176C552.314 232.928 552.238 232.728 552.086 232.576C551.942 232.424 551.754 232.348 551.522 232.348C551.298 232.348 551.11 232.428 550.958 232.588C550.806 232.74 550.73 232.936 550.73 233.176ZM550.106 234.568C549.722 234.184 549.53 233.72 549.53 233.176C549.53 232.632 549.726 232.168 550.118 231.784C550.51 231.4 550.978 231.208 551.522 231.208C552.066 231.208 552.534 231.4 552.926 231.784C553.326 232.168 553.526 232.632 553.526 233.176C553.526 233.728 553.326 234.192 552.926 234.568C552.534 234.944 552.066 235.132 551.522 235.132C550.97 235.132 550.498 234.944 550.106 234.568ZM546.854 235H545.462L550.958 227.212H552.35L546.854 235Z" fill="#53616E"/>
<path d="M378.32 263.404H377.096V262.12C376.32 262.016 375.712 261.724 375.272 261.244C374.84 260.764 374.592 260.236 374.528 259.66L376.016 259.3C376.056 259.716 376.216 260.064 376.496 260.344C376.776 260.616 377.176 260.752 377.696 260.752C378.08 260.752 378.38 260.672 378.596 260.512C378.82 260.344 378.932 260.124 378.932 259.852C378.932 259.412 378.632 259.128 378.032 259L376.928 258.76C376.272 258.616 375.756 258.348 375.38 257.956C375.012 257.556 374.828 257.072 374.828 256.504C374.828 255.88 375.04 255.348 375.464 254.908C375.896 254.468 376.44 254.196 377.096 254.092V252.808H378.32V254.128C378.952 254.24 379.444 254.488 379.796 254.872C380.148 255.248 380.372 255.672 380.468 256.144L378.992 256.564C378.944 256.284 378.812 256.028 378.596 255.796C378.388 255.564 378.064 255.448 377.624 255.448C377.256 255.448 376.964 255.54 376.748 255.724C376.54 255.908 376.436 256.128 376.436 256.384C376.436 256.8 376.712 257.068 377.264 257.188L378.356 257.44C379.084 257.6 379.632 257.888 380 258.304C380.368 258.712 380.552 259.196 380.552 259.756C380.552 260.332 380.352 260.84 379.952 261.28C379.56 261.72 379.016 261.996 378.32 262.108V263.404ZM383.224 257.224L381.652 257.176C381.612 256.992 381.592 256.812 381.592 256.636C381.592 255.916 381.848 255.304 382.36 254.8C382.872 254.288 383.564 254.032 384.436 254.032C385.284 254.032 385.964 254.276 386.476 254.764C386.988 255.244 387.244 255.836 387.244 256.54C387.244 257.532 386.74 258.336 385.732 258.952L384.232 259.864C383.88 260.088 383.656 260.324 383.56 260.572H387.292V262H381.532C381.54 261.272 381.68 260.636 381.952 260.092C382.232 259.548 382.704 259.076 383.368 258.676L384.652 257.908C385.268 257.54 385.576 257.092 385.576 256.564C385.576 256.268 385.472 256.016 385.264 255.808C385.064 255.6 384.776 255.496 384.4 255.496C384 255.496 383.692 255.616 383.476 255.856C383.268 256.096 383.164 256.408 383.164 256.792C383.164 256.936 383.184 257.08 383.224 257.224ZM389.74 257.224L388.168 257.176C388.128 256.992 388.108 256.812 388.108 256.636C388.108 255.916 388.364 255.304 388.876 254.8C389.388 254.288 390.08 254.032 390.952 254.032C391.8 254.032 392.48 254.276 392.992 254.764C393.504 255.244 393.76 255.836 393.76 256.54C393.76 257.532 393.256 258.336 392.248 258.952L390.748 259.864C390.396 260.088 390.172 260.324 390.076 260.572H393.808V262H388.048C388.056 261.272 388.196 260.636 388.468 260.092C388.748 259.548 389.22 259.076 389.884 258.676L391.168 257.908C391.784 257.54 392.092 257.092 392.092 256.564C392.092 256.268 391.988 256.016 391.78 255.808C391.58 255.6 391.292 255.496 390.916 255.496C390.516 255.496 390.208 255.616 389.992 255.856C389.784 256.096 389.68 256.408 389.68 256.792C389.68 256.936 389.7 257.08 389.74 257.224ZM395.188 261.76C395.004 261.568 394.912 261.328 394.912 261.04C394.912 260.752 395.016 260.512 395.224 260.32C395.432 260.128 395.692 260.032 396.004 260.032C396.364 260.032 396.652 260.164 396.868 260.428C397.084 260.684 397.192 261.012 397.192 261.412C397.192 262.212 396.972 262.832 396.532 263.272C396.1 263.712 395.616 263.964 395.08 264.028V263.26C395.368 263.196 395.628 263.04 395.86 262.792C396.092 262.552 396.212 262.276 396.22 261.964C396.156 262.012 396.052 262.036 395.908 262.036C395.612 262.036 395.372 261.944 395.188 261.76ZM404.14 254.392L403.684 255.736C403.252 255.552 402.824 255.46 402.4 255.46C401.72 255.46 401.14 255.656 400.66 256.048C400.188 256.432 399.908 256.98 399.82 257.692C399.98 257.452 400.22 257.248 400.54 257.08C400.868 256.912 401.244 256.828 401.668 256.828C402.476 256.828 403.124 257.064 403.612 257.536C404.108 258.008 404.356 258.644 404.356 259.444C404.356 260.236 404.068 260.892 403.492 261.412C402.924 261.924 402.208 262.18 401.344 262.18C400.448 262.18 399.696 261.868 399.088 261.244C398.488 260.612 398.188 259.732 398.188 258.604C398.188 257.212 398.584 256.104 399.376 255.28C400.168 254.448 401.212 254.032 402.508 254.032C403.188 254.032 403.732 254.152 404.14 254.392ZM399.964 259.48C399.964 259.864 400.096 260.18 400.36 260.428C400.632 260.668 400.956 260.788 401.332 260.788C401.724 260.788 402.052 260.668 402.316 260.428C402.58 260.188 402.712 259.872 402.712 259.48C402.712 259.088 402.58 258.776 402.316 258.544C402.052 258.304 401.724 258.184 401.332 258.184C400.948 258.184 400.624 258.304 400.36 258.544C400.096 258.776 399.964 259.088 399.964 259.48ZM407.236 256.132C406.956 256.572 406.816 257.232 406.816 258.112C406.816 258.992 406.956 259.652 407.236 260.092C407.5 260.516 407.892 260.728 408.412 260.728C408.924 260.728 409.312 260.516 409.576 260.092C409.864 259.66 410.008 259 410.008 258.112C410.008 257.224 409.864 256.564 409.576 256.132C409.312 255.708 408.924 255.496 408.412 255.496C407.892 255.496 407.5 255.708 407.236 256.132ZM405.844 260.884C405.388 260.188 405.16 259.264 405.16 258.112C405.16 256.96 405.388 256.036 405.844 255.34C406.428 254.468 407.284 254.032 408.412 254.032C409.54 254.032 410.392 254.468 410.968 255.34C411.432 256.044 411.664 256.968 411.664 258.112C411.664 259.256 411.432 260.18 410.968 260.884C410.392 261.756 409.54 262.192 408.412 262.192C407.284 262.192 406.428 261.756 405.844 260.884ZM412.54 260.332V258.604L415.816 254.212H417.856V258.916H419.14V260.332H417.856V262H416.224V260.332H412.54ZM416.224 258.916V255.94L414.004 258.916H416.224ZM420.408 261.772C420.192 261.556 420.084 261.296 420.084 260.992C420.084 260.688 420.192 260.432 420.408 260.224C420.624 260.008 420.88 259.9 421.176 259.9C421.48 259.9 421.74 260.008 421.956 260.224C422.172 260.432 422.28 260.688 422.28 260.992C422.28 261.296 422.172 261.556 421.956 261.772C421.74 261.98 421.48 262.084 421.176 262.084C420.88 262.084 420.624 261.98 420.408 261.772ZM425.611 258.544L424.879 257.392L426.919 255.64H423.511V254.212H429.019V255.544L427.003 257.224C427.619 257.248 428.147 257.48 428.587 257.92C429.035 258.352 429.259 258.912 429.259 259.6C429.259 260.304 428.987 260.912 428.443 261.424C427.899 261.928 427.175 262.18 426.271 262.18C425.399 262.18 424.691 261.94 424.147 261.46C423.603 260.972 423.307 260.384 423.259 259.696L424.855 259.384C424.871 259.784 425.007 260.112 425.263 260.368C425.527 260.624 425.863 260.752 426.271 260.752C426.671 260.752 426.991 260.64 427.231 260.416C427.471 260.192 427.591 259.912 427.591 259.576C427.591 259.216 427.471 258.936 427.231 258.736C426.999 258.528 426.695 258.424 426.319 258.424C426.071 258.424 425.835 258.464 425.611 258.544ZM429.977 259.816L431.525 259.468C431.541 259.836 431.677 260.148 431.933 260.404C432.197 260.652 432.533 260.776 432.941 260.776C433.325 260.776 433.645 260.66 433.901 260.428C434.157 260.196 434.285 259.888 434.285 259.504C434.285 259.08 434.149 258.756 433.877 258.532C433.613 258.308 433.289 258.196 432.905 258.196C432.417 258.196 432.017 258.372 431.705 258.724C431.137 258.508 430.633 258.336 430.193 258.208L431.117 254.212H435.509V255.64H432.245L431.861 257.356C432.205 257.036 432.673 256.876 433.265 256.876C434.065 256.876 434.709 257.108 435.197 257.572C435.685 258.028 435.929 258.664 435.929 259.48C435.929 260.232 435.657 260.872 435.113 261.4C434.569 261.928 433.845 262.192 432.941 262.192C432.125 262.192 431.437 261.956 430.877 261.484C430.325 261.012 430.025 260.456 429.977 259.816Z" fill="#53616E" fill-opacity="0.5"/>
<circle cx="468" cy="290" r="8" fill="#F5F5F7"/>
<path d="M470.063 290.955C469.974 290.867 469.945 290.778 469.945 290.66L469.945 287.714C469.945 287.478 470.122 287.302 470.357 287.302C470.593 287.302 470.77 287.478 470.77 287.714L470.77 290.66C470.77 290.896 470.593 291.073 470.357 291.073C470.24 291.073 470.151 291.043 470.063 290.955Z" fill="#53616E"/>
<path d="M467.116 288.009C467.028 287.92 466.998 287.832 466.998 287.714C466.998 287.478 467.175 287.302 467.411 287.302L470.357 287.302C470.593 287.302 470.769 287.478 470.769 287.714C470.769 287.95 470.593 288.126 470.357 288.126L467.411 288.126C467.293 288.126 467.204 288.097 467.116 288.009Z" fill="#53616E"/>
<path d="M465.349 292.723C465.172 292.546 465.172 292.31 465.349 292.133L470.063 287.419C470.24 287.243 470.475 287.243 470.652 287.419C470.829 287.596 470.829 287.832 470.652 288.009L465.938 292.723C465.761 292.899 465.526 292.899 465.349 292.723Z" fill="#53616E"/>
<path d="M381.128 286.848H378.356V294H376.916V286.848H374.156V285.492H381.128V286.848ZM382.456 292.44C382.776 292.768 383.164 292.932 383.62 292.932C384.076 292.932 384.46 292.768 384.772 292.44C385.092 292.112 385.252 291.656 385.252 291.072C385.252 290.496 385.092 290.048 384.772 289.728C384.46 289.4 384.076 289.236 383.62 289.236C383.164 289.236 382.776 289.4 382.456 289.728C382.144 290.048 381.988 290.496 381.988 291.072C381.988 291.648 382.144 292.104 382.456 292.44ZM383.62 287.976C384.5 287.976 385.224 288.268 385.792 288.852C386.368 289.436 386.656 290.176 386.656 291.072C386.656 291.968 386.368 292.712 385.792 293.304C385.224 293.888 384.5 294.18 383.62 294.18C382.748 294.18 382.024 293.888 381.448 293.304C380.88 292.712 380.596 291.968 380.596 291.072C380.596 290.176 380.88 289.436 381.448 288.852C382.024 288.268 382.748 287.976 383.62 287.976ZM389.73 286.368V288.156H390.942V289.392H389.73V292.104C389.73 292.36 389.79 292.548 389.91 292.668C390.03 292.78 390.218 292.836 390.474 292.836C390.634 292.836 390.794 292.82 390.954 292.788V293.94C390.746 294.028 390.462 294.072 390.102 294.072C389.558 294.072 389.13 293.92 388.818 293.616C388.506 293.304 388.35 292.876 388.35 292.332V289.392H387.27V288.156H387.57C387.866 288.156 388.09 288.072 388.242 287.904C388.394 287.736 388.47 287.516 388.47 287.244V286.368H389.73ZM392.024 292.416C392.024 291.92 392.184 291.524 392.504 291.228C392.832 290.924 393.26 290.732 393.788 290.652L395.288 290.424C395.576 290.384 395.72 290.244 395.72 290.004C395.72 289.74 395.628 289.528 395.444 289.368C395.26 289.2 394.984 289.116 394.616 289.116C394.264 289.116 393.984 289.216 393.776 289.416C393.568 289.608 393.448 289.86 393.416 290.172L392.144 289.884C392.2 289.356 392.452 288.908 392.9 288.54C393.348 288.164 393.916 287.976 394.604 287.976C395.452 287.976 396.076 288.18 396.476 288.588C396.884 288.996 397.088 289.52 397.088 290.16V293.064C397.088 293.448 397.112 293.76 397.16 294H395.864C395.824 293.88 395.804 293.632 395.804 293.256C395.42 293.872 394.82 294.18 394.004 294.18C393.412 294.18 392.932 294.008 392.564 293.664C392.204 293.312 392.024 292.896 392.024 292.416ZM394.268 293.088C394.7 293.088 395.048 292.972 395.312 292.74C395.584 292.5 395.72 292.112 395.72 291.576V291.312L394.196 291.54C393.676 291.628 393.416 291.892 393.416 292.332C393.416 292.54 393.492 292.72 393.644 292.872C393.796 293.016 394.004 293.088 394.268 293.088ZM400.163 294H398.771V285.312H400.163V294ZM406.855 287.484C406.295 288.02 406.015 288.772 406.015 289.74C406.015 290.708 406.295 291.464 406.855 292.008C407.415 292.544 408.083 292.812 408.859 292.812C409.635 292.812 410.303 292.544 410.863 292.008C411.431 291.464 411.715 290.708 411.715 289.74C411.715 288.772 411.431 288.02 410.863 287.484C410.303 286.94 409.635 286.668 408.859 286.668C408.083 286.668 407.415 286.94 406.855 287.484ZM405.151 292.116C404.743 291.428 404.539 290.636 404.539 289.74C404.539 288.844 404.743 288.056 405.151 287.376C405.567 286.688 406.099 286.172 406.747 285.828C407.395 285.484 408.099 285.312 408.859 285.312C409.619 285.312 410.323 285.484 410.971 285.828C411.619 286.172 412.151 286.688 412.567 287.376C412.983 288.056 413.191 288.844 413.191 289.74C413.191 290.636 412.983 291.428 412.567 292.116C412.151 292.804 411.619 293.32 410.971 293.664C410.323 294.008 409.619 294.18 408.859 294.18C408.099 294.18 407.395 294.008 406.747 293.664C406.099 293.32 405.567 292.804 405.151 292.116ZM418.395 293.352C418.259 293.608 418.035 293.808 417.723 293.952C417.419 294.096 417.091 294.168 416.739 294.168C416.059 294.168 415.519 293.948 415.119 293.508C414.727 293.068 414.531 292.512 414.531 291.84V288.156H415.923V291.588C415.923 291.98 416.019 292.3 416.211 292.548C416.403 292.796 416.699 292.92 417.099 292.92C417.491 292.92 417.791 292.8 417.999 292.56C418.215 292.32 418.323 292.004 418.323 291.612V288.156H419.715V292.932C419.715 293.284 419.735 293.64 419.775 294H418.443C418.411 293.824 418.395 293.608 418.395 293.352ZM423.281 286.368V288.156H424.493V289.392H423.281V292.104C423.281 292.36 423.341 292.548 423.461 292.668C423.581 292.78 423.769 292.836 424.025 292.836C424.185 292.836 424.345 292.82 424.505 292.788V293.94C424.297 294.028 424.013 294.072 423.653 294.072C423.109 294.072 422.681 293.92 422.369 293.616C422.057 293.304 421.901 292.876 421.901 292.332V289.392H420.821V288.156H421.121C421.417 288.156 421.641 288.072 421.793 287.904C421.945 287.736 422.021 287.516 422.021 287.244V286.368H423.281ZM428.492 286.5C428.268 286.5 428.068 286.568 427.892 286.704C427.716 286.84 427.628 287.068 427.628 287.388V288.156H430.124V285.312H431.504V294H430.124V289.368H427.628V294H426.224V289.368H425.204V288.156H426.224V287.352C426.224 286.704 426.412 286.192 426.788 285.816C427.164 285.44 427.656 285.252 428.264 285.252C428.592 285.252 428.836 285.292 428.996 285.372V286.56C428.86 286.52 428.692 286.5 428.492 286.5ZM434.71 292.44C435.03 292.768 435.418 292.932 435.874 292.932C436.33 292.932 436.714 292.768 437.026 292.44C437.346 292.112 437.506 291.656 437.506 291.072C437.506 290.496 437.346 290.048 437.026 289.728C436.714 289.4 436.33 289.236 435.874 289.236C435.418 289.236 435.03 289.4 434.71 289.728C434.398 290.048 434.242 290.496 434.242 291.072C434.242 291.648 434.398 292.104 434.71 292.44ZM435.874 287.976C436.754 287.976 437.478 288.268 438.046 288.852C438.622 289.436 438.91 290.176 438.91 291.072C438.91 291.968 438.622 292.712 438.046 293.304C437.478 293.888 436.754 294.18 435.874 294.18C435.002 294.18 434.278 293.888 433.702 293.304C433.134 292.712 432.85 291.968 432.85 291.072C432.85 290.176 433.134 289.436 433.702 288.852C434.278 288.268 435.002 287.976 435.874 287.976ZM443.427 288.156H444.867L446.247 292.2L447.411 288.156H448.827L446.955 294H445.563L444.111 289.8L442.695 294H441.267L439.371 288.156H440.859L442.047 292.2L443.427 288.156Z" fill="#53616E"/>
<rect x="356" y="285" width="10" height="10" rx="5" fill="#1AC6FF"/>
<mask id="mask2_159_374" style="mask-type:luminance" maskUnits="userSpaceOnUse" x="356" y="285" width="10" height="10">
<rect x="356" y="285" width="10" height="10" rx="5" fill="white"/>
</mask>
<g mask="url(#mask2_159_374)">
</g>
<path d="M532.267 290.544L531.535 289.392L533.575 287.64H530.167V286.212H535.675V287.544L533.659 289.224C534.275 289.248 534.803 289.48 535.243 289.92C535.691 290.352 535.915 290.912 535.915 291.6C535.915 292.304 535.643 292.912 535.099 293.424C534.555 293.928 533.831 294.18 532.927 294.18C532.055 294.18 531.347 293.94 530.803 293.46C530.259 292.972 529.963 292.384 529.915 291.696L531.511 291.384C531.527 291.784 531.663 292.112 531.919 292.368C532.183 292.624 532.519 292.752 532.927 292.752C533.327 292.752 533.647 292.64 533.887 292.416C534.127 292.192 534.247 291.912 534.247 291.576C534.247 291.216 534.127 290.936 533.887 290.736C533.655 290.528 533.351 290.424 532.975 290.424C532.727 290.424 532.491 290.464 532.267 290.544ZM539.693 289.404C540.045 289.396 540.325 289.296 540.533 289.104C540.741 288.912 540.845 288.672 540.845 288.384C540.845 288.112 540.741 287.88 540.533 287.688C540.325 287.496 540.045 287.4 539.693 287.4C539.349 287.4 539.073 287.496 538.865 287.688C538.657 287.88 538.553 288.112 538.553 288.384C538.553 288.672 538.653 288.912 538.853 289.104C539.061 289.296 539.341 289.396 539.693 289.404ZM538.733 292.5C538.965 292.708 539.285 292.812 539.693 292.812C540.101 292.812 540.421 292.708 540.653 292.5C540.893 292.284 541.013 292.028 541.013 291.732C541.013 291.428 540.897 291.168 540.665 290.952C540.433 290.736 540.109 290.628 539.693 290.628C539.277 290.628 538.953 290.736 538.721 290.952C538.497 291.168 538.385 291.428 538.385 291.732C538.385 292.028 538.501 292.284 538.733 292.5ZM541.817 293.544C541.281 293.968 540.573 294.18 539.693 294.18C538.813 294.18 538.101 293.968 537.557 293.544C537.021 293.12 536.753 292.572 536.753 291.9C536.753 291.484 536.877 291.104 537.125 290.76C537.381 290.416 537.717 290.164 538.133 290.004C537.757 289.868 537.457 289.636 537.233 289.308C537.017 288.972 536.909 288.624 536.909 288.264C536.909 287.608 537.169 287.072 537.689 286.656C538.217 286.24 538.885 286.032 539.693 286.032C540.501 286.032 541.165 286.24 541.685 286.656C542.213 287.072 542.477 287.608 542.477 288.264C542.477 288.624 542.369 288.972 542.153 289.308C541.937 289.636 541.641 289.868 541.265 290.004C541.673 290.156 542.001 290.408 542.249 290.76C542.505 291.104 542.633 291.484 542.633 291.9C542.633 292.572 542.361 293.12 541.817 293.544ZM544.81 288.048C544.81 288.296 544.886 288.5 545.038 288.66C545.19 288.812 545.378 288.888 545.602 288.888C545.834 288.888 546.022 288.812 546.166 288.66C546.318 288.5 546.394 288.296 546.394 288.048C546.394 287.8 546.318 287.6 546.166 287.448C546.022 287.296 545.834 287.22 545.602 287.22C545.378 287.22 545.19 287.3 545.038 287.46C544.886 287.612 544.81 287.808 544.81 288.048ZM544.186 289.44C543.802 289.056 543.61 288.592 543.61 288.048C543.61 287.504 543.806 287.04 544.198 286.656C544.59 286.272 545.058 286.08 545.602 286.08C546.146 286.08 546.614 286.272 547.006 286.656C547.406 287.04 547.606 287.504 547.606 288.048C547.606 288.6 547.406 289.064 547.006 289.44C546.614 289.816 546.146 290.004 545.602 290.004C545.05 290.004 544.578 289.816 544.186 289.44ZM550.054 292.176C550.054 292.424 550.13 292.628 550.282 292.788C550.434 292.94 550.622 293.016 550.846 293.016C551.078 293.016 551.266 292.94 551.41 292.788C551.562 292.628 551.638 292.424 551.638 292.176C551.638 291.928 551.562 291.728 551.41 291.576C551.266 291.424 551.078 291.348 550.846 291.348C550.622 291.348 550.434 291.428 550.282 291.588C550.13 291.74 550.054 291.936 550.054 292.176ZM549.43 293.568C549.046 293.184 548.854 292.72 548.854 292.176C548.854 291.632 549.05 291.168 549.442 290.784C549.834 290.4 550.302 290.208 550.846 290.208C551.39 290.208 551.858 290.4 552.25 290.784C552.65 291.168 552.85 291.632 552.85 292.176C552.85 292.728 552.65 293.192 552.25 293.568C551.858 293.944 551.39 294.132 550.846 294.132C550.294 294.132 549.822 293.944 549.43 293.568ZM546.178 294H544.786L550.282 286.212H551.674L546.178 294Z" fill="#53616E"/>
<path d="M378.32 322.404H377.096V321.12C376.32 321.016 375.712 320.724 375.272 320.244C374.84 319.764 374.592 319.236 374.528 318.66L376.016 318.3C376.056 318.716 376.216 319.064 376.496 319.344C376.776 319.616 377.176 319.752 377.696 319.752C378.08 319.752 378.38 319.672 378.596 319.512C378.82 319.344 378.932 319.124 378.932 318.852C378.932 318.412 378.632 318.128 378.032 318L376.928 317.76C376.272 317.616 375.756 317.348 375.38 316.956C375.012 316.556 374.828 316.072 374.828 315.504C374.828 314.88 375.04 314.348 375.464 313.908C375.896 313.468 376.44 313.196 377.096 313.092V311.808H378.32V313.128C378.952 313.24 379.444 313.488 379.796 313.872C380.148 314.248 380.372 314.672 380.468 315.144L378.992 315.564C378.944 315.284 378.812 315.028 378.596 314.796C378.388 314.564 378.064 314.448 377.624 314.448C377.256 314.448 376.964 314.54 376.748 314.724C376.54 314.908 376.436 315.128 376.436 315.384C376.436 315.8 376.712 316.068 377.264 316.188L378.356 316.44C379.084 316.6 379.632 316.888 380 317.304C380.368 317.712 380.552 318.196 380.552 318.756C380.552 319.332 380.352 319.84 379.952 320.28C379.56 320.72 379.016 320.996 378.32 321.108V322.404ZM383.224 316.224L381.652 316.176C381.612 315.992 381.592 315.812 381.592 315.636C381.592 314.916 381.848 314.304 382.36 313.8C382.872 313.288 383.564 313.032 384.436 313.032C385.284 313.032 385.964 313.276 386.476 313.764C386.988 314.244 387.244 314.836 387.244 315.54C387.244 316.532 386.74 317.336 385.732 317.952L384.232 318.864C383.88 319.088 383.656 319.324 383.56 319.572H387.292V321H381.532C381.54 320.272 381.68 319.636 381.952 319.092C382.232 318.548 382.704 318.076 383.368 317.676L384.652 316.908C385.268 316.54 385.576 316.092 385.576 315.564C385.576 315.268 385.472 315.016 385.264 314.808C385.064 314.6 384.776 314.496 384.4 314.496C384 314.496 383.692 314.616 383.476 314.856C383.268 315.096 383.164 315.408 383.164 315.792C383.164 315.936 383.184 316.08 383.224 316.224ZM389.74 316.224L388.168 316.176C388.128 315.992 388.108 315.812 388.108 315.636C388.108 314.916 388.364 314.304 388.876 313.8C389.388 313.288 390.08 313.032 390.952 313.032C391.8 313.032 392.48 313.276 392.992 313.764C393.504 314.244 393.76 314.836 393.76 315.54C393.76 316.532 393.256 317.336 392.248 317.952L390.748 318.864C390.396 319.088 390.172 319.324 390.076 319.572H393.808V321H388.048C388.056 320.272 388.196 319.636 388.468 319.092C388.748 318.548 389.22 318.076 389.884 317.676L391.168 316.908C391.784 316.54 392.092 316.092 392.092 315.564C392.092 315.268 391.988 315.016 391.78 314.808C391.58 314.6 391.292 314.496 390.916 314.496C390.516 314.496 390.208 314.616 389.992 314.856C389.784 315.096 389.68 315.408 389.68 315.792C389.68 315.936 389.7 316.08 389.74 316.224ZM395.188 320.76C395.004 320.568 394.912 320.328 394.912 320.04C394.912 319.752 395.016 319.512 395.224 319.32C395.432 319.128 395.692 319.032 396.004 319.032C396.364 319.032 396.652 319.164 396.868 319.428C397.084 319.684 397.192 320.012 397.192 320.412C397.192 321.212 396.972 321.832 396.532 322.272C396.1 322.712 395.616 322.964 395.08 323.028V322.26C395.368 322.196 395.628 322.04 395.86 321.792C396.092 321.552 396.212 321.276 396.22 320.964C396.156 321.012 396.052 321.036 395.908 321.036C395.612 321.036 395.372 320.944 395.188 320.76ZM404.14 313.392L403.684 314.736C403.252 314.552 402.824 314.46 402.4 314.46C401.72 314.46 401.14 314.656 400.66 315.048C400.188 315.432 399.908 315.98 399.82 316.692C399.98 316.452 400.22 316.248 400.54 316.08C400.868 315.912 401.244 315.828 401.668 315.828C402.476 315.828 403.124 316.064 403.612 316.536C404.108 317.008 404.356 317.644 404.356 318.444C404.356 319.236 404.068 319.892 403.492 320.412C402.924 320.924 402.208 321.18 401.344 321.18C400.448 321.18 399.696 320.868 399.088 320.244C398.488 319.612 398.188 318.732 398.188 317.604C398.188 316.212 398.584 315.104 399.376 314.28C400.168 313.448 401.212 313.032 402.508 313.032C403.188 313.032 403.732 313.152 404.14 313.392ZM399.964 318.48C399.964 318.864 400.096 319.18 400.36 319.428C400.632 319.668 400.956 319.788 401.332 319.788C401.724 319.788 402.052 319.668 402.316 319.428C402.58 319.188 402.712 318.872 402.712 318.48C402.712 318.088 402.58 317.776 402.316 317.544C402.052 317.304 401.724 317.184 401.332 317.184C400.948 317.184 400.624 317.304 400.36 317.544C400.096 317.776 399.964 318.088 399.964 318.48ZM407.236 315.132C406.956 315.572 406.816 316.232 406.816 317.112C406.816 317.992 406.956 318.652 407.236 319.092C407.5 319.516 407.892 319.728 408.412 319.728C408.924 319.728 409.312 319.516 409.576 319.092C409.864 318.66 410.008 318 410.008 317.112C410.008 316.224 409.864 315.564 409.576 315.132C409.312 314.708 408.924 314.496 408.412 314.496C407.892 314.496 407.5 314.708 407.236 315.132ZM405.844 319.884C405.388 319.188 405.16 318.264 405.16 317.112C405.16 315.96 405.388 315.036 405.844 314.34C406.428 313.468 407.284 313.032 408.412 313.032C409.54 313.032 410.392 313.468 410.968 314.34C411.432 315.044 411.664 315.968 411.664 317.112C411.664 318.256 411.432 319.18 410.968 319.884C410.392 320.756 409.54 321.192 408.412 321.192C407.284 321.192 406.428 320.756 405.844 319.884ZM412.54 319.332V317.604L415.816 313.212H417.856V317.916H419.14V319.332H417.856V321H416.224V319.332H412.54ZM416.224 317.916V314.94L414.004 317.916H416.224ZM420.408 320.772C420.192 320.556 420.084 320.296 420.084 319.992C420.084 319.688 420.192 319.432 420.408 319.224C420.624 319.008 420.88 318.9 421.176 318.9C421.48 318.9 421.74 319.008 421.956 319.224C422.172 319.432 422.28 319.688 422.28 319.992C422.28 320.296 422.172 320.556 421.956 320.772C421.74 320.98 421.48 321.084 421.176 321.084C420.88 321.084 420.624 320.98 420.408 320.772ZM425.611 317.544L424.879 316.392L426.919 314.64H423.511V313.212H429.019V314.544L427.003 316.224C427.619 316.248 428.147 316.48 428.587 316.92C429.035 317.352 429.259 317.912 429.259 318.6C429.259 319.304 428.987 319.912 428.443 320.424C427.899 320.928 427.175 321.18 426.271 321.18C425.399 321.18 424.691 320.94 424.147 320.46C423.603 319.972 423.307 319.384 423.259 318.696L424.855 318.384C424.871 318.784 425.007 319.112 425.263 319.368C425.527 319.624 425.863 319.752 426.271 319.752C426.671 319.752 426.991 319.64 427.231 319.416C427.471 319.192 427.591 318.912 427.591 318.576C427.591 318.216 427.471 317.936 427.231 317.736C426.999 317.528 426.695 317.424 426.319 317.424C426.071 317.424 425.835 317.464 425.611 317.544ZM429.977 318.816L431.525 318.468C431.541 318.836 431.677 319.148 431.933 319.404C432.197 319.652 432.533 319.776 432.941 319.776C433.325 319.776 433.645 319.66 433.901 319.428C434.157 319.196 434.285 318.888 434.285 318.504C434.285 318.08 434.149 317.756 433.877 317.532C433.613 317.308 433.289 317.196 432.905 317.196C432.417 317.196 432.017 317.372 431.705 317.724C431.137 317.508 430.633 317.336 430.193 317.208L431.117 313.212H435.509V314.64H432.245L431.861 316.356C432.205 316.036 432.673 315.876 433.265 315.876C434.065 315.876 434.709 316.108 435.197 316.572C435.685 317.028 435.929 317.664 435.929 318.48C435.929 319.232 435.657 319.872 435.113 320.4C434.569 320.928 433.845 321.192 432.941 321.192C432.125 321.192 431.437 320.956 430.877 320.484C430.325 320.012 430.025 319.456 429.977 318.816Z" fill="#53616E" fill-opacity="0.5"/>
<defs>
<clipPath id="clip0_159_374">
<rect width="226" height="226" fill="white" transform="translate(48 131)"/>
</clipPath>
<clipPath id="clip1_159_374">
<rect width="136" height="55" fill="white" transform="translate(93 217)"/>
</clipPath>
</defs>
</svg>
