<svg width="213" height="207" viewBox="0 0 213 207" fill="none" xmlns="http://www.w3.org/2000/svg">
<g clip-path="url(#clip0_478_48)">
<path d="M24.4819 85.6407C24.6826 85.3363 24.9372 85.0374 24.6719 84.6435L24.2458 85.5023C24.252 85.6613 24.3373 85.7037 24.4791 85.6464L24.4819 85.6407Z" fill="white"/>
<path d="M24.4818 85.6408C24.405 85.5956 24.3282 85.5504 24.2485 85.4967L23.9663 86.0654C24.3329 86.1552 24.3973 85.8824 24.4846 85.6351L24.4818 85.6408Z" fill="#6D6D6D"/>
<path d="M184.951 93.8485C181.184 92.341 177.731 90.259 174.416 87.955C173.699 87.4575 172.959 87.0481 172.073 87.1047C170.989 87.1762 170.125 87.69 169.713 88.7192C169.251 89.8649 169.731 90.8118 170.605 91.536C173.298 93.7652 176.079 95.889 179.004 97.8222C183.087 100.521 187.409 102.78 191.707 105.103C194.065 106.379 196.607 105.826 197.851 103.105C200.824 96.5708 203.396 89.9015 205.328 82.9928C205.864 81.083 206.148 79.1399 205.066 77.292C203.587 74.758 200.986 74.6724 199.33 77.0967C198.126 78.8524 197.714 80.881 197.335 82.9181C196.424 87.7537 194.339 92.184 192.635 96.7466C192.323 97.5909 191.83 97.2403 191.384 97.0259C189.237 95.9819 187.104 94.9095 184.966 93.8484L184.951 93.8485Z" fill="#6A5ACD"/>
<path fill-rule="evenodd" clip-rule="evenodd" d="M22.2362 91.4928C22.6863 90.1905 23.1361 88.8891 23.2556 87.4986L23.9639 86.071C24.1846 86.0079 24.27 85.8294 24.3539 85.6537C24.3768 85.6058 24.3996 85.5581 24.425 85.5131C24.4561 85.4296 24.5002 85.3501 24.5443 85.2708C24.6516 85.0775 24.7583 84.8852 24.675 84.6377L27.9343 78.0685C28.2187 78.1014 28.3286 77.91 28.4382 77.7191C28.4578 77.685 28.4774 77.6509 28.498 77.6182C31.6765 72.4689 35.6465 68.0243 40.431 64.3239C48.6601 57.9807 57.8528 54.7522 68.3366 55.8216C76.5338 56.6566 83.9345 59.7402 90.9466 63.8926C90.9824 63.9138 91.0175 63.9346 91.0519 63.9551C92.7754 64.9781 92.7805 64.9811 94.0082 63.1789C97.3916 58.2023 101.672 54.1173 106.691 50.8449C117.675 43.6783 129.819 40.9717 142.801 41.863C151.225 42.4418 159.052 44.9788 166.01 49.827C173.827 55.2717 179.352 62.6203 183.212 71.2687C185.279 75.902 186.754 80.716 187.715 85.6935C188.098 87.6771 187.378 88.9145 185.622 89.326C183.834 89.7432 182.463 88.8927 181.915 87.0119C181.845 86.7659 181.786 86.5174 181.727 86.2695C181.675 86.0515 181.623 85.8339 181.564 85.6188C177.132 69.2658 167.233 57.7482 151.183 51.9967C131.691 45.0122 111.264 52.3556 99.383 68.6027C98.8995 69.263 99.0167 69.5409 99.5377 69.9908C99.7701 70.1904 100.003 70.3895 100.236 70.5887C101.414 71.5951 102.593 72.6031 103.703 73.6806C114.716 84.3684 122.924 96.726 126.069 111.973C127.772 120.21 127.317 128.313 123.511 136.028C119.526 144.102 111.414 147.696 103.04 144.789C96.7008 142.593 92.4248 138.041 89.9072 131.929C81.8767 112.444 80.5496 92.7764 88.5495 72.9096C88.8257 72.2244 88.7197 71.938 88.1136 71.5309C86.0309 70.1432 83.8436 68.9375 81.5886 67.8683C74.016 64.2742 66.1085 62.5693 57.7917 64.3896C45.7945 67.0133 37.3528 74.3709 31.7095 85.0164C28.209 91.6148 26.516 98.784 26.1046 106.242C25.4998 117.275 27.5085 127.783 32.3294 137.752C34.3498 141.937 36.9766 145.699 39.8925 149.294C40.8531 150.486 40.7181 151.844 39.653 152.676C38.5058 153.574 37.5137 153.188 36.5454 152.283C33.9113 149.806 31.5009 147.136 29.5011 144.124C19.2284 128.629 17.2513 111.8 21.4697 93.9696C21.6708 93.1288 21.9536 92.3106 22.2362 91.4928ZM91.3191 103.712C90.7881 94.4826 91.5381 85.4139 95.0229 76.4617L95.0286 76.4645C107.085 87.4501 115.527 100.406 119.193 116.316C121.142 124.774 119.019 131.681 112.031 136.995C107.997 140.054 104.657 139.743 101.326 135.986C99.1914 133.573 97.5617 130.858 96.3401 127.906C93.1218 120.164 91.7962 112.022 91.3191 103.712Z" fill="#6A5ACD"/>
</g>
<defs>
<clipPath id="clip0_478_48">
<rect width="163.333" height="150" fill="white" transform="matrix(0.895803 0.444451 0.444451 -0.895803 0 134.37)"/>
</clipPath>
</defs>
</svg>
