<svg width="17" height="16" viewBox="0 0 17 16" fill="none" xmlns="http://www.w3.org/2000/svg">
<g clip-path="url(#clip0_117_101)">
<path d="M8.01653 0.000889984C9.44825 0.000889984 10.8795 -0.00138837 12.3112 0.00134566C13.8391 0.00453536 15.1551 0.87259 15.727 2.2469C15.9192 2.7094 16.0076 3.1915 16.0081 3.69046C16.0095 5.59927 16.014 7.50854 16.0072 9.41735C16.0008 11.2241 14.8001 12.6763 13.0326 13.0345C12.7806 13.0855 12.5259 13.0946 12.2698 13.0946C10.9857 13.0946 9.70206 13.096 8.41798 13.0919C8.2872 13.0919 8.18012 13.122 8.07121 13.1949C6.74794 14.0821 5.42239 14.9665 4.09593 15.8492C3.6357 16.1554 3.08935 15.9758 2.94263 15.4773C2.91483 15.383 2.91711 15.2864 2.91711 15.1903C2.9162 14.514 2.91438 13.8383 2.91939 13.1621C2.9203 13.0591 2.89023 13.0185 2.78952 12.9907C1.24252 12.5601 0.331173 11.5462 0.0427327 9.97144C0.01038 9.79373 0.00400057 9.60964 0.0035449 9.42828C0.00081087 7.51355 -0.0028345 5.59927 0.0035449 3.68454C0.00855729 1.9056 1.17872 0.459751 2.90982 0.0792655C3.18231 0.0191169 3.46027 0.000889984 3.73914 0.000889984C5.16494 0.000889984 6.59073 0.000889984 8.01699 0.000889984H8.01653Z" fill="#53616E"/>
<path d="M7.99713 5.82305C6.55448 5.82305 5.11228 5.82305 3.66962 5.82305C3.36386 5.82305 3.1301 5.69227 2.9934 5.41887C2.86354 5.15913 2.88678 4.89986 3.05811 4.66382C3.22215 4.43826 3.45682 4.36399 3.7284 4.36444C5.19931 4.36672 6.67022 4.36535 8.14113 4.36535C9.52682 4.36535 10.9125 4.36444 12.2982 4.36581C12.7753 4.36581 13.0984 4.67065 13.0925 5.10764C13.087 5.51 12.7744 5.82031 12.3584 5.82168C11.4666 5.82533 10.5753 5.82305 9.68357 5.82305C9.12127 5.82305 8.55898 5.82305 7.99668 5.82305H7.99713Z" fill="#CFDADD"/>
<path d="M7.98826 8.72975C7.03363 8.72975 6.079 8.73293 5.12436 8.72838C4.61629 8.7261 4.28092 8.31053 4.39073 7.83207C4.45908 7.53361 4.72428 7.30623 5.03095 7.28435C5.07059 7.28162 5.11024 7.28071 5.15034 7.28071C7.05368 7.28071 8.95747 7.2798 10.8608 7.28071C11.2705 7.28071 11.5557 7.50217 11.6259 7.86534C11.7102 8.30324 11.3999 8.71061 10.9547 8.72428C10.5519 8.73704 10.1481 8.72883 9.74442 8.72883C9.15934 8.72883 8.5738 8.72883 7.98872 8.72883L7.98826 8.72975Z" fill="#CFDADD"/>
</g>
<defs>
<clipPath id="clip0_117_101">
<rect width="16.0114" height="16" fill="white"/>
</clipPath>
</defs>
</svg>
