<svg width="399" height="361" viewBox="0 0 399 361" fill="none" xmlns="http://www.w3.org/2000/svg">
<path opacity="0.07" d="M234.87 15.7392L429.174 233.087L234.826 226.131C233.391 226.087 231.826 223.739 232.174 222.174L251.739 135.304L349.652 184.348L250.565 119.609L232.218 16.6958C231.87 14.6958 233.435 14.174 234.87 15.7392Z" fill="url(#paint0_linear_328_288)"/>
<path opacity="0.4" d="M219.957 26.5654L414.261 243.913L219.913 236.957C218.478 236.913 216.913 234.565 217.261 233L236.783 146.174L334.696 195.218L235.696 130.435L217.304 27.5219C216.957 25.5219 218.522 25.0002 219.957 26.5654Z" fill="url(#paint1_linear_328_288)"/>
<path opacity="0.3" d="M224.261 296.174L94.8696 221.478L94.9131 288.913L212.87 357L224.304 373.913L224.261 296.174Z" fill="url(#paint2_linear_328_288)"/>
<path fill-rule="evenodd" clip-rule="evenodd" d="M81.0869 247.783V229.478L129.913 257.652V275.957L81.0869 247.783Z" fill="#F2994A"/>
<path opacity="0.15" d="M191 293.391L162.652 277.043V282.956L191 299.304V293.391Z" fill="white"/>
<path opacity="0.15" d="M191 305.218L136.348 273.696V279.609L191 311.131V305.218Z" fill="white"/>
<path opacity="0.15" d="M191.044 317.087L124.826 278.87V284.783L191.044 323V317.087Z" fill="white"/>
<path fill-rule="evenodd" clip-rule="evenodd" d="M198 303.565C198 309.131 201.304 315.522 205.348 317.87C209.391 320.217 212.696 317.609 212.696 312.044C212.696 306.478 209.391 300.087 205.348 297.739C201.261 295.391 198 298 198 303.565Z" fill="#F2994A"/>
<path opacity="0.3" d="M235.435 290.478L364.826 365.174L364.869 432.609L246.869 364.478L235.478 368.217L235.435 290.478Z" fill="url(#paint3_linear_328_288)"/>
<path fill-rule="evenodd" clip-rule="evenodd" d="M327.174 377.044V358.739L376 386.913V405.218L327.174 377.044Z" fill="#F2C94C"/>
<path opacity="0.15" d="M268.696 326.087L297.044 342.435V348.348L268.696 332V326.087Z" fill="white"/>
<path opacity="0.15" d="M268.696 337.957L319.87 367.478V373.391L268.696 343.87V337.957Z" fill="white"/>
<path opacity="0.15" d="M268.739 349.783L334.957 388V393.913L268.739 355.696V349.783Z" fill="white"/>
<path fill-rule="evenodd" clip-rule="evenodd" d="M261.739 328.217C261.739 333.783 258.435 336.391 254.391 334.043C250.348 331.696 247.043 325.304 247.043 319.739C247.043 314.174 250.348 311.565 254.391 313.913C258.435 316.261 261.739 322.696 261.739 328.217Z" fill="#F2C94C"/>
<path opacity="0.2" d="M382.522 405.348L305.261 360.739V401L382.522 445.609V405.348Z" fill="url(#paint4_linear_328_288)"/>
<path opacity="0.2" d="M168.609 343.609L91.3477 299V339.261L168.609 383.87V343.609Z" fill="url(#paint5_linear_328_288)"/>
<path opacity="0.15" d="M111.13 320.131L134.348 333.565V338.391L111.13 324.957V320.131Z" fill="white"/>
<path opacity="0.15" d="M111.13 329.826L160.609 358.391V363.304L111.13 334.739V329.826Z" fill="white"/>
<path fill-rule="evenodd" clip-rule="evenodd" d="M107.043 321.565C107.043 324.87 105.087 326.435 102.652 325.044C100.217 323.652 98.2607 319.826 98.2607 316.522C98.2607 313.217 100.217 311.652 102.652 313.044C105.087 314.435 107.043 318.261 107.043 321.565Z" fill="#F2994A"/>
<path opacity="0.2" d="M179.696 215.565L161.087 204.826V198.565L179.696 209.305C181.217 210.174 183.435 211.957 185.304 214.696C187.348 217.609 188.783 221.305 188.783 225.305C188.783 229.739 187.652 232.261 185.522 232.957C183.522 233.609 181.13 232.478 179.696 231.652L172.043 227.218L172 227.174C171.348 226.783 170.304 226.392 169.478 226.652C168.783 226.87 168.043 227.522 168.043 230C168.043 232.478 168.826 233.957 169.435 234.87C170.217 236 171.261 236.783 171.913 237.131L172 237.174L195.391 250.696V256.957L172.13 243.522C170.522 242.696 168.217 240.913 166.217 238.131C164.043 235.044 162.565 231.174 162.565 226.87C162.565 222.565 164.043 220.392 166.174 219.783C168.174 219.218 170.478 220.044 172.087 221L179.652 225.348C180.739 226 181.565 226.261 182.13 226.087C182.565 225.957 183.348 225.348 183.348 222.174C183.348 220.087 182.696 218.739 182.043 217.87C181.304 216.739 180.304 215.913 179.696 215.565Z" fill="white"/>
<path fill-rule="evenodd" clip-rule="evenodd" d="M164.478 203.478C164.478 209.087 161.174 211.739 157.131 209.435C153.087 207.087 149.783 200.652 149.783 195C149.783 189.391 153.087 186.739 157.131 189.043C161.174 191.391 164.478 197.87 164.478 203.478Z" fill="#F2994A"/>
<path fill-rule="evenodd" clip-rule="evenodd" d="M204.913 259.131C204.913 264.739 201.609 267.391 197.565 265.087C193.522 262.739 190.217 256.304 190.217 250.652C190.217 245.044 193.522 242.391 197.565 244.696C201.609 247.044 204.913 253.522 204.913 259.131Z" fill="#F2C94C"/>
<path opacity="0.2" d="M256.565 349V385.652C256.565 386.043 256.956 386.478 257.217 386.348L265.782 381.087L274.521 396.565C275 397.391 275.826 397.478 275.826 396.696V360.174L256.565 349Z" fill="url(#paint6_linear_328_288)"/>
<defs>
<linearGradient id="paint0_linear_328_288" x1="12184.1" y1="7565.86" x2="3926.87" y2="18470.4" gradientUnits="userSpaceOnUse">
<stop stop-color="white"/>
<stop offset="1" stop-color="white" stop-opacity="0"/>
</linearGradient>
<linearGradient id="paint1_linear_328_288" x1="12169.6" y1="7576.03" x2="3912.35" y2="18480.5" gradientUnits="userSpaceOnUse">
<stop stop-color="white"/>
<stop offset="1" stop-color="white" stop-opacity="0"/>
</linearGradient>
<linearGradient id="paint2_linear_328_288" x1="9195.69" y1="4988.27" x2="3670.68" y2="9314.04" gradientUnits="userSpaceOnUse">
<stop stop-color="white"/>
<stop offset="1" stop-color="white" stop-opacity="0"/>
</linearGradient>
<linearGradient id="paint3_linear_328_288" x1="5950.11" y1="507.654" x2="7618.45" y2="14039.6" gradientUnits="userSpaceOnUse">
<stop stop-color="white"/>
<stop offset="1" stop-color="white" stop-opacity="0"/>
</linearGradient>
<linearGradient id="paint4_linear_328_288" x1="4890.85" y1="3093.71" x2="3221.75" y2="5985.43" gradientUnits="userSpaceOnUse">
<stop stop-color="white"/>
<stop offset="1" stop-color="white" stop-opacity="0"/>
</linearGradient>
<linearGradient id="paint5_linear_328_288" x1="4676.93" y1="3031.97" x2="3007.84" y2="5923.69" gradientUnits="userSpaceOnUse">
<stop stop-color="white"/>
<stop offset="1" stop-color="white" stop-opacity="0"/>
</linearGradient>
<linearGradient id="paint6_linear_328_288" x1="1352.51" y1="2223.52" x2="475.488" y2="2778.94" gradientUnits="userSpaceOnUse">
<stop stop-color="white"/>
<stop offset="1" stop-color="white" stop-opacity="0"/>
</linearGradient>
</defs>
</svg>
