<svg width="24" height="24" viewBox="0 0 24 24" fill="none" xmlns="http://www.w3.org/2000/svg">
<path d="M1.5 9.21118V16.7256C1.50064 17.4612 1.79314 18.1665 2.3133 18.6867C2.83347 19.2068 3.53878 19.4993 4.2744 19.5H19.7256C20.4612 19.4993 21.1665 19.2068 21.6867 18.6867C22.2069 18.1665 22.4994 17.4612 22.5 16.7256V9.21118H1.5ZM6.9072 17.5632C6.28331 17.5632 5.67342 17.3783 5.15457 17.0318C4.63573 16.6853 4.23121 16.1928 3.99213 15.6166C3.75305 15.0403 3.69013 14.4061 3.81133 13.7941C3.93252 13.1821 4.23238 12.6198 4.67304 12.1781C5.11369 11.7364 5.67536 11.4353 6.28709 11.3127C6.89882 11.1901 7.53316 11.2516 8.10997 11.4894C8.68678 11.7271 9.18017 12.1305 9.52782 12.6486C9.87547 13.1666 10.0618 13.7761 10.0632 14.4C10.0638 14.8149 9.98268 15.226 9.82439 15.6096C9.6661 15.9932 9.43377 16.3418 9.14067 16.6356C8.84758 16.9293 8.49947 17.1624 8.11624 17.3216C7.73301 17.4808 7.32217 17.5629 6.9072 17.5632ZM20.4 16.0152H13.8288C13.7015 16.0152 13.5794 15.9646 13.4894 15.8746C13.3994 15.7846 13.3488 15.6625 13.3488 15.5352C13.3488 15.4079 13.3994 15.2858 13.4894 15.1958C13.5794 15.1057 13.7015 15.0552 13.8288 15.0552H20.4C20.5273 15.0552 20.6494 15.1057 20.7394 15.1958C20.8294 15.2858 20.88 15.4079 20.88 15.5352C20.88 15.6625 20.8294 15.7846 20.7394 15.8746C20.6494 15.9646 20.5273 16.0152 20.4 16.0152ZM20.4 13.2288H13.8288C13.7015 13.2288 13.5794 13.1782 13.4894 13.0882C13.3994 12.9982 13.3488 12.8761 13.3488 12.7488C13.3488 12.6215 13.3994 12.4994 13.4894 12.4094C13.5794 12.3194 13.7015 12.2688 13.8288 12.2688H20.4C20.5273 12.2688 20.6494 12.3194 20.7394 12.4094C20.8294 12.4994 20.88 12.6215 20.88 12.7488C20.88 12.8761 20.8294 12.9982 20.7394 13.0882C20.6494 13.1782 20.5273 13.2288 20.4 13.2288Z" fill="#53616E"/>
<path d="M19.7256 4.5H4.2744C3.53878 4.50064 2.83347 4.79314 2.3133 5.31331C1.79314 5.83347 1.50064 6.53878 1.5 7.2744V8.2512H22.5V7.2744C22.4994 6.53878 22.2069 5.83347 21.6867 5.31331C21.1665 4.79314 20.4612 4.50064 19.7256 4.5Z" fill="#CFDADD"/>
</svg>
