<svg width="24" height="24" viewBox="0 0 24 24" fill="none" xmlns="http://www.w3.org/2000/svg">
<g clip-path="url(#clip0_15_352)">
<path d="M21.1865 16.0271C20.5414 17.7754 19.5658 19.2955 18.2864 20.5448C16.8302 21.9668 14.9233 23.0968 12.6188 23.9028C12.5432 23.9292 12.4642 23.9508 12.385 23.9667C12.2802 23.9874 12.1736 23.9986 12.068 24H12.0473C11.9347 24 11.8215 23.9887 11.7093 23.9667C11.63 23.9508 11.5522 23.9292 11.4769 23.9033C9.16962 23.0986 7.26038 21.9692 5.80267 20.5472C4.52276 19.2979 3.54736 17.7786 2.90319 16.0304C1.73187 12.8516 1.79852 9.34993 1.85217 6.53596L1.85308 6.49275C1.86389 6.26039 1.87084 6.0163 1.87469 5.74677C1.89428 4.42347 2.94641 3.32868 4.26989 3.25489C7.0293 3.1009 9.16394 2.20093 10.9879 0.42316L11.0038 0.408511C11.3066 0.13074 11.6882 -0.00549075 12.068 0.000185551C12.4342 0.00494631 12.799 0.140994 13.091 0.408511L13.1066 0.42316C14.9309 2.20093 17.0655 3.1009 19.8249 3.25489C21.1484 3.32868 22.2005 4.42347 22.2201 5.74677C22.224 6.01814 22.2309 6.26185 22.2417 6.49275L22.2423 6.51106C22.2957 9.33033 22.362 12.839 21.1865 16.0271Z" fill="#53616E"/>
<path d="M21.1864 16.027C20.5413 17.7753 19.5657 19.2955 18.2864 20.5448C16.8301 21.9668 14.9233 23.0968 12.6187 23.9028C12.5431 23.9292 12.4642 23.9508 12.3849 23.9667C12.2802 23.9874 12.1736 23.9985 12.0679 24V0.000182152C12.4341 0.00494291 12.7989 0.14099 13.0909 0.408508L13.1065 0.423156C14.9308 2.20093 17.0654 3.10089 19.8248 3.25488C21.1483 3.32868 22.2004 4.42346 22.22 5.74677C22.2239 6.01813 22.2308 6.26184 22.2416 6.49274L22.2422 6.51105C22.2957 9.33033 22.3619 12.839 21.1864 16.027Z" fill="#53616E"/>
<path d="M18.0282 12C18.0282 15.291 15.3562 17.9698 12.068 17.9815H12.0469C8.749 17.9815 6.0654 15.2981 6.0654 12C6.0654 8.7021 8.749 6.01868 12.0469 6.01868H12.068C15.3562 6.0304 18.0282 8.70924 18.0282 12Z" fill="#F2F4F7"/>
<path d="M18.0282 12C18.0282 15.291 15.3561 17.9698 12.0679 17.9815V6.01868C15.3561 6.0304 18.0282 8.70924 18.0282 12Z" fill="#CFDADD"/>
<path fill-rule="evenodd" clip-rule="evenodd" d="M11.28 12.96H10.56C10.3054 12.96 10.0612 12.8589 9.8812 12.6788C9.70117 12.4988 9.60003 12.2546 9.60003 12C9.60003 11.4698 10.0298 11.04 10.56 11.04H11.28C11.4126 11.04 11.52 10.9325 11.52 10.8C11.52 10.6675 11.4126 10.56 11.28 10.56H10.56C9.76474 10.56 9.12003 11.2047 9.12003 12C9.12003 12.3819 9.27174 12.7482 9.54179 13.0182C9.81184 13.2883 10.1781 13.44 10.56 13.44H11.28C11.4126 13.44 11.52 13.3325 11.52 13.2C11.52 13.0675 11.4126 12.96 11.28 12.96ZM12.72 11.04H13.44C13.6946 11.04 13.9388 11.1411 14.1188 11.3212C14.2989 11.5012 14.4 11.7454 14.4 12C14.4 12.5302 13.9702 12.96 13.44 12.96H12.72C12.5875 12.96 12.48 13.0675 12.48 13.2C12.48 13.3325 12.5875 13.44 12.72 13.44H13.44C14.2353 13.44 14.88 12.7953 14.88 12C14.88 11.6181 14.7283 11.2518 14.4583 10.9818C14.1882 10.7117 13.8219 10.56 13.44 10.56H12.72C12.5875 10.56 12.48 10.6675 12.48 10.8C12.48 10.9325 12.5875 11.04 12.72 11.04ZM12.96 12.24H11.04C10.9075 12.24 10.8 12.1325 10.8 12C10.8 11.8675 10.9075 11.76 11.04 11.76H12.96C13.0926 11.76 13.2 11.8675 13.2 12C13.2 12.1325 13.0926 12.24 12.96 12.24Z" fill="#53616E"/>
<mask id="mask0_15_352" style="mask-type:luminance" maskUnits="userSpaceOnUse" x="9" y="10" width="6" height="4">
<path fill-rule="evenodd" clip-rule="evenodd" d="M11.28 12.96H10.56C10.3054 12.96 10.0612 12.8589 9.8812 12.6788C9.70117 12.4988 9.60003 12.2546 9.60003 12C9.60003 11.4698 10.0298 11.04 10.56 11.04H11.28C11.4126 11.04 11.52 10.9325 11.52 10.8C11.52 10.6675 11.4126 10.56 11.28 10.56H10.56C9.76474 10.56 9.12003 11.2047 9.12003 12C9.12003 12.3819 9.27174 12.7482 9.54179 13.0182C9.81184 13.2883 10.1781 13.44 10.56 13.44H11.28C11.4126 13.44 11.52 13.3325 11.52 13.2C11.52 13.0675 11.4126 12.96 11.28 12.96ZM12.72 11.04H13.44C13.6946 11.04 13.9388 11.1411 14.1188 11.3212C14.2989 11.5012 14.4 11.7454 14.4 12C14.4 12.5302 13.9702 12.96 13.44 12.96H12.72C12.5875 12.96 12.48 13.0675 12.48 13.2C12.48 13.3325 12.5875 13.44 12.72 13.44H13.44C14.2353 13.44 14.88 12.7953 14.88 12C14.88 11.6181 14.7283 11.2518 14.4583 10.9818C14.1882 10.7117 13.8219 10.56 13.44 10.56H12.72C12.5875 10.56 12.48 10.6675 12.48 10.8C12.48 10.9325 12.5875 11.04 12.72 11.04ZM12.96 12.24H11.04C10.9075 12.24 10.8 12.1325 10.8 12C10.8 11.8675 10.9075 11.76 11.04 11.76H12.96C13.0926 11.76 13.2 11.8675 13.2 12C13.2 12.1325 13.0926 12.24 12.96 12.24Z" fill="white"/>
</mask>
<g mask="url(#mask0_15_352)">
<rect x="9.12003" y="9.12" width="5.76" height="5.76" fill="#53616E"/>
</g>
</g>
<defs>
<clipPath id="clip0_15_352">
<rect width="24" height="24" fill="white"/>
</clipPath>
</defs>
</svg>
