<svg width="32" height="33" viewBox="0 0 32 33" fill="none" xmlns="http://www.w3.org/2000/svg">
<g clip-path="url(#clip0_424_283)">
<g filter="url(#filter0_f_424_283)">
<path d="M9.95924 25.2853L10.3674 25.5271C12.0818 26.5446 14.0475 27.0828 16.052 27.0837H16.0562C22.2122 27.0837 27.2221 22.0748 27.2247 15.9185C27.2258 12.9352 26.0652 10.1298 23.9565 8.0195C22.9223 6.97875 21.6919 6.15348 20.3365 5.59146C18.9812 5.02944 17.5278 4.74182 16.0606 4.74527C9.89989 4.74527 4.88975 9.75358 4.88756 15.9095C4.88453 18.0116 5.47648 20.0717 6.59498 21.8515L6.86071 22.2737L5.73223 26.3935L9.95924 25.2853ZM2.50586 29.5852L4.41235 22.6244C3.23657 20.5873 2.618 18.2763 2.61873 15.9086C2.62183 8.50183 8.64941 2.47607 16.0564 2.47607C19.6508 2.4779 23.0245 3.87668 25.5618 6.41581C28.0991 8.95493 29.4952 12.33 29.4939 15.9194C29.4906 23.3257 23.4621 29.3525 16.0562 29.3525H16.0504C13.8016 29.3516 11.592 28.7875 9.62923 27.7172L2.50586 29.5852Z" fill="#B3B3B3"/>
</g>
<path d="M2.36792 29.4471L4.27441 22.4863C3.0966 20.4443 2.47794 18.1279 2.48079 15.7706C2.48389 8.36376 8.51147 2.33801 15.9185 2.33801C19.5128 2.33984 22.8866 3.73862 25.4239 6.27774C27.9612 8.81687 29.3572 12.1919 29.356 15.7814C29.3527 23.1876 23.3242 29.2145 15.9183 29.2145H15.9124C13.6637 29.2135 11.454 28.6494 9.49129 27.5792L2.36792 29.4471Z" fill="white"/>
<path d="M15.9226 4.60721C9.76185 4.60721 4.75171 9.61552 4.74952 15.7715C4.74649 17.8736 5.33844 19.9336 6.45695 21.7134L6.72268 22.1358L5.5942 26.2556L9.82139 25.1472L10.2296 25.3891C11.9439 26.4065 13.9096 26.9445 15.9142 26.9456H15.9184C22.0743 26.9456 27.0845 21.9368 27.0868 15.7804C27.0915 14.3131 26.805 12.8594 26.244 11.5035C25.6831 10.1477 24.8587 8.91654 23.8186 7.88143C22.7844 6.84066 21.554 6.01538 20.1986 5.45336C18.8432 4.89134 17.3898 4.60374 15.9226 4.60721Z" fill="url(#paint0_linear_424_283)"/>
<path fill-rule="evenodd" clip-rule="evenodd" d="M12.56 10.1549C12.3083 9.59587 12.0435 9.58455 11.8044 9.57487L11.1608 9.56702C10.9369 9.56702 10.5731 9.65103 10.2656 9.98707C9.95802 10.3231 9.09033 11.1353 9.09033 12.7872C9.09033 14.4391 10.2935 16.0353 10.4612 16.2596C10.6288 16.4838 12.7839 19.9818 16.1967 21.3276C19.0328 22.446 19.6099 22.2236 20.2258 22.1677C20.8416 22.1118 22.2122 21.3555 22.4918 20.5715C22.7715 19.7875 22.7716 19.1157 22.6878 18.9753C22.604 18.8348 22.3801 18.7514 22.044 18.5834C21.708 18.4153 20.0575 17.6032 19.7498 17.491C19.4421 17.3789 19.2184 17.3232 18.9943 17.6592C18.7702 17.9953 18.1275 18.7512 17.9315 18.9753C17.7356 19.1994 17.54 19.2275 17.2039 19.0597C16.8679 18.8918 15.7867 18.5372 14.5039 17.3933C13.5058 16.5034 12.8321 15.4043 12.6359 15.0684C12.4398 14.7326 12.6151 14.5507 12.7835 14.3834C12.9342 14.2329 13.1192 13.9913 13.2874 13.7953C13.4556 13.5993 13.5109 13.4593 13.6227 13.2355C13.7345 13.0118 13.6788 12.8153 13.5948 12.6475C13.5108 12.4796 12.8584 10.819 12.56 10.1549Z" fill="white"/>
</g>
<defs>
<filter id="filter0_f_424_283" x="-4.55614" y="-4.58593" width="41.112" height="41.2331" filterUnits="userSpaceOnUse" color-interpolation-filters="sRGB">
<feFlood flood-opacity="0" result="BackgroundImageFix"/>
<feBlend mode="normal" in="SourceGraphic" in2="BackgroundImageFix" result="shape"/>
<feGaussianBlur stdDeviation="3.531" result="effect1_foregroundBlur_424_283"/>
</filter>
<linearGradient id="paint0_linear_424_283" x1="15.6908" y1="5.94773" x2="15.804" y2="25.0373" gradientUnits="userSpaceOnUse">
<stop stop-color="#57D163"/>
<stop offset="1" stop-color="#23B33A"/>
</linearGradient>
<clipPath id="clip0_424_283">
<rect width="32" height="32.0614" fill="white"/>
</clipPath>
</defs>
</svg>
