<svg width="24" height="24" viewBox="0 0 24 24" fill="none" xmlns="http://www.w3.org/2000/svg">
<g clip-path="url(#clip0_15_312)">
<path d="M10.1306 8.47737H14.3494V21.1805H10.1306V8.47737Z" fill="#53616E" fill-opacity="0.8"/>
<path d="M3.09937 8.47737H7.31812V21.1805H3.09937V8.47737Z" fill="#53616E" fill-opacity="0.8"/>
<path d="M17.1619 8.47737H21.3806V21.1805H17.1619V8.47737Z" fill="#53616E"/>
<path d="M12.24 8.47737H14.3494V21.1805H12.24V8.47737Z" fill="#53616E"/>
<path d="M1.69312 19.7742H22.7869V23.2899H1.69312V19.7742Z" fill="#CFDADD"/>
<path d="M12.24 19.7742H22.7869V23.2899H12.24V19.7742Z" fill="#53616E" fill-opacity="0.8"/>
<path d="M1.69312 5.66486H22.7869V9.88361H1.69312V5.66486Z" fill="#CFDADD"/>
<path d="M12.24 5.66486H22.7869V9.88361H12.24V5.66486Z" fill="#53616E" fill-opacity="0.8"/>
<path d="M12.24 0.00704956L0.23999 4.4695V7.07111H24.24V4.4695L12.24 0.00704956Z" fill="#53616E" fill-opacity="0.8"/>
<path d="M24.24 4.4695V7.07111H12.24V0.00704956L24.24 4.4695Z" fill="#53616E"/>
<path d="M12.24 19.7742H22.7869V23.2899H12.24V19.7742Z" fill="#53616E" fill-opacity="0.8"/>
<path d="M0.23999 22.5867H24.24V23.993H0.23999V22.5867Z" fill="#53616E" fill-opacity="0.8"/>
<path d="M12.24 22.5867H24.24V23.993H12.24V22.5867Z" fill="#53616E"/>
<path d="M11.5369 2.85236H12.9431V4.25861H11.5369V2.85236Z" fill="#CFDADD"/>
<path d="M12.24 2.85236H12.9431V4.25861H12.24V2.85236Z" fill="#F2F4F7"/>
</g>
<defs>
<clipPath id="clip0_15_312">
<rect width="24" height="24" fill="white"/>
</clipPath>
</defs>
</svg>
