<svg width="32" height="20" viewBox="0 0 32 20" fill="none" xmlns="http://www.w3.org/2000/svg">
<g clip-path="url(#clip0_422_242)">
<path d="M2.96996 0H29.0175C30.6658 0 32.0003 1.33437 32.0003 2.98287V12.9256C32.0003 14.574 30.666 15.9085 29.0175 15.9085H19.6766L20.9587 19.0482L15.3201 15.9085H2.98321C1.33484 15.9085 0.000339517 14.5741 0.000339517 12.9256V2.98287C-0.012743 1.3475 1.32159 0 2.96996 0Z" fill="#7F54B3"/>
<path d="M1.82219 2.7187C2.0043 2.47155 2.27748 2.34146 2.6417 2.31545C3.30511 2.26342 3.68235 2.57561 3.77341 3.25204C4.17666 5.97079 4.61894 8.27316 5.08729 10.1594L7.93604 4.73504C8.1962 4.24072 8.5214 3.98056 8.91165 3.95455C9.48401 3.91552 9.83523 4.27975 9.97831 5.04724C10.3035 6.77736 10.7198 8.24724 11.2141 9.49599C11.5523 6.19186 12.1247 3.81149 12.9312 2.34149C13.1263 1.97726 13.4125 1.79515 13.7898 1.76912C14.0889 1.74311 14.3621 1.83417 14.6093 2.02929C14.8564 2.22441 14.9865 2.47156 15.0125 2.77075C15.0255 3.0049 14.9865 3.20001 14.8824 3.39514C14.3751 4.33172 13.9588 5.90576 13.6207 8.09101C13.2955 10.2114 13.1784 11.8634 13.2565 13.0471C13.2825 13.3723 13.2304 13.6585 13.1004 13.9057C12.9443 14.1918 12.7101 14.3479 12.4109 14.374C12.0727 14.4 11.7215 14.2439 11.3833 13.8927C10.1735 12.6569 9.21091 10.8098 8.50854 8.35116C7.66301 10.0162 7.03866 11.265 6.63541 12.0975C5.86794 13.5674 5.21754 14.3219 4.67116 14.3609C4.31994 14.3869 4.02075 14.0877 3.76059 13.4633C3.09718 11.7592 2.38171 8.46822 1.61421 3.59022C1.56218 3.25201 1.64023 2.95282 1.82234 2.71867L1.82219 2.7187ZM29.7772 4.76095C29.3089 3.94144 28.6195 3.44707 27.6959 3.25195C27.4488 3.19992 27.2146 3.1739 26.9935 3.1739C25.7447 3.1739 24.7301 3.82431 23.9366 5.12515C23.2602 6.23084 22.922 7.45365 22.922 8.7934C22.922 9.79503 23.1301 10.6535 23.5464 11.369C24.0147 12.1885 24.7041 12.6829 25.6276 12.878C25.8748 12.9301 26.1089 12.9561 26.3301 12.9561C27.5918 12.9561 28.6064 12.3057 29.3869 11.0048C30.0634 9.88612 30.4016 8.66332 30.4016 7.32357C30.4146 6.30894 30.1935 5.46345 29.7772 4.76095ZM28.1382 8.3642C27.9561 9.22274 27.6309 9.86007 27.1496 10.2894C26.7723 10.6277 26.4211 10.7708 26.0959 10.7057C25.7837 10.6407 25.5236 10.3675 25.3284 9.86019C25.1723 9.45694 25.0943 9.05369 25.0943 8.67645C25.0943 8.35125 25.1203 8.02604 25.1853 7.72686C25.3024 7.19352 25.5236 6.6732 25.8748 6.17886C26.304 5.54146 26.7593 5.2813 27.2276 5.37236C27.5398 5.4374 27.8 5.71057 27.9951 6.21789C28.1512 6.62114 28.2293 7.02439 28.2293 7.40162C28.2293 7.73984 28.2032 8.06501 28.1382 8.3642ZM21.6341 4.76095C21.1658 3.94144 20.4633 3.44707 19.5528 3.25195C19.3057 3.19992 19.0715 3.1739 18.8504 3.1739C17.6016 3.1739 16.587 3.82431 15.7935 5.12515C15.1171 6.23084 14.7789 7.45365 14.7789 8.7934C14.7789 9.79503 14.987 10.6535 15.4033 11.369C15.8715 12.1885 16.561 12.6829 17.4845 12.878C17.7316 12.9301 17.9658 12.9561 18.1869 12.9561C19.4487 12.9561 20.4633 12.3057 21.2438 11.0048C21.9202 9.88612 22.2585 8.66332 22.2585 7.32357C22.2585 6.30894 22.0503 5.46345 21.6341 4.76095ZM19.9821 8.3642C19.8 9.22274 19.4748 9.86007 18.9935 10.2894C18.6162 10.6277 18.265 10.7708 17.9398 10.7057C17.6276 10.6407 17.3674 10.3675 17.1723 9.86019C17.0162 9.45694 16.9382 9.05369 16.9382 8.67645C16.9382 8.35125 16.9642 8.02604 17.0292 7.72686C17.1463 7.19352 17.3674 6.6732 17.7186 6.17886C18.1479 5.54146 18.6032 5.2813 19.0715 5.37236C19.3837 5.4374 19.6439 5.71057 19.839 6.21789C19.9951 6.62114 20.0731 7.02439 20.0731 7.40162C20.0862 7.73984 20.0471 8.06501 19.9821 8.3642Z" fill="white"/>
</g>
<defs>
<clipPath id="clip0_422_242">
<rect width="32" height="19.125" fill="white"/>
</clipPath>
</defs>
</svg>
